<svg xmlns="http://www.w3.org/2000/svg" xmlns:xlink="http://www.w3.org/1999/xlink" width="353.955" height="436.585" viewBox="0 0 353.955 436.585">
  <defs>
    <clipPath id="clip-path">
      <path id="Trazado_7608" data-name="Trazado 7608" d="M79.878,144.614c-5.348,7.874-10.4,16.738-9.846,26.241.76,13.128,12.043,23.35,23.98,28.865,3.219,1.487,6.753,2.922,8.637,5.926,2.7,4.312.917,9.953-1.244,14.563C93.049,238.034,80.061,253.5,72.785,271.8a92.634,92.634,0,0,0,7.124,81.534c1.617,2.619,3.453,5.24,6.107,6.8a18.4,18.4,0,0,0,8.329,2.014c35.024,2.044,66.784-23.083,101.863-23.66,2.836-.047,5.935.169,8.035,2.074,1.641,1.489,2.343,3.722,2.978,5.844q3.654,12.225,7.308,24.45c1.219,4.079,2.672,8.485,6.211,10.85,2.616,1.748,5.913,2.046,9.056,2.178,54.915,2.3,105.433-30.484,144.518-69.127,16.2-16.016,31.375-33.534,41.224-54.074,4.864-10.143,7.923-23.441.3-31.71-7.6-8.24-21.606-6.674-30.215-13.852-7.755-6.465-8.79-18.1-6.884-28.012,2.719-14.139,10.03-26.969,13.947-40.824s3.658-30.511-6.633-40.58c-6.491-6.352-15.681-8.858-24.05-12.386S345.039,84.066,343.09,75.2c-1.189-5.409.342-11.023.182-16.559C342.02,15.236,272.94,20,244.787,28.972,203.5,42.135,163.572,62.828,130.015,90.327A258.047,258.047,0,0,0,79.878,144.614Z" transform="translate(-66.496 -22.965)" fill="none"/>
    </clipPath>
  </defs>
  <g id="Grupo_3609" data-name="Grupo 3609" transform="translate(-66.496 -22.965)">
    <g id="Grupo_3464" data-name="Grupo 3464" transform="translate(66.496 22.965)">
      <path id="Trazado_7599" data-name="Trazado 7599" d="M79.878,144.614c-5.348,7.874-10.4,16.738-9.846,26.241.76,13.128,12.043,23.35,23.98,28.865,3.219,1.487,6.753,2.922,8.637,5.926,2.7,4.312.917,9.953-1.244,14.563C93.049,238.034,80.061,253.5,72.785,271.8a92.634,92.634,0,0,0,7.124,81.534c1.617,2.619,3.453,5.24,6.107,6.8a18.4,18.4,0,0,0,8.329,2.014c35.024,2.044,66.784-23.083,101.863-23.66,2.836-.047,5.935.169,8.035,2.074,1.641,1.489,2.343,3.722,2.978,5.844q3.654,12.225,7.308,24.45c1.219,4.079,2.672,8.485,6.211,10.85,2.616,1.748,5.913,2.046,9.056,2.178,54.915,2.3,105.433-30.484,144.518-69.127,16.2-16.016,31.375-33.534,41.224-54.074,4.864-10.143,7.923-23.441.3-31.71-7.6-8.24-21.606-6.674-30.215-13.852-7.755-6.465-8.79-18.1-6.884-28.012,2.719-14.139,10.03-26.969,13.947-40.824s3.658-30.511-6.633-40.58c-6.491-6.352-15.681-8.858-24.05-12.386S345.039,84.066,343.09,75.2c-1.189-5.409.342-11.023.182-16.559C342.02,15.236,272.94,20,244.787,28.972,203.5,42.135,163.572,62.828,130.015,90.327A258.047,258.047,0,0,0,79.878,144.614Z" transform="translate(-66.496 -22.965)" fill="#92dfd7"/>
      <g id="Grupo_3463" data-name="Grupo 3463">
        <g id="Grupo_3462" data-name="Grupo 3462" clip-path="url(#clip-path)">
          <g id="Grupo_3461" data-name="Grupo 3461" transform="translate(-39.055 45.573)">
            <g id="Grupo_3459" data-name="Grupo 3459" transform="translate(0 27.437)">
              <path id="Trazado_7600" data-name="Trazado 7600" d="M125.8,352.825c-1.4-25.158-2.747-50.813,3.721-75.165,3.245-12.219,8.394-23.832,13.231-35.514,18.942-45.743,33.487-93.989,35.224-143.468,19.181,37.611,25.225,82.571,12.617,122.863-5.162,16.5-13.247,31.9-19.8,47.89-17.2,41.945-23.636,89.4-11.3,133.021a144.6,144.6,0,0,1-27.943-36.729" transform="translate(-29.517 -98.679)" fill="#7ea390"/>
              <path id="Trazado_7601" data-name="Trazado 7601" d="M137.924,379.417c-6.353-23.457-12.782-47.389-13.767-71.28-.495-11.988.4-23.692,1.07-35.414,2.632-45.9,1.822-93.5-7.71-140.312,20.78,32.48,34.474,73.863,34.847,113.68.152,16.3-1.861,32.017-2.738,48.055-2.3,42.067,3.691,87.686,21.251,126.858A145.769,145.769,0,0,1,144.5,390.681" transform="translate(-29.263 -99.884)" fill="#787c43"/>
              <path id="Trazado_7602" data-name="Trazado 7602" d="M114,404.405c6.938-23.291,14.06-47.026,25.79-67.862,5.885-10.455,12.8-19.939,19.54-29.555,26.388-37.653,50.735-78.556,67.255-123.383.587,38.554-9.537,80.951-30.167,115.01-8.445,13.943-18.426,26.25-27.607,39.429-24.085,34.566-42.989,76.514-48.662,119.065a145.714,145.714,0,0,1-6.479-39.663" transform="translate(-29.126 -101.712)" fill="#7ea390"/>
              <path id="Trazado_7603" data-name="Trazado 7603" d="M148.376,230.342c8.492-3.862,18.071-4.393,27.106-6.717,13.839-3.56,26.228-11.285,37.794-19.674-3.457,11.365-6.951,22.817-12.587,33.274s-13.634,19.981-24.174,25.461c-17.614,9.158-40,6.07-56.843,16.585a10.979,10.979,0,0,0-4.027,3.762,12.713,12.713,0,0,0-1.075,5.953q-.2,10.958-.389,21.916c1.69-7.612,8.55-13.144,15.866-15.843s15.229-3.155,22.928-4.392a112.659,112.659,0,0,0,37.911-13.377c-5.626,10.273-6.008,22.923-12.351,32.769-8.866,13.765-27.363,18.426-43.586,16.213-6.835-.931-14.648-2.608-19.959,1.794-4.032,3.341-5.028,9.023-5.758,14.208q-3.784,26.879-7.569,53.758c-.257,1.829-.764,3.986-2.492,4.64-2.973,1.122-4.894-3.17-5.126-6.338a247.1,247.1,0,0,1,1.562-51.208c-14.46,2.366-29.944-7.013-34.543-20.926-1.446-4.375-1.908-9.031-3.393-13.394-4.757-13.972-18.743-22.28-31.681-29.382,16.424-5.381,35.154.313,48.148,11.708,3.525,3.092,6.763,6.664,8.615,10.973,2.087,4.854,2.277,10.279,3.375,15.447s3.524,10.568,8.29,12.85c4.031-8.933,5.224-18.843,6.368-28.577q1.782-15.148,3.563-30.3c.473-4.015.928-8.2-.429-12.007-2.3-6.457-9.117-10.081-15.632-12.213s-13.56-3.521-18.824-7.912c-9.061-7.561-9.7-21.011-9.625-32.812l.211-31.544a38.96,38.96,0,0,0,24.91,18.637c5.536,1.272,11.512,1.375,16.4,4.27,7.925,4.694,10.311,15.026,10.595,24.233s-.671,18.909,3.389,27.177c-.824-34.178,15.472-68.345,42.551-89.214q-3.677,18.015-7.875,35.918c-1.929,8.222-4.026,16.623-8.772,23.608-3.845,5.657-9.248,10.106-13.2,15.692-5.8,8.211-9.223,19.693-9.7,29.675C128.472,252.548,132.357,237.628,148.376,230.342Z" transform="translate(-25.994 -100.874)" fill="#f0c630"/>
            </g>
            <g id="Grupo_3460" data-name="Grupo 3460" transform="translate(144.028)">
              <path id="Trazado_7604" data-name="Trazado 7604" d="M259.93,387.665a15.714,15.714,0,0,0-2.657-6.211c-2.993-3.591-8.312-3.776-12.973-4.148-21.094-1.685-40.8-13.312-54.109-29.764a90.168,90.168,0,0,1-14.835-26.483c8.4,9.112,17.3,18.554,29,22.645,5.521,1.93,11.453,2.574,16.86,4.8,11.458,4.722,19.043,15.831,29.8,21.985-1.865-19.2-4.582-40.2-18.7-53.342-9.03-8.409-21.407-12.2-31.38-19.467a54.425,54.425,0,0,1-20.471-30.172c17.333,3.642,36.354,8.36,46.449,22.914,5.071,7.312,7.737,16.924,15.433,21.393q-4.837-13.248-8.559-26.867c-1.72-6.292-3.27-12.807-2.475-19.281.77-6.274,3.682-12.048,6.38-17.763a315.241,315.241,0,0,0,18.007-47.9c5.5,10.519,11.171,22.329,8.079,33.791-1.639,6.078-5.578,11.226-8.5,16.8-6.052,11.526-7.736,24.946-6.952,37.941s3.913,25.72,7.027,38.36a23.414,23.414,0,0,1,7.8-16.274c3.6-3.178,8.09-5.152,12.034-7.9,14.129-9.829,19.477-27.864,23.88-44.5,2.8,9.1,5.633,18.362,5.719,27.887s-2.964,19.523-10.186,25.733c-6.732,5.789-16.126,7.6-23.1,13.093a27.072,27.072,0,0,0-9.87,16.8c-1.437,8.978,1.741,17.992,5.016,26.474,4.351-11.709,18.434-15.76,28.633-22.972a45.876,45.876,0,0,0,18.156-27.456c-2.209,12.371,2.551,25.736-2.169,37.382-2.254,5.565-6.471,10.1-10.937,14.112-6.908,6.209-15.406,11.745-24.683,11.288-1.241-.062-2.6-.2-3.617.507a4.729,4.729,0,0,0-1.577,3.116c-2.632,13.276,2.921,26.621,5.171,39.968.506,3.006.147,7.1-2.836,7.731-2.759.581-4.785-2.511-5.737-5.165-2.359-6.572-2.948-12.691-3.054-19.511C263.893,400.557,261.651,394.157,259.93,387.665Z" transform="translate(-175.357 -74.862)" fill="#c1961e"/>
              <path id="Trazado_7605" data-name="Trazado 7605" d="M341.716,192.083c4.423-28.692-3.981-57.877-2.5-86.87.6-11.779,2.83-23.405,5.054-34.987-9.316,16.58-19.931,32.419-28.824,49.229s-16.11,34.844-17.939,53.774c-1.169,12.089-.118,24.266.216,36.406.231,8.413.12,16.87,1.378,25.192,1.922,12.714,7.017,24.957,7.277,37.812,9.113-11.736,14.415-24.951,20.838-38.17C333.754,221.014,339.423,206.947,341.716,192.083Z" transform="translate(-179.701 -70.226)" fill="#7ea390"/>
              <path id="Trazado_7606" data-name="Trazado 7606" d="M329.9,284.688c-11-31.766-35.4-57.1-49.569-87.579-5.758-12.383-9.768-25.492-13.759-38.552-.564,22.015-2.86,43.973-2.869,66s2.363,44.388,10.734,64.756c5.346,13.008,13.011,24.905,19.923,37.154,4.789,8.488,9.251,17.206,15.043,25.044,8.847,11.975,20.689,21.751,27.911,34.771,2.98-16.946,1.255-33.344.678-50.352C337.407,318.612,335.6,301.144,329.9,284.688Z" transform="translate(-178.513 -73.381)" fill="#f0c630"/>
              <path id="Trazado_7607" data-name="Trazado 7607" d="M351.155,310.189a15.7,15.7,0,0,0-2.657-6.211c-2.993-3.591-8.312-3.777-12.972-4.149-21.094-1.685-40.8-13.312-54.109-29.764a90.174,90.174,0,0,1-14.836-26.484c8.4,9.112,17.3,18.555,29,22.645,5.521,1.93,11.453,2.575,16.86,4.8,11.458,4.722,19.043,15.83,29.8,21.985-1.865-19.2-4.582-40.2-18.7-53.343-9.03-8.409-21.408-12.2-31.381-19.467a54.427,54.427,0,0,1-20.471-30.171c17.333,3.641,36.355,8.359,46.449,22.913,5.072,7.313,7.737,16.925,15.433,21.394q-4.835-13.248-8.559-26.868c-1.72-6.292-3.27-12.806-2.475-19.28.77-6.274,3.682-12.048,6.38-17.764a315.231,315.231,0,0,0,18.007-47.9c5.5,10.519,11.171,22.329,8.08,33.791-1.64,6.077-5.579,11.225-8.5,16.8-6.052,11.527-7.736,24.947-6.953,37.942s3.913,25.719,7.028,38.36a23.41,23.41,0,0,1,7.8-16.275c3.6-3.177,8.09-5.151,12.034-7.895,14.129-9.829,19.477-27.864,23.88-44.5,2.8,9.1,5.633,18.363,5.719,27.887s-2.963,19.524-10.186,25.734c-6.732,5.788-16.126,7.6-23.1,13.093a27.064,27.064,0,0,0-9.87,16.8c-1.438,8.978,1.74,17.993,5.015,26.474,4.351-11.709,18.434-15.76,28.633-22.971a45.874,45.874,0,0,0,18.156-27.456c-2.209,12.371,2.551,25.735-2.169,37.381-2.254,5.565-6.471,10.1-10.937,14.113-6.908,6.209-15.406,11.744-24.683,11.287-1.241-.061-2.6-.2-3.617.508a4.724,4.724,0,0,0-1.577,3.115c-2.632,13.277,2.921,26.622,5.171,39.969.506,3,.147,7.1-2.836,7.73-2.759.581-4.784-2.51-5.737-5.165-2.36-6.572-2.949-12.691-3.055-19.51C355.118,323.081,352.876,316.681,351.155,310.189Z" transform="translate(-178.615 -72.094)" fill="#787c43"/>
            </g>
          </g>
        </g>
      </g>
    </g>
    <g id="Grupo_3544" data-name="Grupo 3544" transform="translate(170.089 64.26)">
      <ellipse id="Elipse_568" data-name="Elipse 568" cx="79.614" cy="25.759" rx="79.614" ry="25.759" transform="translate(7.816 343.771)" fill="#f4d38c"/>
      <g id="Grupo_3543" data-name="Grupo 3543">
        <g id="Grupo_3478" data-name="Grupo 3478" transform="translate(42.496 213.555)">
          <path id="Trazado_7609" data-name="Trazado 7609" d="M276.394,403.791c3.865-.028,10.269,2.248,14.133,2.22,4.6-5.522.635-17.206,1.648-24.323a399.451,399.451,0,0,0,3.512-75.375,70.214,70.214,0,0,0-13.345-.929c-19.42.507-14.316,16.795-13.977,29.264C268.93,355.425,271.731,376.4,276.394,403.791Z" transform="translate(-219.765 -287.902)" fill="#2d2a47"/>
          <path id="Trazado_7610" data-name="Trazado 7610" d="M234.65,411.665c2.823.019,8.554,1.034,11.379,1.053,11.7-35.388,12.9-75.224,12.04-113.277-.091-3.992-.51-8.6-3.8-10.867-2.668-1.842-6.244-1.4-9.423-.771-3.771.75-7.746,1.8-10.345,4.634-3.343,3.646-3.459,9.118-3.387,14.065C231.216,313.07,235.3,411.665,234.65,411.665Z" transform="translate(-218.464 -287.256)" fill="#2d2a47"/>
          <g id="Grupo_3477" data-name="Grupo 3477" transform="translate(0 94.161)">
            <path id="Trazado_7611" data-name="Trazado 7611" d="M254.2,386.552c.6,4.842-3.45,29.373-4.677,36.786-.719,4.348,1.081,6.394-.556,10.486-1.3,3.239-5.665,8.57-7.4,11.595-2.134,3.717-4.224,7.631-7.621,10.245s-10.442,2.977-13.78.286c-4.181-3.369-1.4-9.453.763-14.367,1.921-4.362,10.734-11.947,11.282-13.781.328-1.1-1.843-32.012-1.57-41.276C240.586,383.288,254.269,387.137,254.2,386.552Z" transform="translate(-217.996 -384.916)" fill="#f5a607"/>
            <path id="Trazado_7612" data-name="Trazado 7612" d="M295.852,385.249c-1.321,12.419-1.595,24.839-2.917,37.258a7.786,7.786,0,0,0,.275,3.995,8.046,8.046,0,0,0,2.867,2.942,121.069,121.069,0,0,1,10.36,8.482c3.461,3.17,7.292,5.595,7.293,10.288,0,3.4-3.34,4.345-5.012,4.365-4.722.058-11.824-2.621-17.218-5.3s-11.973-6.834-14.212-12.423c-.875-2.181-.171-7.412-.618-9.72l-3.595-18.554c-.68-3.513-2.543-19.761-2.543-19.761C274.163,384.885,292.282,384.529,295.852,385.249Z" transform="translate(-219.873 -384.905)" fill="#f5a607"/>
            <g id="Grupo_3465" data-name="Grupo 3465" transform="translate(17.151 42.604)">
              <path id="Trazado_7613" data-name="Trazado 7613" d="M236.247,430.117a18.267,18.267,0,0,1,8.72,1.921.4.4,0,0,0,.4-.692,13.922,13.922,0,0,0-9.125-2.194c-.609.054-.629.991,0,.965Z" transform="translate(-235.782 -429.087)" fill="#ce8606"/>
            </g>
            <g id="Grupo_3466" data-name="Grupo 3466" transform="translate(17.321 38.524)">
              <path id="Trazado_7614" data-name="Trazado 7614" d="M236.667,426.365a14.11,14.11,0,0,1,5.291-.013c1.419.277,2.71.973,4.122,1.215.419.071.807-.425.446-.767-2.468-2.329-7.076-2.181-10.16-1.525-.715.153-.407,1.218.3,1.09Z" transform="translate(-235.959 -424.855)" fill="#ce8606"/>
            </g>
            <g id="Grupo_3467" data-name="Grupo 3467" transform="translate(63.455 42.719)">
              <path id="Trazado_7615" data-name="Trazado 7615" d="M284.555,435.037c1.276-2.848,3.712-4.378,6.645-5.153a.345.345,0,0,0-.092-.675c-3.352-.1-6.223,2.474-7.286,5.52-.148.423.547.725.733.309Z" transform="translate(-283.802 -429.206)" fill="#ce8606"/>
            </g>
            <g id="Grupo_3468" data-name="Grupo 3468" transform="translate(62.584 40.243)">
              <path id="Trazado_7616" data-name="Trazado 7616" d="M283.64,429.044c.9-.29,1.805-.55,2.728-.755a18.773,18.773,0,0,0,2.765-.577.535.535,0,0,0-.142-1.045c-1.778-.2-4.007.653-5.673,1.209-.735.245-.424,1.409.322,1.168Z" transform="translate(-282.898 -426.638)" fill="#ce8606"/>
            </g>
            <g id="Grupo_3469" data-name="Grupo 3469" transform="translate(61.874 51.357)">
              <path id="Trazado_7617" data-name="Trazado 7617" d="M282.308,438.976c6.181,4.925,14.217,10.453,22.227,11.626.368.054.675-.454.278-.658-3.7-1.889-7.724-3.033-11.429-4.966a72.428,72.428,0,0,1-10.511-6.735c-.417-.319-.98.4-.565.732Z" transform="translate(-282.162 -438.164)" fill="#ce8606"/>
            </g>
            <g id="Grupo_3470" data-name="Grupo 3470" transform="translate(86.917 63.194)">
              <path id="Trazado_7618" data-name="Trazado 7618" d="M308.742,451.721a5.358,5.358,0,0,0,2.471.042.441.441,0,0,0,.1-.793,5.725,5.725,0,0,0-2.576-.526c-.82-.087-.805,1.182,0,1.277Z" transform="translate(-308.133 -450.44)" fill="#ce8606"/>
            </g>
            <g id="Grupo_3471" data-name="Grupo 3471" transform="translate(3.034 64.62)">
              <path id="Trazado_7619" data-name="Trazado 7619" d="M221.286,454.827c3.607,3.432,10.354,2.739,12.119-2.335.143-.413-.468-.784-.752-.438-2.9,3.526-6.763,4.857-10.752,1.976-.471-.339-1.026.4-.615.8Z" transform="translate(-221.142 -451.918)" fill="#ce8606"/>
            </g>
            <g id="Grupo_3472" data-name="Grupo 3472" transform="translate(17.397 53.521)">
              <path id="Trazado_7620" data-name="Trazado 7620" d="M236.868,449.874a61.279,61.279,0,0,0,5.917-8.962.344.344,0,0,0-.594-.347c-2.129,2.877-3.973,5.967-6.072,8.871-.329.455.42.878.749.438Z" transform="translate(-236.037 -440.409)" fill="#ce8606"/>
            </g>
            <g id="Grupo_3473" data-name="Grupo 3473" transform="translate(26.054 49.841)">
              <path id="Trazado_7621" data-name="Trazado 7621" d="M245.721,438.954a1.885,1.885,0,0,0,.925-2.09.388.388,0,0,0-.742,0,2.408,2.408,0,0,1-.679,1.241c-.493.372-.032,1.214.5.849Z" transform="translate(-245.015 -436.592)" fill="#ce8606"/>
            </g>
            <g id="Grupo_3474" data-name="Grupo 3474" transform="translate(15.094 4.506)">
              <path id="Trazado_7622" data-name="Trazado 7622" d="M234.183,391.422a56.666,56.666,0,0,1,15.88.119c.653.082.783-.992.154-1.141a36.614,36.614,0,0,0-16.26.2c-.545.122-.3.9.226.821Z" transform="translate(-233.65 -389.577)" fill="#ce8606"/>
            </g>
            <g id="Grupo_3475" data-name="Grupo 3475" transform="translate(54.911 4.099)">
              <path id="Trazado_7623" data-name="Trazado 7623" d="M275.245,390.847c4.814.751,10.439.024,15.288-.331a.672.672,0,0,0,0-1.342c-4.862.024-10.553-.275-15.288.852-.387.093-.423.755,0,.821Z" transform="translate(-274.941 -389.156)" fill="#ce8606"/>
            </g>
            <g id="Grupo_3476" data-name="Grupo 3476" transform="translate(90.696 60.656)">
              <path id="Trazado_7624" data-name="Trazado 7624" d="M312.971,450.319a19.765,19.765,0,0,0,.315-2.024.5.5,0,0,0-.981-.133,19.652,19.652,0,0,0-.251,2.033c-.058.518.829.642.916.124Z" transform="translate(-312.052 -447.807)" fill="#ce8606"/>
            </g>
          </g>
        </g>
        <g id="Grupo_3508" data-name="Grupo 3508" transform="translate(19.796)">
          <path id="Trazado_7625" data-name="Trazado 7625" d="M239.879,69.942c3.876-3.067,10.25-4.108,15.193-4.108,5.263,0,8.973-.6,13.177,2.57,5.255,3.957,7.335,12.679,9.583,18.861.267.734-12.684,1.066-19.6.064a98.68,98.68,0,0,0-14.408-1.019c-4.043.012-9.9.967-13.219,3.143C231.352,82.638,235.178,73.661,239.879,69.942Z" transform="translate(-195.746 -65.79)" fill="#ea9f32"/>
          <path id="Trazado_7626" data-name="Trazado 7626" d="M194.971,85.879c.853-2.683,5.643-6.333,8.379-6.995,23.086-5.585,48.679,8.62,70.811,0,8.639-3.365,16.425-9.062,25.547-7.407,12,2.176,9.086,14.4,2.654,20.078-8.444,7.45-15.691,7.863-28.2,8.724,0,0-27.348,2.647-44.616,2.619C219.119,102.881,190.257,100.687,194.971,85.879Z" transform="translate(-194.455 -65.983)" fill="#fbb442"/>
          <path id="Trazado_7627" data-name="Trazado 7627" d="M283.171,140.272c1.309,2.766,2.105,6.305.209,8.7-1.173,1.477-3.069,2.126-4.86,2.713-9.792,3.174-19.9,6.4-30.174,5.6-9.332-.722-18.445-4.744-27.756-3.644-.188-5.74,3.552-12.7,6.747-17.476,4.085-6.127-7.876-14.455-.929-22.106,5.224-5.753,2.226-11.2,3.839-18.107v-.011c.408-1.728.89-.157,1.445-1.561,1.162-.4,2.262-.806,3.195-1.11a17.728,17.728,0,0,1,1.748-.5c1.844-.366,3.687-.681,5.551-.922a104.974,104.974,0,0,1,12.307-.9c1.518-.032,10.536.545,19.125,1.173,1.256.094,2.5.189,3.718.273,1.33,3.488,1.906,4.943,1.707,8.316-.177,2.932-1.937,5.9-.922,8.652,1.068,2.922,4.881,3.948,6.327,6.7,2.6,4.944-3.99,10.044-4.242,15.627C280.06,134.753,281.861,137.507,283.171,140.272Z" transform="translate(-195.388 -66.689)" fill="#765120"/>
          <path id="Trazado_7628" data-name="Trazado 7628" d="M242.428,135.9c-4.233.8-10.226,2.322-14.841,2.919-.479,7.375,7.806,21.311,8.786,22.448,10.272,11.927,24.252,8.521,34.7,6.511,2.411-.465,8.333-9.115,9.919-29.653.046-.6-13.84-2.65-14.664-3.061-3.361-1.678-1.011-9.28-1.832-12.274a69.905,69.905,0,0,1-20.1.633C245.118,130.009,246.95,135.045,242.428,135.9Z" transform="translate(-195.638 -67.826)" fill="#ef6a30"/>
          <path id="Trazado_7629" data-name="Trazado 7629" d="M273.54,111.59a50.088,50.088,0,0,1-4.216,12.592,17.644,17.644,0,0,1-9.29,8.214c-4.294,1.467-9.206.095-12.788-2.691s-6-6.829-7.792-11a53.625,53.625,0,0,1-2.168-6.064c-2.011-6.881-2.249-10.439-1.875-19.366a17.728,17.728,0,0,1,1.748-.5c1.844-.366,3.687-.681,5.551-.922a104.974,104.974,0,0,1,12.307-.9c1.518-.032,10.536.545,19.125,1.173C274.447,93.423,274.912,105.568,273.54,111.59Z" transform="translate(-195.913 -66.689)" fill="#fe7b36"/>
          <path id="Trazado_7630" data-name="Trazado 7630" d="M242.476,95.458c.482,2.7,1.513,5.086,1.515,7.835.006,8.712-5.024,5.393-6.867,9.383-.681,1.5-1.047,2.766-.8,3.572-4.587-4.21-4.7-9.573-5.488-15.753a33.232,33.232,0,0,1,0-5.5,1.5,1.5,0,0,1,.041-.2c.4-.125.786-.251,1.174-.377,1.162-.4,2.262-.806,3.195-1.11a17.728,17.728,0,0,1,1.748-.5c1.844-.366,3.687-.681,5.551-.922A8.031,8.031,0,0,0,242.476,95.458Z" transform="translate(-195.751 -66.722)" fill="#765120"/>
          <path id="Trazado_7631" data-name="Trazado 7631" d="M279.858,101.183a2.435,2.435,0,0,0-3.348-.642,10.548,10.548,0,0,0-2.689,6.233s-1.546,5.144.04,6.475c1.141.957,3.59.043,4.7-.95s1.629-3.125,1.955-4.578C281,105.54,281.526,103.932,279.858,101.183Z" transform="translate(-197.266 -67.017)" fill="#fe7b36"/>
          <g id="Grupo_3479" data-name="Grupo 3479" transform="translate(63.439 28.99)">
            <path id="Trazado_7632" data-name="Trazado 7632" d="M261.458,98.7c2.808-2.413,5.7-.588,8.437.74a.643.643,0,0,0,.873-.873c-1.948-3.345-7.825-3.551-10.316-.875a.713.713,0,0,0,1.007,1.008Z" transform="translate(-260.244 -95.854)" fill="#765220"/>
          </g>
          <g id="Grupo_3480" data-name="Grupo 3480" transform="translate(46.142 28.985)">
            <path id="Trazado_7633" data-name="Trazado 7633" d="M252.8,97.693c-2.349-2.518-9.05-2.714-10.461,1.027a.644.644,0,0,0,.937.72c2.443-1.708,5.922-2.969,8.516-.74a.713.713,0,0,0,1.008-1.008Z" transform="translate(-242.306 -95.849)" fill="#765220"/>
          </g>
          <g id="Grupo_3481" data-name="Grupo 3481" transform="translate(51.435 37.765)">
            <path id="Trazado_7634" data-name="Trazado 7634" d="M251.763,107.251a2.593,2.593,0,0,0-.281-1.464,1.766,1.766,0,0,0-2.376-.624,2.7,2.7,0,0,0-1.034,1.089,2,2,0,0,0,1.183,2.909,2.022,2.022,0,0,0,2.507-1.91Z" transform="translate(-247.796 -104.954)" fill="#765220"/>
          </g>
          <g id="Grupo_3482" data-name="Grupo 3482" transform="translate(64.571 37.538)">
            <path id="Trazado_7635" data-name="Trazado 7635" d="M263.347,108.711c2.569,0,2.574-3.993,0-3.993s-2.574,3.993,0,3.993Z" transform="translate(-261.418 -104.718)" fill="#765220"/>
          </g>
          <g id="Grupo_3483" data-name="Grupo 3483" transform="translate(56.377 51.5)">
            <path id="Trazado_7636" data-name="Trazado 7636" d="M253.207,122.095c3.091,1.8,9.584,1.821,10.731-2.409a.388.388,0,0,0-.643-.374,7.757,7.757,0,0,1-9.492,1.766.59.59,0,0,0-.595,1.017Z" transform="translate(-252.921 -119.198)" fill="#d15226"/>
          </g>
          <g id="Grupo_3484" data-name="Grupo 3484" transform="translate(58.541 36.407)">
            <path id="Trazado_7637" data-name="Trazado 7637" d="M256.69,103.936c-.532,2.633,1.355,5.4,2.429,7.681.708,1.5,1.662,2.746-.443,3.2-.992.212-2.386-.085-3.287.368a.472.472,0,0,0-.094.733c1.1,1.219,5.83.248,6.13-1.517.223-1.309-.978-3.072-1.522-4.162-.92-1.843-2.293-4.014-2.138-6.153a.55.55,0,0,0-1.076-.147Z" transform="translate(-255.165 -103.546)" fill="#d15226"/>
          </g>
          <g id="Grupo_3485" data-name="Grupo 3485" transform="translate(47.274 44.087)">
            <path id="Trazado_7638" data-name="Trazado 7638" d="M245.685,115.287c-.225.03.132-.007.2-.013.159-.014.318-.024.477-.034.32-.019.64-.024.961-.024a1.851,1.851,0,1,0,0-3.7,12.8,12.8,0,0,0-2.563.426,1.757,1.757,0,0,0-1.212,2.135,1.792,1.792,0,0,0,2.134,1.212Z" transform="translate(-243.48 -111.51)" fill="#f24a2f"/>
          </g>
          <g id="Grupo_3486" data-name="Grupo 3486" transform="translate(67.391 43.103)">
            <path id="Trazado_7639" data-name="Trazado 7639" d="M264.758,113.338a2.836,2.836,0,0,0,2.13.7,3.379,3.379,0,0,0,2.144-.268,1.737,1.737,0,0,0,0-2.967,3.384,3.384,0,0,0-2.144-.268,2.831,2.831,0,0,0-2.13.7,1.536,1.536,0,0,0,0,2.1Z" transform="translate(-264.342 -110.489)" fill="#f24a2f"/>
          </g>
          <g id="Grupo_3487" data-name="Grupo 3487" transform="translate(54.462 50.636)">
            <path id="Trazado_7640" data-name="Trazado 7640" d="M251.671,118.882c.754,1.126,1.672,2.428,1.02,3.786a17.589,17.589,0,0,1-1.7,2.3c-.181.259.126.694.434.565a4.791,4.791,0,0,0,2.35-2.926c.473-1.506-.56-2.965-1.409-4.128-.3-.409-.984-.031-.692.4Z" transform="translate(-250.934 -118.301)" fill="#d15226"/>
          </g>
          <g id="Grupo_3488" data-name="Grupo 3488" transform="translate(77.979 35.809)">
            <path id="Trazado_7641" data-name="Trazado 7641" d="M276.069,105.313c.087-.411.851-.964,1.191-1.15.931-.507,1.425.242,1.679,1.163.371,1.347-.078,5.776-2.309,5.136a.33.33,0,0,0-.319.547c.878,1.1,2.212.047,2.638-.917a9.762,9.762,0,0,0,.751-5.147c-.18-.946-1.044-2.228-2.131-1.988a3.9,3.9,0,0,0-2.242,2.153c-.073.477.637.7.742.2Z" transform="translate(-275.323 -102.926)" fill="#d15226"/>
          </g>
          <g id="Grupo_3489" data-name="Grupo 3489" transform="translate(48.337 75.212)">
            <path id="Trazado_7642" data-name="Trazado 7642" d="M245.2,145.2a20.739,20.739,0,0,1,6.052.355c1.66.461,2.692,1.516,4.157,2.295.352.188.92-.133.745-.573-1.514-3.807-7.7-3.644-10.954-3.354-.8.071-.834,1.3,0,1.277Z" transform="translate(-244.583 -143.788)" fill="#d15226"/>
          </g>
          <g id="Grupo_3490" data-name="Grupo 3490" transform="translate(62.246 74.269)">
            <path id="Trazado_7643" data-name="Trazado 7643" d="M259.7,147.49a10.507,10.507,0,0,1,3.748-2.665,32.518,32.518,0,0,1,4.129-.992.478.478,0,0,0,0-.915c-3.126-.638-6.583,1.684-8.467,3.982-.335.407.22.991.59.59Z" transform="translate(-259.007 -142.81)" fill="#d15226"/>
          </g>
          <g id="Grupo_3491" data-name="Grupo 3491" transform="translate(60.904 85.549)">
            <path id="Trazado_7644" data-name="Trazado 7644" d="M257.627,155.266a12.3,12.3,0,0,0,.634,2.588.485.485,0,0,0,.948-.128,12.9,12.9,0,0,0-.414-2.781c-.16-.768-1.308-.438-1.168.321Z" transform="translate(-257.615 -154.508)" fill="#d15226"/>
          </g>
          <g id="Grupo_3492" data-name="Grupo 3492" transform="translate(60.341 2.657)">
            <path id="Trazado_7645" data-name="Trazado 7645" d="M257.658,69.639a7.114,7.114,0,0,1,3.731.369,25.414,25.414,0,0,1,2.96,1.829.355.355,0,0,0,.481-.482c-1.15-2.534-5.024-3.112-7.437-2.679-.635.114-.361,1.065.265.962Z" transform="translate(-257.032 -68.545)" fill="#fbb442"/>
          </g>
          <g id="Grupo_3493" data-name="Grupo 3493" transform="translate(69.937 7.828)">
            <path id="Trazado_7646" data-name="Trazado 7646" d="M267.085,74.87q.515.842,1.029,1.686a2.455,2.455,0,0,0,1.179,1.226.488.488,0,0,0,.611-.466,2.524,2.524,0,0,0-.653-1.552l-1.036-1.554c-.464-.7-1.574-.066-1.131.661Z" transform="translate(-266.983 -73.908)" fill="#fbb442"/>
          </g>
          <g id="Grupo_3494" data-name="Grupo 3494" transform="translate(5.857 19.277)">
            <path id="Trazado_7647" data-name="Trazado 7647" d="M202.785,85.878c-6.821,4.818,3.462,13.695,9.164,12.228a.371.371,0,0,0,0-.71c-2.588-1.056-5.152-1.277-7.42-3.162-2.22-1.845-3.664-5.213-1.01-7.4.526-.434-.172-1.348-.734-.952Z" transform="translate(-200.529 -85.781)" fill="#ea9f32"/>
          </g>
          <g id="Grupo_3495" data-name="Grupo 3495" transform="translate(10.743 21.033)">
            <path id="Trazado_7648" data-name="Trazado 7648" d="M206.135,87.926a4.681,4.681,0,0,0,.573,5.185c.984,1.2,3.008,2.342,4.5,1.4a.447.447,0,0,0,0-.764c-1-.522-2.156-.6-3-1.431a4.152,4.152,0,0,1-.894-3.893c.126-.685-.8-1.174-1.181-.5Z" transform="translate(-205.596 -87.602)" fill="#ea9f32"/>
          </g>
          <g id="Grupo_3496" data-name="Grupo 3496" transform="translate(14.681 21.39)">
            <path id="Trazado_7649" data-name="Trazado 7649" d="M209.694,88.659a3,3,0,0,0,.511,2c.381.551,1.075,1.181,1.8.938a.573.573,0,0,0,.394-.694,3.627,3.627,0,0,0-.809-1.09,2.283,2.283,0,0,1-.475-1.159.712.712,0,0,0-1.423,0Z" transform="translate(-209.68 -87.972)" fill="#ea9f32"/>
          </g>
          <g id="Grupo_3497" data-name="Grupo 3497" transform="translate(98.473 8.316)">
            <path id="Trazado_7650" data-name="Trazado 7650" d="M297.039,76.441a6.725,6.725,0,0,1,7.761.14c2.077,1.627,2.45,3.924,2.465,6.4a.4.4,0,0,0,.787.106c.86-2.627-.545-5.725-2.7-7.322a7.313,7.313,0,0,0-8.635.124c-.327.235-.03.775.322.551Z" transform="translate(-296.576 -74.414)" fill="#ea9f32"/>
          </g>
          <g id="Grupo_3498" data-name="Grupo 3498" transform="translate(100.208 11.47)">
            <path id="Trazado_7651" data-name="Trazado 7651" d="M298.793,78.557c2.324.213,3.836,1.7,4.9,3.66.256.47.884.125.808-.34-.428-2.6-3.215-4.293-5.709-4.187a.434.434,0,0,0,0,.867Z" transform="translate(-298.375 -77.685)" fill="#ea9f32"/>
          </g>
          <g id="Grupo_3499" data-name="Grupo 3499" transform="translate(99.736 14.47)">
            <path id="Trazado_7652" data-name="Trazado 7652" d="M298.429,81.926c1.238.1,1.715,1.065,2.473,1.875a.387.387,0,0,0,.642-.17c.257-1.666-1.675-2.766-3.116-2.834-.732-.035-.716,1.071,0,1.129Z" transform="translate(-297.886 -80.796)" fill="#ea9f32"/>
          </g>
          <g id="Grupo_3500" data-name="Grupo 3500" transform="translate(39.987 28.676)">
            <path id="Trazado_7653" data-name="Trazado 7653" d="M238.987,96.052c-.581,3.579,2.773,10-2.644,10.836-.643.1-.467.949,0,1.136,1.952.78,3.835-.72,4.528-2.531,1.123-2.933-.475-6.267-.453-9.247.006-.795-1.3-1.023-1.431-.193Z" transform="translate(-235.924 -95.529)" fill="#915b20"/>
          </g>
          <g id="Grupo_3501" data-name="Grupo 3501" transform="translate(35.999 29.334)">
            <path id="Trazado_7654" data-name="Trazado 7654" d="M234.343,96.815a14.03,14.03,0,0,1-.011,6.3c-.5,1.979-1.715,3.391-2.5,5.2-.171.392.2.912.638.638,3.716-2.336,4.23-8.687,2.822-12.405a.491.491,0,0,0-.947.261Z" transform="translate(-231.787 -96.211)" fill="#915b20"/>
          </g>
          <g id="Grupo_3502" data-name="Grupo 3502" transform="translate(31.509 47.823)">
            <path id="Trazado_7655" data-name="Trazado 7655" d="M230.638,115.5c-2.11,1.673-3.947,4.317-3.415,7.157.29,1.55,1.329,2.861,1.791,4.36.654,2.117.4,4.217.711,6.356a.454.454,0,0,0,.823.108,9.388,9.388,0,0,0,.042-6.335c-.364-1.318-1.045-2.416-1.51-3.69-1.031-2.822.062-5.3,2.253-7.26.479-.431-.211-1.078-.694-.694Z" transform="translate(-227.131 -115.385)" fill="#915b20"/>
          </g>
          <g id="Grupo_3503" data-name="Grupo 3503" transform="translate(35.129 49.238)">
            <path id="Trazado_7656" data-name="Trazado 7656" d="M233.019,116.929c-1.908,1.336-2.386,3.348-2.02,5.614a11.839,11.839,0,0,0,1.34,3.6c1.013,1.952,1.76,3.886,2.6,5.908.121.289.595.376.679,0,1.058-4.727-6.855-10.138-2.019-14.381.4-.351-.131-1.056-.576-.745Z" transform="translate(-230.885 -116.852)" fill="#915b20"/>
          </g>
          <g id="Grupo_3504" data-name="Grupo 3504" transform="translate(38.953 51.673)">
            <path id="Trazado_7657" data-name="Trazado 7657" d="M235.086,119.713a9.193,9.193,0,0,0,.563,5.864c1.4,3.081,4.7,4.861,4.667,8.589a.387.387,0,0,0,.756.1c.619-1.929-.087-3.573-1.287-5.137-2.362-3.079-4.281-5.125-3.766-9.292.065-.529-.824-.646-.932-.126Z" transform="translate(-234.851 -119.377)" fill="#915b20"/>
          </g>
          <g id="Grupo_3505" data-name="Grupo 3505" transform="translate(81.886 48.193)">
            <path id="Trazado_7658" data-name="Trazado 7658" d="M281.008,130.889c-1.805-4.681,4.518-10.97.593-15.008a.4.4,0,0,0-.67.39c1.111,3.426-.07,5.8-1.037,9.008a7.739,7.739,0,0,0,.172,6.007c.256.516,1.153.152.942-.4Z" transform="translate(-279.374 -115.768)" fill="#915b20"/>
          </g>
          <g id="Grupo_3506" data-name="Grupo 3506" transform="translate(77.954 50.048)">
            <path id="Trazado_7659" data-name="Trazado 7659" d="M276.732,130.092a10.419,10.419,0,0,1-.125-5.032,23.461,23.461,0,0,1,1.824-3.805c.58-1.254.805-2.389-.177-3.46a.362.362,0,0,0-.6.35c.81,2.314-1.679,4.736-2.159,7.006A8.624,8.624,0,0,0,276,130.4c.187.435.824.112.733-.309Z" transform="translate(-275.296 -117.692)" fill="#915b20"/>
          </g>
          <g id="Grupo_3507" data-name="Grupo 3507" transform="translate(74.085 60.105)">
            <path id="Trazado_7660" data-name="Trazado 7660" d="M273.157,132.211a11.924,11.924,0,0,1-.508-1.952,11.757,11.757,0,0,0-.277-1.862.389.389,0,0,0-.7-.092c-.787,1.278-.255,3.161.59,4.283.309.41,1.082.2.9-.378Z" transform="translate(-271.284 -128.121)" fill="#915b20"/>
          </g>
        </g>
        <g id="Grupo_3512" data-name="Grupo 3512" transform="translate(107.873 40.889)">
          <path id="Trazado_7661" data-name="Trazado 7661" d="M311.324,159.012Q319.91,172.219,327.573,186c1.864,3.35,3.312,7.08.466,9.647-1.286,1.16-2.973,2.381-4.689,2.149-4.021-.543-7.252-3.475-10.144-6.323q-5.622-5.538-10.962-11.355c-4.761-5.189-9.4-10.614-12.525-16.923-2.656-5.357-7.995-21.095,1.442-22.4C299.733,139.612,307.668,153.386,311.324,159.012Z" transform="translate(-285.795 -109.355)" fill="#fe7b36"/>
          <path id="Trazado_7662" data-name="Trazado 7662" d="M314.478,180.406c-.04,3.825.018,7.8,1.683,11.244s5.408,6.19,9.162,5.457c5.238-1.023,7.163-7.51,7.295-12.844.375-15.026-5.122-29.679-5.28-44.709,3.42.4,7.963-3.522,9.045-6.691.795-5.05.958-5.484-1.3-10.071-4.648.787.559,11.543-9.729,9-5.295-1.309-6.59-4.26-8.563,2.659-1.554,5.454-.477,12.346-.876,18C315.26,161.771,314.573,171.049,314.478,180.406Z" transform="translate(-286.819 -108.715)" fill="#fe7b36"/>
          <g id="Grupo_3510" data-name="Grupo 3510" transform="translate(29.791)">
            <path id="Trazado_7663" data-name="Trazado 7663" d="M319.51,120.906a4.984,4.984,0,0,0,.888-1.737c.258-.6.748-1.217,1.4-1.208-.152-.817-.147-1.921.644-2.179a2.385,2.385,0,0,0,.489-.146c.58-.342.02-1.307.343-1.9a2.827,2.827,0,0,1,1.448-1.077,1.915,1.915,0,0,1,1.9,1,5.61,5.61,0,0,1,.607,2.182q.172,1.274.346,2.549a8.147,8.147,0,0,1,.065,2.683,6.171,6.171,0,0,1-2.365,3.418,4.806,4.806,0,0,1-3.021,1.272A5.2,5.2,0,0,1,319,124.045c-.5-.477-2.057-1.57-2.147-2.3C316.641,120.03,318.617,120.45,319.51,120.906Z" transform="translate(-316.695 -108.352)" fill="#ef6535"/>
            <path id="Trazado_7664" data-name="Trazado 7664" d="M325.15,133.9a10.3,10.3,0,0,0,6.548-.652c3.264-1.669,6.462-4.753,7.248-8.334.9-4.1-.558-9.842-5.363-12.211-4.379-2.159-10.765-1.088-9.465.657,1.178,1.58-.083,2.919-.092,3.619-.019,1.579,2.092,2.781-1.872,2.329-1.234-.142-1.178,4.274-2.747,2.235-.74-.96-1.415.085-2.476-.322C315.417,128.043,321.4,133.2,325.15,133.9Z" transform="translate(-316.69 -108.312)" fill="#e00b16"/>
            <path id="Trazado_7665" data-name="Trazado 7665" d="M330.564,131.581a12.068,12.068,0,0,0,.136-5.141,2.455,2.455,0,0,1,.015-1.163.806.806,0,0,1,.9-.568,35.06,35.06,0,0,1,2.087,7.429c1.262-3.683-1.926-11.038.2-11.575,2.105,3.419,2.015,6.387,3.377,9.589-.176-4.17-1.053-6.474-1.67-9.283-.122-.553-.069-1.361.495-1.4.32-.023.575.253.767.509a14.452,14.452,0,0,1,2.16,12.768,5.182,5.182,0,0,1-1.321,2.342,12.039,12.039,0,0,1-9.962,4.349c-1.264-.039-2.724-.771-1.086-2.96C327.489,135.368,330.174,132.888,330.564,131.581Z" transform="translate(-317.02 -108.596)" fill="#fe7b36"/>
            <path id="Trazado_7666" data-name="Trazado 7666" d="M329.868,110.22a11.788,11.788,0,0,0-2.591.361,2.94,2.94,0,0,1-2.481-.509c1.119,1,1.948,2.318,3.193,3.154a5.348,5.348,0,0,0,4.263.731,10.067,10.067,0,0,0-1.693,2.368,3.39,3.39,0,0,0-.108,2.827c.122-.8,1.113-1.068,1.888-1.313a6.379,6.379,0,0,0,3.089-2.148,7.314,7.314,0,0,0,6.277,3.735c-.328-.354-.655-.708-.951-1.088-.911-1.169-.82-3.232-1.815-4.33s-2.969-2.341-4.321-1.735C333.726,110.7,331.752,110.349,329.868,110.22Z" transform="translate(-316.979 -108.261)" fill="#68785c"/>
            <g id="Grupo_3509" data-name="Grupo 3509" transform="translate(16.547)">
              <path id="Trazado_7667" data-name="Trazado 7667" d="M334.967,113.631a7.766,7.766,0,0,1,1.814-3.131c1.208-1.039,2.505-.379,3.846-.742a.64.64,0,0,0,.151-1.156c-1.337-.811-3.525-.315-4.689.625a7.725,7.725,0,0,0-2.211,4.1c-.205.714.83.962,1.09.3Z" transform="translate(-333.85 -108.194)" fill="#68785c"/>
            </g>
          </g>
          <g id="Grupo_3511" data-name="Grupo 3511" transform="translate(27.056 56.948)">
            <path id="Trazado_7668" data-name="Trazado 7668" d="M314.425,167.611c-.712,5.571-.972,11.608.5,17.084a.239.239,0,0,0,.467-.063c-.118-5.718-.634-11.288-.213-17.022.036-.492-.693-.468-.753,0Z" transform="translate(-313.853 -167.251)" fill="#d15226"/>
          </g>
        </g>
        <g id="Grupo_3514" data-name="Grupo 3514" transform="translate(0 73.796)">
          <path id="Trazado_7669" data-name="Trazado 7669" d="M176.109,181.759c-1.428,2.017-2.61,5.982-2.034,8.385A16.583,16.583,0,0,0,178,196.429c13.56,11.8,24.467,20.864,38.026,32.661a7.489,7.489,0,0,0,3.392,1.625c1.535.053,2.667-1.629,2.618-3.164a8.51,8.51,0,0,0-1.754-4.195c-6.831-10.482-17.909-23.781-24.74-34.262,10.907-8.967,23.138-18.614,26.723-32.272,1.291-4.921,2.718-13.579-4.7-14.464-5.082-.607-12.08,6.049-15.416,9.271A206.216,206.216,0,0,0,176.109,181.759Z" transform="translate(-173.926 -142.32)" fill="#fe7b36"/>
          <g id="Grupo_3513" data-name="Grupo 3513" transform="translate(16.695 41.99)">
            <path id="Trazado_7670" data-name="Trazado 7670" d="M191.568,186.846a11.624,11.624,0,0,1,3.64,2.557.354.354,0,0,0,.553-.427,7.253,7.253,0,0,0-3.931-3.077c-.6-.223-.835.715-.261.947Z" transform="translate(-191.24 -185.865)" fill="#d15226"/>
          </g>
        </g>
        <g id="Grupo_3531" data-name="Grupo 3531" transform="translate(26.925 67.259)">
          <g id="Grupo_3515" data-name="Grupo 3515">
            <path id="Trazado_7671" data-name="Trazado 7671" d="M218.47,140.139c.987,12.656-2.375,26.061,2.335,37.85.968,2.425,5.725,11.175,6.448,13.685.853,2.962,2.929,8.113,3.143,11.19.886,12.8-2.666,24.752-4.745,37.418a228.161,228.161,0,0,0,67.729-1.291c1.4-.238-1.012-12.923-2.25-14.917-7.142-11.513-2.636-24.341-1.047-37.8.933-7.894,8.085-18.5,9.455-24.366,2.567-10.984-6.717-11.8-9.93-22.613-4.9-.932-13.221-3.916-17.431-3.749.068,6.868.068,6.868-1.731,13.77-2.775,10.643-15.628,12.253-21.584,8.307-8.817-5.841-9.182-10.139-11.91-21.195Z" transform="translate(-202.433 -135.54)" fill="#fff"/>
            <path id="Trazado_7672" data-name="Trazado 7672" d="M201.848,151.238c0,2.439,10.377,15.516,14.072,24.041,11.521-8.117,14.141-25.661,6.1-33.725-2.978-2.986-7.791-.017-12.384,2.827C208.616,145.013,201.848,151.238,201.848,151.238Z" transform="translate(-201.848 -135.71)" fill="#fff"/>
            <path id="Trazado_7673" data-name="Trazado 7673" d="M298.4,178.127c4.739-7.881,12.649-20.365,11.859-25.006-.273-1.6-5.7-7.667-7.424-9.078a21.821,21.821,0,0,0-10.726-4.609c-2.977-.439-3.01,6.04-3.463,9.014C287.191,157.974,288.657,170.684,298.4,178.127Z" transform="translate(-204.931 -135.678)" fill="#fff"/>
          </g>
          <g id="Grupo_3530" data-name="Grupo 3530" transform="translate(18.866 16.927)">
            <g id="Grupo_3519" data-name="Grupo 3519" transform="translate(61.637 7.785)">
              <g id="Grupo_3516" data-name="Grupo 3516" transform="translate(0.412)">
                <path id="Trazado_7674" data-name="Trazado 7674" d="M291.417,170.5a55.219,55.219,0,0,1-4.821-9.1c-.213-.479-.941-.131-.823.347a26.5,26.5,0,0,0,4.655,9.333c.43.581,1.413.039.989-.578Z" transform="translate(-285.761 -161.167)" fill="#d8d8d8"/>
              </g>
              <g id="Grupo_3517" data-name="Grupo 3517" transform="translate(0 7.227)">
                <path id="Trazado_7675" data-name="Trazado 7675" d="M285.425,169.519a22.773,22.773,0,0,0,2.559,3.4,8.17,8.17,0,0,0,3.085,2.447.413.413,0,0,0,.462-.6,21.874,21.874,0,0,0-2.548-2.569,21.111,21.111,0,0,1-2.554-3.265c-.4-.627-1.4-.053-1,.586Z" transform="translate(-285.333 -168.662)" fill="#d8d8d8"/>
              </g>
              <g id="Grupo_3518" data-name="Grupo 3518" transform="translate(1.17 12.343)">
                <path id="Trazado_7676" data-name="Trazado 7676" d="M286.787,175.146a4.919,4.919,0,0,0,2.852,1.378c.6.019.686-.733.281-1.038-.674-.505-1.468-.811-2.126-1.347-.7-.573-1.714.419-1.007,1.007Z" transform="translate(-286.547 -173.967)" fill="#d8d8d8"/>
              </g>
            </g>
            <g id="Grupo_3523" data-name="Grupo 3523" transform="translate(0 2.411)">
              <g id="Grupo_3520" data-name="Grupo 3520">
                <path id="Trazado_7677" data-name="Trazado 7677" d="M222.39,169.579c1.742-3.951,3.616-9.388,2.5-13.739a.347.347,0,0,0-.663,0c-.471,2.224-.313,4.532-.751,6.786a33.131,33.131,0,0,1-2.031,6.556c-.225.533.707.932.942.4Z" transform="translate(-221.413 -155.594)" fill="#d8d8d8"/>
              </g>
              <g id="Grupo_3521" data-name="Grupo 3521" transform="translate(0.147 11.381)">
                <path id="Trazado_7678" data-name="Trazado 7678" d="M222.515,174.544c1.86-1.594,4.1-4.038,4.476-6.566a.469.469,0,0,0-.852-.359c-.7.988-1.151,2.162-1.834,3.176a17.3,17.3,0,0,1-2.565,2.973c-.522.486.245,1.229.775.775Z" transform="translate(-221.565 -167.397)" fill="#d8d8d8"/>
              </g>
              <g id="Grupo_3522" data-name="Grupo 3522" transform="translate(2.789 17.431)">
                <path id="Trazado_7679" data-name="Trazado 7679" d="M225.124,176.434a14.278,14.278,0,0,0,2.912-2c.29-.3.006-.885-.429-.739a14.255,14.255,0,0,0-3.044,1.778c-.6.389-.05,1.342.561.961Z" transform="translate(-224.305 -173.671)" fill="#d8d8d8"/>
              </g>
            </g>
            <g id="Grupo_3526" data-name="Grupo 3526" transform="translate(17.681)">
              <g id="Grupo_3524" data-name="Grupo 3524">
                <path id="Trazado_7680" data-name="Trazado 7680" d="M239.817,153.783c1.811,2.686,4.855,6.314,8.252,6.869.343.056.663-.347.366-.63-1.257-1.192-2.9-1.924-4.25-3.02a23.124,23.124,0,0,1-3.662-3.765c-.311-.4-.991.123-.707.546Z" transform="translate(-239.749 -153.094)" fill="#d8d8d8"/>
              </g>
              <g id="Grupo_3525" data-name="Grupo 3525" transform="translate(1.053 5.337)">
                <path id="Trazado_7681" data-name="Trazado 7681" d="M241.026,159.548c1.081.967,2.414,2.235,3.873,2.539a.511.511,0,0,0,.494-.848,9.2,9.2,0,0,0-1.7-1.166,19.431,19.431,0,0,1-1.878-1.312c-.548-.433-1.332.3-.787.787Z" transform="translate(-240.842 -158.629)" fill="#d8d8d8"/>
              </g>
            </g>
            <g id="Grupo_3529" data-name="Grupo 3529" transform="translate(45.039 4.18)">
              <g id="Grupo_3527" data-name="Grupo 3527">
                <path id="Trazado_7682" data-name="Trazado 7682" d="M268.862,160.746l1.119-1.377a7.276,7.276,0,0,0,1-1.363.4.4,0,0,0-.616-.476,7.286,7.286,0,0,0-1.1,1.259l-1.037,1.319c-.352.448.268,1.09.636.637Z" transform="translate(-268.121 -157.429)" fill="#d8d8d8"/>
              </g>
              <g id="Grupo_3528" data-name="Grupo 3528" transform="translate(2.61 2.77)">
                <path id="Trazado_7683" data-name="Trazado 7683" d="M271.638,161.946a5.046,5.046,0,0,0,.717-1.222.288.288,0,0,0-.45-.347,5.11,5.11,0,0,0-1,1c-.314.42.4.98.733.565Z" transform="translate(-270.827 -160.302)" fill="#d8d8d8"/>
              </g>
            </g>
          </g>
        </g>
        <g id="Grupo_3542" data-name="Grupo 3542" transform="translate(41.316 67.034)">
          <g id="Grupo_3541" data-name="Grupo 3541" transform="translate(2.238)">
            <path id="Trazado_7684" data-name="Trazado 7684" d="M233.426,187.348c.169,2-7.89,3.691-7.316,5.416,4.316,12.971,4.377,14.095,1.174,23.58-6.754,20-5.7,35-6.754,65.484-.922,26.816-2.709,60.209,0,81.885,25.828,7.287,58.667,10.557,83.339,0,1.573-.673-1.038-43.532-2.671-81.885-1.047-24.6-1.059-35.731-6.95-60.441-2.335-9.789-6.816-14.9-3.172-31.357a1.139,1.139,0,0,0-.877-1.361c-4.652-.954-6.115-1.407-6.474-2.4-3.805-10.546-4.616-47.807-4.66-49.92a3.789,3.789,0,0,0-3.925-.831c.534,11.236-.209,17.844-.1,27.64-13.642-.314-23.839-.791-37.3,1.47.146-.024-3.126-25.735-3.361-27.668,0,0-4.522-.772-4.279.337C232.24,147.067,232.5,176.429,233.426,187.348Z" transform="translate(-219.094 -135.307)" fill="#68785c"/>
            <g id="Grupo_3536" data-name="Grupo 3536" transform="translate(3.701 91.88)">
              <g id="Grupo_3532" data-name="Grupo 3532" transform="translate(20.608)">
                <path id="Trazado_7685" data-name="Trazado 7685" d="M244.343,231.06c10.161,19.181,22.155,38.314,36.97,54.284.31.334.748-.148.486-.486-13.481-17.421-26.33-34.727-36.919-54.113-.193-.352-.724-.04-.537.314Z" transform="translate(-244.303 -230.591)" fill="#556349"/>
              </g>
              <g id="Grupo_3533" data-name="Grupo 3533" transform="translate(23.269 34.23)">
                <path id="Trazado_7686" data-name="Trazado 7686" d="M247.149,266.748c7.093,9.853,14.094,19.833,21.578,29.4.324.414,1.032-.13.733-.565-6.858-9.972-14.266-19.607-21.519-29.293-.347-.464-1.139-.02-.792.463Z" transform="translate(-247.063 -266.089)" fill="#556349"/>
              </g>
              <g id="Grupo_3534" data-name="Grupo 3534" transform="translate(28.141 60.806)">
                <path id="Trazado_7687" data-name="Trazado 7687" d="M252.2,294.32c6.193,8.424,12.288,16.927,18.716,25.174.256.327.818-.1.579-.446-5.968-8.538-12.282-16.833-18.489-25.2-.354-.475-1.163-.014-.805.472Z" transform="translate(-252.115 -293.649)" fill="#556349"/>
              </g>
              <g id="Grupo_3535" data-name="Grupo 3535" transform="translate(0 129.691)">
                <path id="Trazado_7688" data-name="Trazado 7688" d="M223.2,366.3a95.3,95.3,0,0,0,39.368,8.335c12.581-.058,28.412-1.9,39.227-8.813a.4.4,0,0,0-.3-.718c-6.027,1.675-11.674,4.337-17.823,5.758a96.125,96.125,0,0,1-20.207,2.439,98.115,98.115,0,0,1-39.742-7.891c-.6-.255-1.13.618-.521.89Z" transform="translate(-222.932 -365.086)" fill="#556349"/>
              </g>
            </g>
            <g id="Grupo_3537" data-name="Grupo 3537" transform="translate(14.579 27.109)">
              <path id="Trazado_7689" data-name="Trazado 7689" d="M234.568,164.156c-.5.952-.6,2.484.549,3.029,1.433.681,2.5-1.054,2.077-2.3-.187-.553-.751-1.626-1.474-1.448a.619.619,0,0,0-.467.612c0,.356.287.62.454.907.12.205.336.635.1.857-.08.075-.079.084-.161.04-.11-.058-.106-.493-.117-.593a6.261,6.261,0,0,1-.046-.861.5.5,0,0,0-.915-.248Z" transform="translate(-234.213 -163.421)" fill="#556349"/>
            </g>
            <g id="Grupo_3538" data-name="Grupo 3538" transform="translate(57.424 26.135)">
              <path id="Trazado_7690" data-name="Trazado 7690" d="M279.381,162.788a2.068,2.068,0,0,0-.593,2.4c.268.8,1.076,1.8,2,1.184a2.193,2.193,0,0,0,.6-2.311c-.175-.655-.926-1.941-1.768-1.592a.614.614,0,0,0-.439.576c.048.489.337.578.6.929a1.34,1.34,0,0,1,.246.929,1.746,1.746,0,0,1-.071.273q.515.085.294-.165c-.013-.17-.165-.379-.191-.565a11.574,11.574,0,0,1,.021-1.255.471.471,0,0,0-.7-.4Z" transform="translate(-278.645 -162.411)" fill="#556349"/>
            </g>
            <g id="Grupo_3540" data-name="Grupo 3540" transform="translate(19.927 34.253)">
              <path id="Trazado_7691" data-name="Trazado 7691" d="M274.657,172.782c1.527,7,3.127,24.453,2.516,25.757-1.313,2.8-34.032,3.9-36.115,1.367-.547-.663-1.66-22-.615-25.607C241.424,170.908,271.033,170.191,274.657,172.782Z" transform="translate(-239.769 -170.843)" fill="#78896a"/>
              <path id="Trazado_7692" data-name="Trazado 7692" d="M277.462,188.17c-.41-5.2-1.278-14.879-2.309-15.541-4.589-2.948-29.469-2.036-34.9,1.017-.815.458-.439,11.368-.193,16.446.108,2.233-.612,8.156.767,10.048.646.887,1.3.813,2.49.988a96.509,96.509,0,0,0,12.5.8,81.1,81.1,0,0,0,14.223-.8c1.923-.311,6.24-.259,7.256-2.225C278.283,196.989,277.642,190.458,277.462,188.17Zm-3.01,10.822a31.139,31.139,0,0,1-8.091,1.459,106.73,106.73,0,0,1-15.2.233c-1.782-.083-7.945.421-9.357-.846-.935-.839-.665-8-.762-9.747-.279-5.056-.5-10.16-.278-15.224,6.019-2.362,12.621-2.836,19.034-2.879a51.345,51.345,0,0,1,11.109.7c3.863.851,3.97,2.628,4.577,6.2a95.243,95.243,0,0,1,1.316,16.072C276.8,197.3,276.9,198.041,274.453,198.992Z" transform="translate(-239.76 -170.829)" fill="#556349"/>
              <g id="Grupo_3539" data-name="Grupo 3539" transform="translate(2.41 5.505)">
                <path id="Trazado_7693" data-name="Trazado 7693" d="M242.757,178.422c9.738.181,19.553-.2,29.286-.542a.672.672,0,0,0,0-1.342c-9.741.122-19.565.208-29.286.852a.516.516,0,0,0,0,1.032Z" transform="translate(-242.259 -176.538)" fill="#68785c"/>
              </g>
            </g>
          </g>
          <path id="Trazado_7694" data-name="Trazado 7694" d="M225.771,224.059c.519.332-.932,2.966-.932,3.434,0,2.216,1.792,2.541,2.615,3,1.807,1.01,3.407,1.158,5.308,1.977,2.674,1.151,2.685,1.648,2.674,2.605-3.082.932-6.4-1.115-9.422-2.227,2.619,2.655,9.814,7.463,8.519,9.034-3.212.707-6.835-3.089-9.695-4.713,1.421,1.551,2.241,3.976,3.662,5.527.993,1.084,4.578,5.031,2.876,5.031-3.345-.988-6.518-5.142-8.664-7.891,1.064,2.594,3.3,5.514,2.914,7.889-1.465,1.75-5.85-7.935-6.617-11.08a46.826,46.826,0,0,0-1.738-5.388c-.825-1.983-.869-3.794,1.738-5.74C220.717,224.246,224.163,223.032,225.771,224.059Z" transform="translate(-216.773 -138.464)" fill="#fe7b36"/>
        </g>
      </g>
    </g>
    <g id="Grupo_3608" data-name="Grupo 3608" transform="translate(72.413 295.274)">
      <ellipse id="Elipse_569" data-name="Elipse 569" cx="64.869" cy="20" rx="64.869" ry="20" transform="translate(6.289 115.701)" fill="#f4d38c"/>
      <g id="Grupo_3607" data-name="Grupo 3607">
        <g id="Grupo_3563" data-name="Grupo 3563" transform="translate(28.497 0.096)">
          <path id="Trazado_7695" data-name="Trazado 7695" d="M168.652,330.424c-2.8-8.75-7.315-19.229-16.085-23.5a15.4,15.4,0,0,0-5.054-1.469,39.156,39.156,0,0,1-1.063,6.166c6.442.733,11.174,7.414,14.157,14.257a83.176,83.176,0,0,1,5.327,18.606c1.258,7.04,1.053,14.064,1.852,21.116.319,2.808,5.008,4.147,5.487.742C174.885,354.872,172.153,341.349,168.652,330.424Z" transform="translate(-103.766 -305.46)" fill="#b06c3b"/>
          <path id="Trazado_7696" data-name="Trazado 7696" d="M166.757,347.445a12.487,12.487,0,0,1,3.541,14.936c-.633,1.3-1.525,2.619-1.3,4.042a19.106,19.106,0,0,1,.681,2.474c.034,1.65-1.712,2.689-3.215,3.369-5.31,2.4-10.677,4.821-16.392,5.966a77.076,77.076,0,0,1-14.627,1.035,32.045,32.045,0,0,1-9.163-.82,60.454,60.454,0,0,1-7.341-3.187c-3.257-1.433-6.74-2.356-9.869-4.051s-5.98-4.393-6.684-7.881a21.241,21.241,0,0,0,.22-10.247c-.318-1.4-.759-2.974-.013-4.206.835-1.38,2.718-1.624,4.018-2.577,2.719-1.992,2.4-6.612,5.212-8.465,1.519-1,3.565-.889,5.091-1.877a19.83,19.83,0,0,0,2.587-2.6c1.9-1.811,4.638-2.379,7.22-2.872,4.742-.905,9.615-1.812,14.366-.952,2.494.452,6.033-1.61,9.075-1.058,3.529.642,5.973,2.366,8.65,4.589C163.089,336.618,169.746,340.572,166.757,347.445Z" transform="translate(-102.185 -306.279)" fill="#fff"/>
          <g id="Grupo_3545" data-name="Grupo 3545" transform="translate(36.728 35.065)">
            <path id="Trazado_7697" data-name="Trazado 7697" d="M153.088,341.927a3.566,3.566,0,0,1,1.534,4.609,4.1,4.1,0,0,1-2.081,2.065c-1.275.625-2.328.266-3.587.558-.975.226-.793.248-1.27,1.235a9.773,9.773,0,0,1-.766,1.493,4.53,4.53,0,0,1-2.8,1.926c-1.839.326-3.822-.653-3.847-2.642a.757.757,0,0,1,1.278-.529c1.862,1.806,3.491.54,4.276-1.485.309-.795.463-1.5,1.275-1.92a3.954,3.954,0,0,1,2.2-.16,4.89,4.89,0,0,0,2.52-.378c1.17-.649,1.981-2.419.456-3.386a.8.8,0,0,1,.81-1.386Z" transform="translate(-140.273 -341.823)" fill="#9fa156"/>
          </g>
          <g id="Grupo_3546" data-name="Grupo 3546" transform="translate(41.229 47.285)">
            <path id="Trazado_7698" data-name="Trazado 7698" d="M164.632,354.8c.684,2.111-.733,3.659-2.822,4.006-1.817.3-1.712.129-3.1,1.093a6.02,6.02,0,0,1-2.6,1.345c-1.817.3-2.973-.058-4.712.835-1.082.555-1.859,1.347-3.142,1.394-1.895.069-3.548-1.1-3.29-3.077.05-.388.658-.715.864-.234,1.518,3.538,4.311.531,6.411-.17,2.293-.766,5.052.829,6.432-2.268a.575.575,0,0,1,.508-.292q2.857.547,4.591-2.516c-.04-.51.713-.565.858-.116Z" transform="translate(-144.941 -354.497)" fill="#9fa156"/>
          </g>
          <g id="Grupo_3547" data-name="Grupo 3547" transform="translate(12.483 47.78)">
            <path id="Trazado_7699" data-name="Trazado 7699" d="M128.906,362.672a3.25,3.25,0,0,1-4.06,2.8c-2.634-.552-3.329-3.415-2.979-5.718l.943.943c-2.175.862-4.935,1.109-6.645-.826a3.507,3.507,0,0,1-.254-4.675.647.647,0,0,1,1.073.625c-1.24,3.748,2.644,4.5,5.418,3.4a.771.771,0,0,1,.97.74,3.868,3.868,0,0,0,.945,3.185c1.066,1.025,2.725,1.05,3.309-.643.225-.653,1.332-.6,1.278.174Z" transform="translate(-115.13 -355.01)" fill="#9fa156"/>
          </g>
          <g id="Grupo_3548" data-name="Grupo 3548" transform="translate(21.158 38.668)">
            <path id="Trazado_7700" data-name="Trazado 7700" d="M132.845,354.563c-1.219.608-2.641,1.247-3.96.549a2.483,2.483,0,0,1-1.1-1.12c-.226-.493.114-1.4-.1-1.748s-1.246-.7-1.627-1.045a6.11,6.11,0,0,1-1.261-1.628,3.974,3.974,0,0,1-.308-3.791.46.46,0,0,1,.831.108,13.631,13.631,0,0,0,.679,2.98,6.2,6.2,0,0,0,2.375,2.2,2,2,0,0,1,.765,1.071c.388.919-.781-.223.624,1.269a.985.985,0,0,0,1.6.528q.534-.182,1.046-.413c.594-.25,1.015.756.44,1.043Z" transform="translate(-124.127 -345.56)" fill="#9fa156"/>
          </g>
          <g id="Grupo_3549" data-name="Grupo 3549" transform="translate(29.259 30.602)">
            <path id="Trazado_7701" data-name="Trazado 7701" d="M138.048,340.381a3.166,3.166,0,0,1-3.909.791c-1.188-.653-2.125-2.443-1.3-3.693a.594.594,0,0,1,1.1.3c.1.838.074,1.706.892,2.21a1.88,1.88,0,0,0,2.359-.462c.529-.589,1.343.264.857.857Z" transform="translate(-132.527 -337.195)" fill="#9fa156"/>
          </g>
          <g id="Grupo_3550" data-name="Grupo 3550" transform="translate(42.265 59.03)">
            <path id="Trazado_7702" data-name="Trazado 7702" d="M158.506,366.808a2.5,2.5,0,0,1-2.065,3.923,7.069,7.069,0,0,1-1.348-.448c-1.981-.487-3.286.48-4.877,1.373-1.3.732-2.723,1.229-3.993.278-.324-.243-.284-.941.239-.881,2.757.316,4.088-1.772,6.548-2.255a4.355,4.355,0,0,1,1.7.061c.571.1,1.007.353,1.633.446q1.173.628,1.4-.668a1.125,1.125,0,0,0,.262-1.538.286.286,0,0,1,.493-.288Z" transform="translate(-146.015 -366.677)" fill="#9fa156"/>
          </g>
          <g id="Grupo_3551" data-name="Grupo 3551" transform="translate(32.184 57.189)">
            <path id="Trazado_7703" data-name="Trazado 7703" d="M139.732,365.2a3.623,3.623,0,0,1-.639,3.352c-.612.8-2.212,1.831-3.2,1.125a.708.708,0,0,1,0-1.2,4.666,4.666,0,0,1,1.083-.338,2.484,2.484,0,0,0,.85-.569,2.246,2.246,0,0,0,.735-2.046.607.607,0,0,1,1.169-.323Z" transform="translate(-135.561 -364.767)" fill="#9fa156"/>
          </g>
          <g id="Grupo_3552" data-name="Grupo 3552" transform="translate(3.833 53.31)">
            <path id="Trazado_7704" data-name="Trazado 7704" d="M113.348,365.73c-1.952.506-4.37.938-6.025-.551-1.214-1.092-1.7-3.077-.361-4.266a.591.591,0,0,1,.925.713,2.152,2.152,0,0,0,1.174,2.585c1.166.55,2.66.216,3.869.006.977-.171,1.412,1.255.418,1.513Z" transform="translate(-106.16 -360.745)" fill="#9fa156"/>
          </g>
          <g id="Grupo_3553" data-name="Grupo 3553" transform="translate(12.054 38.173)">
            <path id="Trazado_7705" data-name="Trazado 7705" d="M118.567,349.7c-2.393.62-5.156-2.4-3.242-4.488.373-.407.958.03.864.5-.22,1.121.669,2.874,2,2.609.891-.178,1.277,1.143.379,1.375Z" transform="translate(-114.685 -345.047)" fill="#9fa156"/>
          </g>
          <g id="Grupo_3554" data-name="Grupo 3554" transform="translate(56.291 33.812)">
            <path id="Trazado_7706" data-name="Trazado 7706" d="M165.028,340.781c.223.945.383,1.9.556,2.855a.723.723,0,0,1-.486.856c-1.152.447-2.9,1.165-4.139.738a.56.56,0,0,1-.132-1.011,6.217,6.217,0,0,1,1.885-.493,14.969,14.969,0,0,0,2.016-.576l-.511.67c.024-.983.035-1.965.109-2.946.029-.38.6-.509.7-.094Z" transform="translate(-160.561 -340.524)" fill="#9fa156"/>
          </g>
          <g id="Grupo_3555" data-name="Grupo 3555" transform="translate(36.56 30.221)">
            <path id="Trazado_7707" data-name="Trazado 7707" d="M150.467,336.921a2.176,2.176,0,0,1-.309,3.361c-1.634,1.3-3.8.215-5.012-1.1l.733-.095c-1.069,1.635-3.573,3.558-5.58,2.446a.415.415,0,0,1,.1-.749c.8-.3,1.637-.238,2.445-.529a5.068,5.068,0,0,0,2.3-1.734.449.449,0,0,1,.454-.12c.441.18.879.366,1.32.545.967.393,3.98.652,2.79-1.442a.484.484,0,0,1,.757-.583Z" transform="translate(-140.099 -336.8)" fill="#9fa156"/>
          </g>
          <g id="Grupo_3556" data-name="Grupo 3556" transform="translate(27.078 39.812)">
            <path id="Trazado_7708" data-name="Trazado 7708" d="M134.979,348.563a2.771,2.771,0,0,1-2.958,1.174,2.156,2.156,0,0,1-1.636-2.682.434.434,0,0,1,.782-.1,2.836,2.836,0,0,0,1.243,1.377,1.392,1.392,0,0,0,1.548-.555c.457-.574,1.445.183,1.022.788Z" transform="translate(-130.266 -346.746)" fill="#9fa156"/>
          </g>
          <g id="Grupo_3557" data-name="Grupo 3557" transform="translate(55.9 42.458)">
            <path id="Trazado_7709" data-name="Trazado 7709" d="M164.973,350.06a3.225,3.225,0,0,1-1.985,2.1c-.851.352-2.176.569-2.759-.33a.505.505,0,0,1,.3-.734c.621-.205,1.287.07,1.93-.1a3.032,3.032,0,0,0,1.668-1.291.466.466,0,0,1,.848.358Z" transform="translate(-160.156 -349.491)" fill="#9fa156"/>
          </g>
          <g id="Grupo_3558" data-name="Grupo 3558" transform="translate(60.87 56.428)">
            <path id="Trazado_7710" data-name="Trazado 7710" d="M169.508,364.521c.106,1.84-2.182,3.877-3.933,2.71-.44-.293-.33-1.16.3-1.1,1.106.112,2.48-.261,2.513-1.613a.562.562,0,0,1,1.123,0Z" transform="translate(-165.309 -363.978)" fill="#9fa156"/>
          </g>
          <g id="Grupo_3559" data-name="Grupo 3559" transform="translate(17.864 62.095)">
            <path id="Trazado_7711" data-name="Trazado 7711" d="M131.151,372.369a3.938,3.938,0,0,1-2.362,3.518c-1.609.58-1.838-.55-2.175-1.75-.7-2.471-5.65-.566-5.9-3.8a.5.5,0,0,1,.838-.346c1.275,1.392,3.088,1.317,4.723,2a3.1,3.1,0,0,1,1.48,1.055c.16.237.26,1.038.4,1.156.713.608,1.6-1.588,1.7-2.014.17-.709,1.362-.577,1.3.176Z" transform="translate(-120.711 -369.855)" fill="#9fa156"/>
          </g>
          <g id="Grupo_3560" data-name="Grupo 3560" transform="translate(19.668 31.336)">
            <path id="Trazado_7712" data-name="Trazado 7712" d="M127.8,339.272c-1.248,1.6-4.745,1.775-5.208-.582-.09-.456.391-.934.838-.645,1.027.663,2.4,1.339,3.437.294.617-.619,1.441.284.933.933Z" transform="translate(-122.582 -337.957)" fill="#9fa156"/>
          </g>
          <g id="Grupo_3561" data-name="Grupo 3561" transform="translate(33.802 63.312)">
            <path id="Trazado_7713" data-name="Trazado 7713" d="M141.759,371.488a2.57,2.57,0,0,1-1.434,2.875c-1.013.547-2.574.649-3.06-.609a.512.512,0,0,1,.491-.644,4.183,4.183,0,0,0,1.833-.007,1.84,1.84,0,0,0,1.153-1.476.52.52,0,0,1,1.016-.138Z" transform="translate(-137.239 -371.117)" fill="#9fa156"/>
          </g>
          <g id="Grupo_3562" data-name="Grupo 3562" transform="translate(32.569 50.213)">
            <path id="Trazado_7714" data-name="Trazado 7714" d="M139.6,358.444a2.279,2.279,0,0,1-1.3,1.239,2.676,2.676,0,0,1-1.839.373.711.711,0,0,1-.421-1.035,2.479,2.479,0,0,1,1.351-1.105,2.324,2.324,0,0,1,1.734-.307.688.688,0,0,1,.473.834Z" transform="translate(-135.96 -357.533)" fill="#9fa156"/>
          </g>
        </g>
        <g id="Grupo_3571" data-name="Grupo 3571" transform="translate(77.015 14.054)">
          <path id="Trazado_7715" data-name="Trazado 7715" d="M177.927,376.061c1.795-.067,4.024-.45,4.528-2.174l-1.6-2.013A40.909,40.909,0,0,0,199.5,351.347l-1.8-.945a92.541,92.541,0,0,0,4.782-12.319,6.381,6.381,0,0,0,.246-4.333c-.584-1.359-2.606-2.118-3.578-1a29.43,29.43,0,0,0,.762-10.588c-.1-.917-.428-2.031-1.335-2.2a2.312,2.312,0,0,0-1.85.882l-6.477,6.13c-1.811-1.661-2.757-5.112-5.174-4.679-2.515.451-2.291,4.606-4.532,5.833-1.117.61-2.517.291-3.738.653-2.372.7-3.255,3.651-3.119,6.122s.892,4.987.239,7.375a2.8,2.8,0,0,1-1.1,1.715c-1.163.716-2.7-.081-4.027.241-1.712.415-2.414,2.419-2.836,4.129l-3.217,13.02a1.207,1.207,0,0,0-1.429-.111,2.366,2.366,0,0,0-.741,1.022l-3.7,7.754q-2.188,4.584-4.375,9.166c4.059-.209,7.574-2.077,11.46-2.632C168.483,375.933,173.357,376.23,177.927,376.061Z" transform="translate(-152.5 -319.936)" fill="#f5a607"/>
          <g id="Grupo_3564" data-name="Grupo 3564" transform="translate(8.529 8.171)">
            <path id="Trazado_7716" data-name="Trazado 7716" d="M194.47,328.708a150.132,150.132,0,0,1-14.73,25.206c-5.513,7.553-12.356,13.672-18.283,20.795-.341.41.166,1.065.632.732,7.524-5.4,13.794-13.846,19.15-21.31A138.845,138.845,0,0,0,195.444,329.2c.283-.64-.675-1.139-.974-.5Z" transform="translate(-161.345 -328.409)" fill="#847d00"/>
          </g>
          <g id="Grupo_3565" data-name="Grupo 3565" transform="translate(31.907 20.082)">
            <path id="Trazado_7717" data-name="Trazado 7717" d="M199.052,341.256c-2.946-1.483-4.182.637-5.4,2.822-1.106,1.984-2.888,1.833-4.583,3.077a11.594,11.594,0,0,0-3.433,4.716.464.464,0,0,0,.825.421,26.213,26.213,0,0,1,2.62-3.739c1.391-1.433,3.183-1.191,4.623-2.249,1.722-1.266,1.428-5.477,4.817-4.01.683.3,1.206-.7.529-1.038Z" transform="translate(-185.589 -340.761)" fill="#847d00"/>
          </g>
          <g id="Grupo_3566" data-name="Grupo 3566" transform="translate(26.867 30.73)">
            <path id="Trazado_7718" data-name="Trazado 7718" d="M195.247,352.582c-2.417-2.008-3.963.276-5.116,2.261-1.43,2.461-3.464,2.262-5.71,3.588a11.047,11.047,0,0,0-3.986,3.883c-.3.5.42.909.8.546a22.006,22.006,0,0,1,3.94-3.289c1.492-.881,3.179-.934,4.659-1.675,1.4-.7,2.808-5.406,4.7-4.263.624.377,1.278-.587.719-1.051Z" transform="translate(-180.362 -351.804)" fill="#847d00"/>
          </g>
          <g id="Grupo_3567" data-name="Grupo 3567" transform="translate(20.207 42.728)">
            <path id="Trazado_7719" data-name="Trazado 7719" d="M184.261,364.329c-3.517,1.87-7.8,3.98-10.677,6.749-.345.331.072.919.5.769,3.771-1.323,7.595-4.209,10.843-6.5a.607.607,0,0,0-.667-1.013Z" transform="translate(-173.455 -364.247)" fill="#847d00"/>
          </g>
          <g id="Grupo_3568" data-name="Grupo 3568" transform="translate(26.829 10.287)">
            <path id="Trazado_7720" data-name="Trazado 7720" d="M185.477,330.808a9.287,9.287,0,0,0-2.08,3.227c-.486,1.634.579,3.355-.093,4.9-.753,1.738-3.7,3.079-2.818,5.311a.491.491,0,0,0,.939-.045c.608-2.072,2.561-3.085,3.243-5.066a4.707,4.707,0,0,0,.081-2.173,5.881,5.881,0,0,1,1.614-5.367c.487-.586-.385-1.374-.887-.792Z" transform="translate(-180.322 -330.604)" fill="#847d00"/>
          </g>
          <g id="Grupo_3569" data-name="Grupo 3569" transform="translate(20.454 25.371)">
            <path id="Trazado_7721" data-name="Trazado 7721" d="M177.717,346.359c-1.345,1.316-1.4,3.071-1.687,4.833a17.813,17.813,0,0,1-1.023,3.786,21.8,21.8,0,0,0-1.282,2.969c-.1.407.391.564.655.335,1.347-1.17,1.943-3.322,2.351-5.012.5-2.072.021-4.746,1.537-6.419.321-.355-.214-.82-.551-.491Z" transform="translate(-173.712 -346.247)" fill="#847d00"/>
          </g>
          <g id="Grupo_3570" data-name="Grupo 3570" transform="translate(11.471 32.562)">
            <path id="Trazado_7722" data-name="Trazado 7722" d="M169.309,353.909c-.847,1.135-2.277,2.8-2.561,4.224-.176.869.11,1.088.478,1.795,1.37,2.637-.383,3.611-1.822,5.443a3.72,3.72,0,0,0-1.008,2.506c.006.321.424.3.517.044.815-2.275,3.408-3.817,3.686-6.279a5.6,5.6,0,0,0-.308-1.745c-.334-2.032,1.136-3.587,1.931-5.361.245-.547-.516-1.161-.914-.626Z" transform="translate(-164.396 -353.703)" fill="#847d00"/>
          </g>
        </g>
        <g id="Grupo_3579" data-name="Grupo 3579" transform="translate(0 19.628)">
          <path id="Trazado_7723" data-name="Trazado 7723" d="M132.1,346.876c-.846-2.991-2.186-6.208-5.009-7.508s-7.067,1.052-6.238,4.048c-3.881-6.3-8.313-13.061-15.338-15.4a31.878,31.878,0,0,0-6.9-1.215l-8.086-.819c-3.723-.376-7.792-.672-10.894,1.42s-3.912,7.6-.568,9.275c-4.937.274-7.8,6.7-5.777,11.216s7.291,6.826,12.235,6.888A9.646,9.646,0,0,0,97.6,367.994a9.617,9.617,0,0,0,6.038,8.723c1.528.582,3.193.759,4.7,1.389,2.533,1.057,4.366,3.258,6.259,5.246a53.469,53.469,0,0,0,14.562,10.813c1,.5,2.248.965,3.172.336a3.051,3.051,0,0,0,1.017-2.267c.459-3.94-1.317-7.06-1.464-10.8-.117-2.949,1.035-5.749,1.548-8.645A58.442,58.442,0,0,0,132.1,346.876Z" transform="translate(-72.632 -325.715)" fill="#4d5523"/>
          <g id="Grupo_3572" data-name="Grupo 3572" transform="translate(15.478 9.682)">
            <path id="Trazado_7724" data-name="Trazado 7724" d="M89.014,336.7c4.952,1.461,10.425,3.231,12.668,8.3.646,1.459.774,3.293,1.738,4.62.993,1.368,2.358,1.993,3.449,3.334,5.194,6.379,5.445,18.765,14.619,21.65a.633.633,0,0,0,.54-1.126c-5.147-3.84-7.86-8.951-10.38-14.734-.9-2.07-1.46-4.76-2.7-6.63s-3.491-2.318-4.67-4.229c-1.746-2.829-1.715-5.491-4.542-7.769-2.97-2.393-6.8-3.422-10.428-4.34-.6-.153-.906.748-.3.928Z" transform="translate(-88.683 -335.756)" fill="#c6c93b"/>
          </g>
          <g id="Grupo_3573" data-name="Grupo 3573" transform="translate(12.514 20.462)">
            <path id="Trazado_7725" data-name="Trazado 7725" d="M86.091,347.987a12.471,12.471,0,0,1,10.267,4.853c1.445,1.836,2.512,3.877,5.084,3.88.555,0,.791-.9.183-1.021-3.273-.639-4.992-5.085-7.872-6.838a13.589,13.589,0,0,0-7.616-1.92c-.666.018-.723,1.054-.045,1.045Z" transform="translate(-85.609 -346.935)" fill="#c6c93b"/>
          </g>
          <g id="Grupo_3574" data-name="Grupo 3574" transform="translate(20.838 31.575)">
            <path id="Trazado_7726" data-name="Trazado 7726" d="M94.741,359.9c5.513,1.577,9.126,4.75,12.861,8.932a.561.561,0,0,0,.913-.627c-2.713-4.934-8.033-8.186-13.321-9.708-.909-.261-1.367,1.142-.453,1.4Z" transform="translate(-94.242 -358.461)" fill="#c6c93b"/>
          </g>
          <g id="Grupo_3575" data-name="Grupo 3575" transform="translate(32.039 9.129)">
            <path id="Trazado_7727" data-name="Trazado 7727" d="M106.032,336.562a68.805,68.805,0,0,1,6.283,10.969.6.6,0,0,0,1.109-.4,26.322,26.322,0,0,0-6.169-11.664c-.724-.8-1.826.255-1.224,1.094Z" transform="translate(-105.858 -335.183)" fill="#c6c93b"/>
          </g>
          <g id="Grupo_3576" data-name="Grupo 3576" transform="translate(43.047 20.627)">
            <path id="Trazado_7728" data-name="Trazado 7728" d="M117.421,348.209a11.493,11.493,0,0,1,2.56,7.238c-.032,2.057-.947,3.741-1.308,5.71-.389,2.119-.011,4.669,2.429,5.134.474.09,1.045-.479.588-.9-2.942-2.734.07-7.37-.215-10.9a12.546,12.546,0,0,0-3.08-7.145c-.547-.65-1.486.214-.975.872Z" transform="translate(-117.273 -347.107)" fill="#c6c93b"/>
          </g>
          <g id="Grupo_3577" data-name="Grupo 3577" transform="translate(50.8 27.708)">
            <path id="Trazado_7729" data-name="Trazado 7729" d="M125.321,355.388c.7,5.76,1.985,11.965,4.824,17.089.341.617,1.465.3,1.22-.438-1.884-5.67-3.786-11.015-4.512-16.988-.122-1-1.654-.66-1.532.337Z" transform="translate(-125.314 -354.45)" fill="#c6c93b"/>
          </g>
          <g id="Grupo_3578" data-name="Grupo 3578" transform="translate(37.624 48.681)">
            <path id="Trazado_7730" data-name="Trazado 7730" d="M111.814,376.928c2.716,1.993,5.4,4.028,8.216,5.885.452.3.877-.373.457-.7-2.672-2.052-5.471-3.928-8.242-5.845-.418-.289-.836.359-.431.656Z" transform="translate(-111.649 -376.2)" fill="#c6c93b"/>
          </g>
        </g>
        <g id="Grupo_3581" data-name="Grupo 3581" transform="translate(73.694 38.816)">
          <ellipse id="Elipse_570" data-name="Elipse 570" cx="11.943" cy="14.692" rx="11.943" ry="14.692" transform="translate(0 26.005) rotate(-74.116)" fill="#e00b16"/>
          <path id="Trazado_7731" data-name="Trazado 7731" d="M165.913,349.469c-1.294-.365-8.005,4.859-10.338,3.195a6.924,6.924,0,0,0,5.132,4.009,9.923,9.923,0,0,0,6.547-1.2,4.089,4.089,0,0,0-2.021,4.226,10.072,10.072,0,0,0,2.083,4.5,16.183,16.183,0,0,0,3.612-2.612,5.457,5.457,0,0,0,1.656-4.016,4.916,4.916,0,0,0,3.063,5c1.943.814,5.76,1.5,7.622.517-1.361-.2-3.759-2.6-4.072-3.941a35.356,35.356,0,0,0-.731-4.051,4.8,4.8,0,0,0-2.85-2.909,5.789,5.789,0,0,0-4.825.883C169.88,350.813,168,350.059,165.913,349.469Z" transform="translate(-149.288 -345.751)" fill="#425831"/>
          <g id="Grupo_3580" data-name="Grupo 3580" transform="translate(19.952)">
            <path id="Trazado_7732" data-name="Trazado 7732" d="M171.008,356.144c1.392-2.251,4.64-8.613,1.016-10.466a.5.5,0,0,0-.74.549c.281,1.663.882,2.745.492,4.518a17.243,17.243,0,0,1-1.934,4.691.683.683,0,0,0,1.166.709Z" transform="translate(-169.747 -345.614)" fill="#425831"/>
          </g>
        </g>
        <g id="Grupo_3583" data-name="Grupo 3583" transform="translate(43.536 40.194)">
          <path id="Trazado_7733" data-name="Trazado 7733" d="M147.455,360.024c2.268,6.194-2.071,13.476-9.691,16.266s-15.635.03-17.9-6.164,2.071-13.476,9.691-16.266S145.188,353.831,147.455,360.024Z" transform="translate(-117.834 -347.249)" fill="#d63b00"/>
          <path id="Trazado_7734" data-name="Trazado 7734" d="M124.268,353.431c-1.261.465-3.621,8.635-6.487,8.659a6.923,6.923,0,0,0,6.508.228,9.927,9.927,0,0,0,4.591-4.82,4.089,4.089,0,0,0,.848,4.606,10.063,10.063,0,0,0,4.329,2.415,16.184,16.184,0,0,0,1.387-4.236,5.454,5.454,0,0,0-1.02-4.223,4.917,4.917,0,0,0,5.419,2.25c2.051-.483,5.542-2.17,6.47-4.061-1.216.64-4.571.1-5.61-.8a35.327,35.327,0,0,0-2.973-2.847,4.8,4.8,0,0,0-4.016-.68,5.794,5.794,0,0,0-3.385,3.55C128.268,352.187,126.3,352.682,124.268,353.431Z" transform="translate(-117.781 -347.14)" fill="#547c32"/>
          <g id="Grupo_3582" data-name="Grupo 3582" transform="translate(8.43)">
            <path id="Trazado_7735" data-name="Trazado 7735" d="M132.3,356.149c-.2-2.639-1.308-9.695-5.329-9.065a.5.5,0,0,0-.276.878c1.2,1.181,2.327,1.7,3.053,3.366a17.226,17.226,0,0,1,1.191,4.932.683.683,0,0,0,1.361-.112Z" transform="translate(-126.524 -347.044)" fill="#547c32"/>
          </g>
        </g>
        <g id="Grupo_3586" data-name="Grupo 3586" transform="translate(106.648 35.548)">
          <path id="Trazado_7736" data-name="Trazado 7736" d="M190.414,387.09a5.965,5.965,0,0,0,3.693-2.483c2.393-3.059,3.315-6.986,5.028-10.472,2.59-5.271,6.944-9.445,10.185-14.343a17.636,17.636,0,0,0,3.344-8.848c.119-3.192-1.37-6.6-4.234-8.009a8.468,8.468,0,0,0-7.411.327,17.517,17.517,0,0,0-5.7,5.063c-5.051,6.446-7.9,14.3-10.671,22.007C182.907,375.163,181.06,388.33,190.414,387.09Z" transform="translate(-183.231 -342.225)" fill="#547c32"/>
          <g id="Grupo_3584" data-name="Grupo 3584" transform="translate(9.288 6.843)">
            <path id="Trazado_7737" data-name="Trazado 7737" d="M205.652,349.642c-5.215,7.356-9.946,15.3-12.766,23.909-.174.528.66.965.915.433,3.932-8.174,7.852-16.1,13.107-23.527.556-.788-.7-1.6-1.256-.816Z" transform="translate(-192.863 -349.322)" fill="#c6c93b"/>
          </g>
          <g id="Grupo_3585" data-name="Grupo 3585" transform="translate(5.275 7.024)">
            <path id="Trazado_7738" data-name="Trazado 7738" d="M199.093,349.712c-4.8,6.652-9.02,14.4-10.386,22.573-.079.472.635.547.789.141,2.962-7.789,5.743-15.2,10.395-22.195.34-.512-.441-1.013-.8-.519Z" transform="translate(-188.701 -349.51)" fill="#c6c93b"/>
          </g>
        </g>
        <g id="Grupo_3606" data-name="Grupo 3606" transform="translate(12.302)">
          <path id="Trazado_7739" data-name="Trazado 7739" d="M201.442,366.923c.265,20.231-4.719,45.665-9.468,67.25a13.02,13.02,0,0,1-2.2,5.621c-1.822,2.214-4.841,2.961-7.653,3.518a198.3,198.3,0,0,1-76.766,0,10.326,10.326,0,0,1-4.679-1.782c-1.608-1.324-2.281-3.443-2.863-5.444-3.595-12.354-11.995-60.045-12.421-68.431-.1-1.924,21.479,1.775,26.881,1.726q20.3-.187,40.608-.368C168.538,368.872,185.783,367.065,201.442,366.923Z" transform="translate(-85.39 -307.56)" fill="#b06c3b"/>
          <g id="Grupo_3587" data-name="Grupo 3587" transform="translate(28.997)">
            <path id="Trazado_7740" data-name="Trazado 7740" d="M126.811,314.722c-7.266,8.338-10.226,19.533-11.1,30.343-1.061,13.208,1.478,26.717,2.344,39.889a1.963,1.963,0,0,0,3.923,0c1.381-12.338-1.353-24.829-.731-37.206.625-12.422,4.493-26.931,15.727-33.9a12.946,12.946,0,0,1,8.364-2.23,39.156,39.156,0,0,0,1.063-6.166C139.041,304.639,131.65,309.169,126.811,314.722Z" transform="translate(-115.461 -305.361)" fill="#b06c3b"/>
          </g>
          <g id="Grupo_3588" data-name="Grupo 3588" transform="translate(8.8 66.557)">
            <path id="Trazado_7741" data-name="Trazado 7741" d="M94.922,375.588A397.386,397.386,0,0,0,194.6,375.5c.7-.088.708-1.2,0-1.11a420.835,420.835,0,0,1-99.677.344c-.549-.062-.536.787,0,.856Z" transform="translate(-94.515 -374.383)" fill="#c67b47"/>
          </g>
          <g id="Grupo_3589" data-name="Grupo 3589" transform="translate(8.684 73.5)">
            <path id="Trazado_7742" data-name="Trazado 7742" d="M94.8,382.787a397.386,397.386,0,0,0,99.677-.091c.7-.087.708-1.2,0-1.109a420.936,420.936,0,0,1-99.677.344c-.55-.063-.537.787,0,.855Z" transform="translate(-94.395 -381.583)" fill="#c67b47"/>
          </g>
          <g id="Grupo_3590" data-name="Grupo 3590" transform="translate(8.569 80.442)">
            <path id="Trazado_7743" data-name="Trazado 7743" d="M94.684,389.987a397.386,397.386,0,0,0,99.677-.091c.7-.088.708-1.2,0-1.11a420.834,420.834,0,0,1-99.677.344c-.55-.062-.537.788,0,.856Z" transform="translate(-94.276 -388.782)" fill="#c67b47"/>
          </g>
          <g id="Grupo_3591" data-name="Grupo 3591" transform="translate(8.454 87.384)">
            <path id="Trazado_7744" data-name="Trazado 7744" d="M94.564,397.186a397.386,397.386,0,0,0,99.677-.091c.7-.087.709-1.2,0-1.109a420.935,420.935,0,0,1-99.677.344c-.549-.063-.536.787,0,.855Z" transform="translate(-94.157 -395.982)" fill="#c67b47"/>
          </g>
          <g id="Grupo_3592" data-name="Grupo 3592" transform="translate(9.353 94.31)">
            <path id="Trazado_7745" data-name="Trazado 7745" d="M95.5,404.4a388.136,388.136,0,0,0,97.648-.124c.7-.087.708-1.2,0-1.109a411.622,411.622,0,0,1-97.648.378c-.55-.063-.537.787,0,.855Z" transform="translate(-95.089 -403.164)" fill="#c67b47"/>
          </g>
          <g id="Grupo_3593" data-name="Grupo 3593" transform="translate(11.744 101.229)">
            <path id="Trazado_7746" data-name="Trazado 7746" d="M97.875,411.627a344.885,344.885,0,0,0,92.874-.212c.7-.1.4-1.165-.3-1.069a363.715,363.715,0,0,1-92.465.441c-.474-.057-.592.776-.114.841Z" transform="translate(-97.569 -410.34)" fill="#c67b47"/>
          </g>
          <g id="Grupo_3594" data-name="Grupo 3594" transform="translate(12.644 108.155)">
            <path id="Trazado_7747" data-name="Trazado 7747" d="M98.807,418.843a336.2,336.2,0,0,0,90.846-.246c.7-.1.4-1.164-.3-1.069A354.99,354.99,0,0,1,98.92,418c-.474-.057-.591.775-.114.841Z" transform="translate(-98.502 -417.522)" fill="#c67b47"/>
          </g>
          <g id="Grupo_3595" data-name="Grupo 3595" transform="translate(14.303 115.067)">
            <path id="Trazado_7748" data-name="Trazado 7748" d="M100.528,426.071a305.379,305.379,0,0,0,87.3-.3c.7-.1.4-1.171-.3-1.069a321.881,321.881,0,0,1-86.888.533c-.473-.06-.591.772-.114.841Z" transform="translate(-100.223 -424.69)" fill="#c67b47"/>
          </g>
          <g id="Grupo_3596" data-name="Grupo 3596" transform="translate(16.217 121.975)">
            <path id="Trazado_7749" data-name="Trazado 7749" d="M102.512,433.3a278.148,278.148,0,0,0,83.24-.371c.7-.108.405-1.176-.294-1.069a293.134,293.134,0,0,1-82.832.6c-.473-.063-.59.769-.114.84Z" transform="translate(-102.207 -431.854)" fill="#c67b47"/>
          </g>
          <g id="Grupo_3597" data-name="Grupo 3597" transform="translate(16.111 128.593)">
            <path id="Trazado_7750" data-name="Trazado 7750" d="M102.408,439.632c27.592,4.827,55.4,3.411,83.083.2.7-.081.71-1.192,0-1.109-27.666,3.21-55.229,4.423-82.855.086-.536-.084-.773.73-.228.825Z" transform="translate(-102.097 -438.716)" fill="#c67b47"/>
          </g>
          <g id="Grupo_3598" data-name="Grupo 3598" transform="translate(13.049 66.188)">
            <path id="Trazado_7751" data-name="Trazado 7751" d="M98.926,374.642c2.505,22.052,7.392,44.073,12.674,65.6.248,1.011,1.808.582,1.559-.429-5.321-21.626-9-43.454-12.941-65.35-.129-.721-1.376-.565-1.292.175Z" transform="translate(-98.922 -374)" fill="#c67b47"/>
          </g>
          <g id="Grupo_3599" data-name="Grupo 3599" transform="translate(26.814 66.382)">
            <path id="Trazado_7752" data-name="Trazado 7752" d="M121.492,439.472c-2.489-21.561-4.984-43.119-7.134-64.718-.073-.735-1.232-.741-1.157,0,2.195,21.6,4.525,43.194,7.34,64.718.077.595,1.021.611.951,0Z" transform="translate(-113.197 -374.201)" fill="#c67b47"/>
          </g>
          <g id="Grupo_3600" data-name="Grupo 3600" transform="translate(39.161 69.615)">
            <path id="Trazado_7753" data-name="Trazado 7753" d="M130.956,442.257c-.4-10.69-1.694-21.374-2.371-32.055-.679-10.7-.981-21.418-1.507-32.128a.539.539,0,0,0-1.077,0c.123,11.044.828,22.113,1.564,33.131.69,10.352,1.2,20.875,2.847,31.125.049.31.556.235.545-.073Z" transform="translate(-126.001 -377.555)" fill="#c67b47"/>
          </g>
          <g id="Grupo_3601" data-name="Grupo 3601" transform="translate(50.596 68.7)">
            <path id="Trazado_7754" data-name="Trazado 7754" d="M141.476,443.606c-1.075-22.151-2.662-44.274-2.494-66.465a.555.555,0,0,0-1.109,0c-.169,22.171,1.234,44.356,2.746,66.465.038.546.883.554.856,0Z" transform="translate(-137.86 -376.606)" fill="#c67b47"/>
          </g>
          <g id="Grupo_3602" data-name="Grupo 3602" transform="translate(63.496 70.263)">
            <path id="Trazado_7755" data-name="Trazado 7755" d="M152.157,444.025c.643-21.73,1.2-43.523,1.234-65.263a.555.555,0,0,0-1.109,0c-.723,21.726-.929,43.525-1.044,65.263a.46.46,0,0,0,.919,0Z" transform="translate(-151.238 -378.227)" fill="#c67b47"/>
          </g>
          <g id="Grupo_3603" data-name="Grupo 3603" transform="translate(73.344 67.608)">
            <path id="Trazado_7756" data-name="Trazado 7756" d="M162.466,442.039c3.557-21.769,4.777-43.951,4.791-65.985a.6.6,0,0,0-1.2,0c-.014,22.132-1.931,43.9-4.6,65.848-.069.571.919.71,1.012.137Z" transform="translate(-161.45 -375.473)" fill="#c67b47"/>
          </g>
          <g id="Grupo_3604" data-name="Grupo 3604" transform="translate(80.759 66.08)">
            <path id="Trazado_7757" data-name="Trazado 7757" d="M169.966,441.549c4.521-21.941,6.387-44.755,8.386-67.038.074-.833-1.226-.828-1.3,0-2,22.4-5.606,44.578-7.911,66.927-.049.469.73.573.824.111Z" transform="translate(-169.14 -373.888)" fill="#c67b47"/>
          </g>
          <g id="Grupo_3605" data-name="Grupo 3605" transform="translate(90.109 64.933)">
            <path id="Trazado_7758" data-name="Trazado 7758" d="M179.731,440.108c2.627-12.775,4.415-25.7,6.62-38.556,1.61-9.391,4.26-18.9,3.993-28.5-.011-.382-.644-.509-.7-.1-3.036,22.349-6.768,44.694-10.8,66.909-.1.576.767.827.886.244Z" transform="translate(-178.836 -372.699)" fill="#c67b47"/>
          </g>
        </g>
      </g>
    </g>
  </g>
</svg>
