<svg xmlns="http://www.w3.org/2000/svg" width="1706" height="461.694" viewBox="0 0 1706 461.694">
  <g id="Grupo_5348" data-name="Grupo 5348" transform="translate(1111 2101.697)">
    <g id="Grupo_3634" data-name="Grupo 3634" transform="translate(-1111 -2101.697)">
      <path id="Trazado_7759" data-name="Trazado 7759" d="M435.043,36.249a67.493,67.493,0,0,0-26.8-17.069A80.458,80.458,0,0,0,300.921,91.39c-.409,9.144.736,18.392-.832,27.409s-6.661,18.217-15.308,21.215c-11.871,4.114-23.834-4.673-34.567-11.2a110.814,110.814,0,0,0-88.361-11.28c-23.461,7.069-45.106,23.233-54.107,46.023s-2.625,52.038,17.793,65.586c4.588,3.044,10.038,5.6,12.347,10.6,4.777,10.337-6.949,20.278-16.824,25.951C91.983,282.4,63.3,302.766,47.523,332.358S32.739,402.773,57.779,425.08c13.127,11.7,30.768,16.871,48.064,20.024,18.024,3.285,36.76,4.721,54.55.336,19.014-4.686,35.895-15.777,50.618-28.69,9.443-8.282,18.272-17.459,29.086-23.848s24.327-9.7,36.028-5.133c9.25,3.61,16.015,11.488,23.6,17.9a87.384,87.384,0,0,0,130.608-20.579c15.524-24.958,18.4-57.476,38.9-78.532,5.776-5.931,12.719-10.654,18.327-16.746,12.763-13.866,17.359-33.426,18.567-52.233,1.237-19.254-.906-39.232-8.251-57.19-8.27-20.219-24.033-28.862-36.563-45.269-9.338-12.228-6.422-25.895-6.835-40.366C453.885,73.9,449.768,52,435.043,36.249Z" transform="translate(5.194 -14.668)" fill="#00b871"/>
      <path id="Trazado_7760" data-name="Trazado 7760" d="M289.816,193.715c6.352,2.041,15.157.61,21.386.61h37.341c19.163,0,39.342,1.841,58.4.008,13.3-1.279,25.523-10.5,27.888-24.191.594-3.439.427-7.336-1.91-9.927-3.728-4.134-10.451-2.73-15.625-.681-8.337,3.3-17.467,9.058-17.893,18.015l6.638-20.165c1.54-4.677,3.1-9.5,2.761-14.414s-3.041-10-7.682-11.647c-5.673-2.017-11.865,1.7-15.733,6.31-7.832,9.338-9.991,22.035-11.863,34.077.181-3.365.351-6.826-.728-10.018s-3.719-6.1-7.069-6.447c-3.488-.366-6.77,2.139-8.417,5.236s-2,6.694-2.326,10.187c-1.264-5.382-.033-12.513-4.889-15.153-2.982-1.62-6.88-.274-9.2,2.208s-3.413,5.829-4.422,9.07q-.9-7.948-2.274-15.832c-1.269-7.251-3.5-15.363-10.03-18.768-5.577-2.908-12.8-1.126-17.429,3.135s-6.966,10.522-7.848,16.75a13.738,13.738,0,0,0-24.079.106c-2.009,3.691-2.221,8.1-1.8,12.283.947,9.492,5.145,19.848,12.107,26.568A11.844,11.844,0,0,0,289.816,193.715Z" transform="translate(38.203 1.585)" fill="#00b66f"/>
      <path id="Trazado_7761" data-name="Trazado 7761" d="M88.376,243.672c3.45,1.2,8.233.358,11.617.358h20.283c10.408,0,21.369,1.08,31.723,0a17.071,17.071,0,0,0,15.148-14.187c.323-2.018.233-4.3-1.037-5.823-2.025-2.424-5.677-1.6-8.487-.4-4.528,1.936-9.487,5.312-9.718,10.565q1.8-5.913,3.606-11.826c.836-2.744,1.684-5.572,1.5-8.454s-1.652-5.864-4.172-6.832c-3.081-1.182-6.444,1-8.547,3.7-4.253,5.477-5.426,12.923-6.443,19.985a16.872,16.872,0,0,0-.4-5.876c-.586-1.873-2.02-3.575-3.839-3.78-1.895-.215-3.678,1.254-4.571,3.07a16.723,16.723,0,0,0-1.264,5.975c-.686-3.157-.017-7.338-2.655-8.886-1.62-.951-3.737-.161-4.994,1.294a13.809,13.809,0,0,0-2.4,5.32q-.487-4.663-1.236-9.285c-.69-4.253-1.9-9.011-5.448-11.007-3.029-1.707-6.954-.662-9.466,1.838s-3.785,6.171-4.264,9.823a7.208,7.208,0,0,0-13.079.063,13.364,13.364,0,0,0-.979,7.2c.514,5.567,2.794,11.642,6.575,15.581A6.344,6.344,0,0,0,88.376,243.672Z" transform="translate(11.088 12.223)" fill="#00b66f"/>
      <path id="Trazado_7762" data-name="Trazado 7762" d="M525.9,301.82c-9.959,9.96-20.871,16.208-32.433,22.1,6.727-10.078,13.713-20.98,13.576-33.1s-11.025-24.786-22.793-21.9c-9.053,2.218-14.419,12.136-23.274,15.04-4.439-14.423,1.068-29.747,3.479-44.643s-.237-33.355-13.924-39.709c-8.528-3.958-18.754-1.7-27.083,2.661-21.636,11.333-34.338,35.588-36.94,59.872s3.57,48.685,11.875,71.652c-19.547-12.588-44.077-25.534-64.707-14.814-17.658,9.175-23.469,32.848-18.389,52.087,4.926,18.659,17.6,34.1,30.168,48.805H525.9Z" transform="translate(43.898 10.936)" fill="#009750"/>
      <path id="Trazado_7763" data-name="Trazado 7763" d="M130.131,312.707c-31.059-20.1-76.315-14.219-101.2,13.154,5.844-8.753,11.912-18.224,11.793-28.748s-9.576-25.581-19.8-23.076C13.059,275.964,7.414,285.3.706,291.152V409.208H157.038C171.817,375.291,161.19,332.808,130.131,312.707Z" transform="translate(0.106 21.604)" fill="#009750"/>
      <g id="Grupo_3632" data-name="Grupo 3632" transform="translate(79.711 272.954)">
        <g id="Grupo_3617" data-name="Grupo 3617">
          <g id="Grupo_3612" data-name="Grupo 3612" transform="translate(127.409 78.011)">
            <path id="Trazado_7764" data-name="Trazado 7764" d="M181.777,429.627c-.032.134-.065.269-.1.4l13.8,3.151c2.448-2.057-.67-7.168,1.346-9.649A5.6,5.6,0,0,1,199.544,422c5.927-1.947,13-4.08,14.911-10.017,1.093-3.4.071-7.058-.472-10.586s-.38-7.649,2.336-9.966a15.932,15.932,0,0,1,3.827-2.068,26.656,26.656,0,0,0,15.146-22.708,10.309,10.309,0,0,0-.917-5.258c-1.4-2.623-4.5-4.078-5.657-6.817-1.693-4.018,1.515-8.222,3.607-12.047,2.926-5.352,3.655-12.405.058-17.332-1.111-1.522-2.826-2.853-4.7-2.646-2.613.288-3.957,3.209-4.745,5.717a185.532,185.532,0,0,0-5.576,22.584c-.8,4.408-2.035,9.616-6.229,11.189-1.55.581-3.277.534-4.84,1.077-3.583,1.247-5.456,5.31-5.693,9.1s.747,7.536.958,11.324-.56,7.979-3.486,10.391c-2.233,1.841-5.458,2.42-7.209,4.723-3.21,4.221.809,10.369-.44,15.523-.743,3.067-3.238,5.329-5.337,7.684S182.525,426.562,181.777,429.627Z" transform="translate(-181.679 -322.534)" fill="#004e07"/>
            <g id="Grupo_3611" data-name="Grupo 3611" transform="translate(5.579 6.137)">
              <path id="Trazado_7765" data-name="Trazado 7765" d="M187.712,431.05l-1.139-.06a85.032,85.032,0,0,1,10.09-35.736c2.649-4.888,5.819-9.567,8.885-14.093,3.917-5.783,7.967-11.762,10.926-18.183,5.084-11.036,6.961-23.249,8.776-35.059l1.127.173c-1.827,11.888-3.716,24.182-8.868,35.363-3,6.506-7.075,12.524-11.018,18.346-3.049,4.5-6.2,9.159-8.826,14A83.864,83.864,0,0,0,187.712,431.05Z" transform="translate(-186.573 -327.918)"/>
            </g>
          </g>
          <g id="Grupo_3614" data-name="Grupo 3614" transform="translate(3.469 33.547)">
            <path id="Trazado_7766" data-name="Trazado 7766" d="M142.795,423.249c.043.176.086.351.129.528l-18,4.11c-3.194-2.681.873-9.35-1.757-12.587a7.306,7.306,0,0,0-3.549-2c-7.731-2.54-16.959-5.321-19.452-13.068-1.427-4.433-.093-9.208.616-13.81s.495-9.981-3.047-13a20.813,20.813,0,0,0-4.994-2.7,34.779,34.779,0,0,1-19.76-29.625,13.454,13.454,0,0,1,1.2-6.859c1.824-3.422,5.874-5.32,7.38-8.893,2.208-5.243-1.977-10.726-4.706-15.718-3.818-6.982-4.769-16.185-.075-22.612,1.449-1.986,3.686-3.723,6.13-3.453,3.409.377,5.162,4.187,6.19,7.459a241.909,241.909,0,0,1,7.273,29.465c1.042,5.75,2.656,12.544,8.127,14.6,2.023.759,4.276.7,6.316,1.407,4.674,1.627,7.118,6.927,7.428,11.866s-.976,9.832-1.249,14.773.728,10.408,4.547,13.557c2.914,2.4,7.12,3.157,9.406,6.162,4.187,5.507-1.058,13.528.573,20.252.969,4,4.224,6.953,6.963,10.025S141.82,419.25,142.795,423.249Z" transform="translate(-72.959 -283.531)" fill="#004e07"/>
            <g id="Grupo_3613" data-name="Grupo 3613" transform="translate(6.899 6.733)">
              <path id="Trazado_7767" data-name="Trazado 7767" d="M121.227,437.9c-9.523-10.314-12.245-24.552-14.876-38.323-1.032-5.4-2.1-10.983-3.561-16.239-1.639-5.9-3.9-11.718-6.081-17.345-1.19-3.068-2.421-6.24-3.54-9.395-7.682-21.648-10.975-44.7-14.159-67l1.129-.162c3.176,22.239,6.46,45.235,14.1,66.776,1.114,3.14,2.342,6.3,3.529,9.364,2.192,5.652,4.461,11.5,6.116,17.451,1.475,5.3,2.546,10.907,3.582,16.33,2.6,13.614,5.292,27.69,14.594,37.765Z" transform="translate(-79.011 -289.437)"/>
            </g>
          </g>
          <path id="Trazado_7768" data-name="Trazado 7768" d="M175.076,442.607h-67.84a64.3,64.3,0,0,1-23.463-17.1c-1.667-1.932-3.29-4.634-2.055-6.867,1.173-2.123,4.209-2.307,6.518-1.565s4.463,2.135,6.886,2.24A109.11,109.11,0,0,1,78.11,397.237c-3.673-6.293-6.745-13.063-7.811-20.271s.031-14.926,4.122-20.954c1.294-1.908,3.005-3.71,5.242-4.273,2.565-.644,5.234.471,7.509,1.818,6.759,4,11.981,10.168,16.33,16.71,4.026,6.056,7.929,12.973,14.718,15.577a4.03,4.03,0,0,0,2.574.3c1.933-.587,2.222-3.177,2.049-5.19-1.878-21.672-14.073-40.97-20.014-61.9a124.757,124.757,0,0,1-4.511-34.4c.018-6.157.481-12.511,3.259-18.006,4.765-9.424,16.6-14.627,26.764-11.77,7.3,2.053,13.224,7.674,17.039,14.234s5.75,14.031,7.222,21.474a179.611,179.611,0,0,1,3.547,36.862c-.084,7.4-.663,14.927,1.235,22.076.8,3.029,2.868,6.483,5.991,6.2a6.6,6.6,0,0,0,3.3-1.562c3.5-2.685,6.27-6.205,9.573-9.131s7.466-5.334,11.868-5.022a6.427,6.427,0,0,1,5.011,2.528c2.111,3.235-.553,7.37-3.008,10.353C181.643,363.2,174,375.077,173.1,388.382c-.2,2.978.334,6.6,3.064,7.8,2.684,1.184,5.641-.746,7.954-2.55,7.746-6.043,15.789-11.864,24.805-15.768,4.368-1.892,9.421-3.308,13.808-1.459,5.213,2.2,7.718,8.537,7.054,14.156s-3.828,10.614-7.254,15.117C210.248,421.822,195.36,442.607,175.076,442.607Z" transform="translate(-69.916 -254.103)" fill="#00752e"/>
          <path id="Trazado_7769" data-name="Trazado 7769" d="M221.525,437.961H139.368c-10-8.111-20.245-17.189-23.215-29.715a3.269,3.269,0,0,1,.044-2.269,3.035,3.035,0,0,1,1.736-1.252,12.447,12.447,0,0,1,10.633,1.063,49.019,49.019,0,0,1-5.043-20.415,8.62,8.62,0,0,1,1.1-5.26c2.379-3.358,7.841-2.135,10.876.645s5.033,6.7,8.547,8.843c-.073-24.8-7.031-49.854-1.94-74.13,1.324-6.314,3.556-12.636,7.858-17.443,4.113-4.6,9.816-7.473,15.621-9.56a13.632,13.632,0,0,1,6.5-1.1,11.888,11.888,0,0,1,5.381,2.627c9.859,7.644,13.79,20.741,14.885,33.168a103.416,103.416,0,0,1-1.392,28.2c-1.688,8.947-4.575,18-3.021,26.972.282,1.623,1.066,3.55,2.707,3.7,1.4.124,2.486-1.158,3.255-2.336,3.414-5.234,5.926-11.049,9.723-16.01s9.346-9.147,15.594-9.171a6.446,6.446,0,0,1,4.31,1.289c2.637,2.3,1.4,6.609-.316,9.657-3.934,6.978-9.317,13.012-13.976,19.529s-8.7,13.839-9.319,21.826c-.17,2.178.058,4.673,1.765,6.039,2.386,1.911,5.879.43,8.531-1.092l8.08-4.637c2.752-1.579,5.928-3.211,8.95-2.248,2.986.951,4.713,4.265,4.767,7.4s-1.216,6.123-2.555,8.957C226.768,426.938,224.941,432.657,221.525,437.961Z" transform="translate(-63.469 -249.458)" fill="#00954e"/>
          <g id="Grupo_3616" data-name="Grupo 3616" transform="translate(89.698 71.21)">
            <path id="Trazado_7770" data-name="Trazado 7770" d="M148.607,431.265l-.008.416,14.154.067c1.94-2.54-2.216-6.849-.789-9.71a5.6,5.6,0,0,1,2.319-2.09c5.359-3.192,11.8-6.815,12.369-13.026.326-3.554-1.469-6.9-2.768-10.228s-2.038-7.384.106-10.236a15.966,15.966,0,0,1,3.285-2.853,26.655,26.655,0,0,0,9.831-25.463,10.3,10.3,0,0,0-2.041-4.932c-1.936-2.255-5.284-3-7.006-5.42-2.529-3.552-.313-8.354.894-12.543,1.689-5.862.863-12.9-3.721-16.929-1.417-1.243-3.38-2.168-5.163-1.558-2.486.852-3.161,3.995-3.385,6.614a185.64,185.64,0,0,0-.518,23.257c.181,4.476.109,9.828-3.641,12.278-1.386.905-3.081,1.235-4.489,2.107-3.224,2-4.167,6.371-3.573,10.119s2.371,7.192,3.4,10.842,1.194,7.908-1.138,10.9c-1.777,2.283-4.8,3.551-6.005,6.181-2.213,4.82,3.051,9.943,2.954,15.246-.057,3.154-2,5.906-3.534,8.662S148.667,428.111,148.607,431.265Z" transform="translate(-148.599 -316.568)" fill="#004e07"/>
            <g id="Grupo_3615" data-name="Grupo 3615" transform="translate(7.074 4.127)">
              <path id="Trazado_7771" data-name="Trazado 7771" d="M154.813,430.772c-.228-12.411,3.837-24.4,7.768-36,2.044-6.029,4.159-12.264,5.645-18.488,4.389-18.365,3.609-37.524,2.857-56.052l1.139-.047c.756,18.606,1.538,37.845-2.886,56.364-1.5,6.276-3.623,12.536-5.675,18.591-3.9,11.5-7.932,23.4-7.707,35.609Z" transform="translate(-154.804 -320.188)"/>
            </g>
          </g>
        </g>
        <g id="Grupo_3624" data-name="Grupo 3624" transform="translate(114.776)">
          <g id="Grupo_3619" data-name="Grupo 3619" transform="translate(127.408 78.011)">
            <path id="Trazado_7772" data-name="Trazado 7772" d="M282.459,429.627l-.1.4,13.8,3.151c2.449-2.057-.669-7.168,1.346-9.649a5.593,5.593,0,0,1,2.72-1.533c5.926-1.947,13-4.08,14.91-10.017,1.093-3.4.071-7.058-.472-10.586s-.38-7.649,2.336-9.966a15.918,15.918,0,0,1,3.828-2.068,26.657,26.657,0,0,0,15.145-22.708,10.3,10.3,0,0,0-.917-5.258c-1.4-2.623-4.5-4.078-5.657-6.817-1.693-4.018,1.515-8.222,3.607-12.047,2.926-5.352,3.655-12.405.058-17.332-1.112-1.522-2.825-2.853-4.7-2.646-2.613.288-3.957,3.209-4.746,5.717a185.725,185.725,0,0,0-5.575,22.584c-.8,4.408-2.036,9.616-6.23,11.189-1.55.581-3.276.534-4.84,1.077-3.583,1.247-5.456,5.31-5.693,9.1s.748,7.536.958,11.324-.559,7.979-3.486,10.391c-2.233,1.841-5.457,2.42-7.209,4.723-3.209,4.221.811,10.369-.439,15.523-.743,3.067-3.239,5.329-5.339,7.684S283.207,426.562,282.459,429.627Z" transform="translate(-282.36 -322.534)" fill="#004e07"/>
            <g id="Grupo_3618" data-name="Grupo 3618" transform="translate(5.579 6.137)">
              <path id="Trazado_7773" data-name="Trazado 7773" d="M288.393,431.05l-1.139-.06a85.049,85.049,0,0,1,10.09-35.736c2.649-4.888,5.82-9.567,8.885-14.093,3.917-5.783,7.967-11.762,10.926-18.183,5.086-11.036,6.962-23.249,8.777-35.059l1.126.173c-1.826,11.888-3.715,24.182-8.868,35.363-3,6.506-7.074,12.524-11.017,18.346-3.051,4.5-6.2,9.159-8.827,14A83.9,83.9,0,0,0,288.393,431.05Z" transform="translate(-287.254 -327.918)"/>
            </g>
          </g>
          <g id="Grupo_3621" data-name="Grupo 3621" transform="translate(3.468 33.547)">
            <path id="Trazado_7774" data-name="Trazado 7774" d="M243.476,423.249c.043.176.087.351.129.528l-18,4.11c-3.194-2.681.874-9.35-1.757-12.587a7.3,7.3,0,0,0-3.548-2c-7.731-2.54-16.96-5.321-19.453-13.068-1.426-4.433-.092-9.208.616-13.81s.495-9.981-3.047-13a20.813,20.813,0,0,0-4.994-2.7,34.782,34.782,0,0,1-19.76-29.625,13.454,13.454,0,0,1,1.2-6.859c1.824-3.422,5.876-5.32,7.38-8.893,2.208-5.243-1.977-10.726-4.706-15.718-3.818-6.982-4.767-16.185-.075-22.612,1.45-1.986,3.686-3.723,6.13-3.453,3.409.377,5.162,4.187,6.191,7.459a242.335,242.335,0,0,1,7.273,29.465c1.042,5.75,2.655,12.544,8.127,14.6,2.022.759,4.275.7,6.316,1.407,4.674,1.627,7.117,6.927,7.427,11.866s-.975,9.832-1.249,14.773.73,10.408,4.547,13.557c2.914,2.4,7.12,3.157,9.406,6.162,4.187,5.507-1.057,13.528.573,20.252.97,4,4.225,6.953,6.964,10.025S242.5,419.25,243.476,423.249Z" transform="translate(-173.64 -283.531)" fill="#004e07"/>
            <g id="Grupo_3620" data-name="Grupo 3620" transform="translate(6.899 6.733)">
              <path id="Trazado_7775" data-name="Trazado 7775" d="M221.909,437.9c-9.525-10.314-12.245-24.552-14.877-38.323-1.031-5.4-2.1-10.983-3.56-16.239-1.64-5.9-3.9-11.718-6.082-17.345-1.19-3.068-2.42-6.24-3.54-9.395-7.681-21.648-10.975-44.7-14.159-67l1.13-.162c3.176,22.239,6.46,45.235,14.1,66.776,1.114,3.14,2.343,6.3,3.529,9.364,2.193,5.652,4.462,11.5,6.117,17.451,1.474,5.3,2.546,10.907,3.582,16.33,2.6,13.614,5.291,27.69,14.593,37.765Z" transform="translate(-179.692 -289.437)"/>
            </g>
          </g>
          <path id="Trazado_7776" data-name="Trazado 7776" d="M275.757,442.607h-67.84a64.3,64.3,0,0,1-23.463-17.1c-1.666-1.932-3.29-4.634-2.055-6.867,1.174-2.123,4.209-2.307,6.518-1.565s4.463,2.135,6.887,2.24a109.074,109.074,0,0,1-17.012-22.074c-3.673-6.293-6.745-13.063-7.811-20.271s.031-14.926,4.122-20.954c1.3-1.908,3.006-3.71,5.243-4.273,2.564-.644,5.233.471,7.508,1.818,6.759,4,11.982,10.168,16.332,16.71,4.026,6.056,7.929,12.973,14.718,15.577a4.027,4.027,0,0,0,2.573.3c1.933-.587,2.223-3.177,2.049-5.19-1.876-21.672-14.073-40.97-20.014-61.9a124.713,124.713,0,0,1-4.51-34.4c.017-6.157.481-12.511,3.259-18.006,4.764-9.424,16.6-14.627,26.762-11.77,7.305,2.053,13.225,7.674,17.039,14.234s5.75,14.031,7.223,21.474a179.612,179.612,0,0,1,3.545,36.862c-.084,7.4-.663,14.927,1.235,22.076.8,3.029,2.869,6.483,5.991,6.2a6.6,6.6,0,0,0,3.3-1.562c3.5-2.685,6.27-6.205,9.574-9.131s7.466-5.334,11.867-5.022a6.427,6.427,0,0,1,5.011,2.528c2.111,3.235-.552,7.37-3.007,10.353-8.476,10.3-16.114,22.174-17.017,35.479-.2,2.978.333,6.6,3.063,7.8,2.684,1.184,5.642-.746,7.954-2.55,7.747-6.043,15.79-11.864,24.805-15.768,4.37-1.892,9.421-3.308,13.808-1.459,5.214,2.2,7.718,8.537,7.054,14.156s-3.827,10.614-7.254,15.117C310.929,421.822,296.041,442.607,275.757,442.607Z" transform="translate(-170.598 -254.103)" fill="#00752e"/>
          <path id="Trazado_7777" data-name="Trazado 7777" d="M322.206,437.961H240.05c-10-8.111-20.246-17.189-23.215-29.715a3.263,3.263,0,0,1,.044-2.269,3.031,3.031,0,0,1,1.736-1.252,12.444,12.444,0,0,1,10.632,1.063,49,49,0,0,1-5.042-20.415,8.62,8.62,0,0,1,1.1-5.26c2.379-3.358,7.841-2.135,10.876.645s5.032,6.7,8.545,8.843c-.072-24.8-7.03-49.854-1.94-74.13,1.324-6.314,3.556-12.636,7.858-17.443,4.114-4.6,9.817-7.473,15.621-9.56a13.636,13.636,0,0,1,6.5-1.1,11.876,11.876,0,0,1,5.381,2.627c9.859,7.644,13.792,20.741,14.886,33.168a103.417,103.417,0,0,1-1.393,28.2c-1.688,8.947-4.574,18-3.021,26.972.282,1.623,1.066,3.55,2.707,3.7,1.4.124,2.486-1.158,3.255-2.336,3.415-5.234,5.926-11.049,9.723-16.01s9.346-9.147,15.594-9.171a6.451,6.451,0,0,1,4.311,1.289c2.636,2.3,1.4,6.609-.317,9.657-3.934,6.978-9.317,13.012-13.975,19.529s-8.7,13.839-9.319,21.826c-.17,2.178.058,4.673,1.765,6.039,2.386,1.911,5.879.43,8.529-1.092l8.081-4.637c2.751-1.579,5.927-3.211,8.949-2.248,2.986.951,4.714,4.265,4.767,7.4s-1.216,6.123-2.555,8.957C327.449,426.938,325.623,432.657,322.206,437.961Z" transform="translate(-164.15 -249.458)" fill="#00954e"/>
          <g id="Grupo_3623" data-name="Grupo 3623" transform="translate(89.697 71.21)">
            <path id="Trazado_7778" data-name="Trazado 7778" d="M249.288,431.265l-.008.416,14.154.067c1.941-2.54-2.216-6.849-.789-9.71a5.591,5.591,0,0,1,2.32-2.09c5.359-3.192,11.8-6.815,12.368-13.026.327-3.554-1.469-6.9-2.768-10.228s-2.037-7.384.107-10.236a15.908,15.908,0,0,1,3.285-2.853,26.657,26.657,0,0,0,9.831-25.463,10.315,10.315,0,0,0-2.041-4.932c-1.937-2.255-5.284-3-7.008-5.42-2.527-3.552-.312-8.354.895-12.543,1.689-5.862.862-12.9-3.722-16.929-1.416-1.243-3.379-2.168-5.162-1.558-2.487.852-3.162,3.995-3.386,6.614a185.855,185.855,0,0,0-.518,23.257c.181,4.476.109,9.828-3.64,12.278-1.386.905-3.083,1.235-4.489,2.107-3.225,2-4.168,6.371-3.574,10.119s2.372,7.192,3.4,10.842,1.194,7.908-1.137,10.9c-1.778,2.283-4.8,3.551-6.007,6.181-2.213,4.82,3.051,9.943,2.955,15.246-.057,3.154-2,5.906-3.534,8.662S249.35,428.111,249.288,431.265Z" transform="translate(-249.28 -316.568)" fill="#004e07"/>
            <g id="Grupo_3622" data-name="Grupo 3622" transform="translate(7.074 4.127)">
              <path id="Trazado_7779" data-name="Trazado 7779" d="M255.494,430.772c-.228-12.411,3.837-24.4,7.768-36,2.045-6.029,4.159-12.264,5.646-18.488,4.388-18.365,3.609-37.524,2.857-56.052l1.139-.047c.756,18.606,1.538,37.845-2.887,56.364-1.5,6.276-3.623,12.536-5.675,18.591-3.9,11.5-7.933,23.4-7.709,35.609Z" transform="translate(-255.485 -320.188)"/>
            </g>
          </g>
        </g>
        <g id="Grupo_3631" data-name="Grupo 3631" transform="translate(229.552)">
          <g id="Grupo_3626" data-name="Grupo 3626" transform="translate(127.409 78.011)">
            <path id="Trazado_7780" data-name="Trazado 7780" d="M383.14,429.627c-.032.134-.065.269-.1.4l13.8,3.151c2.449-2.057-.669-7.168,1.347-9.649A5.589,5.589,0,0,1,400.907,422c5.927-1.947,13-4.08,14.911-10.017,1.093-3.4.071-7.058-.472-10.586s-.38-7.649,2.335-9.966a15.96,15.96,0,0,1,3.828-2.068,26.656,26.656,0,0,0,15.146-22.708,10.309,10.309,0,0,0-.917-5.258c-1.4-2.623-4.5-4.078-5.657-6.817-1.693-4.018,1.515-8.222,3.607-12.047,2.926-5.352,3.655-12.405.057-17.332-1.11-1.522-2.825-2.853-4.7-2.646-2.613.288-3.957,3.209-4.745,5.717a185.515,185.515,0,0,0-5.576,22.584c-.8,4.408-2.035,9.616-6.229,11.189-1.55.581-3.277.534-4.84,1.077-3.583,1.247-5.456,5.31-5.693,9.1s.747,7.536.958,11.324-.56,7.979-3.486,10.391c-2.233,1.841-5.458,2.42-7.209,4.723-3.21,4.221.809,10.369-.44,15.523-.743,3.067-3.238,5.329-5.337,7.684S383.888,426.562,383.14,429.627Z" transform="translate(-383.042 -322.534)" fill="#004e07"/>
            <g id="Grupo_3625" data-name="Grupo 3625" transform="translate(5.579 6.137)">
              <path id="Trazado_7781" data-name="Trazado 7781" d="M389.075,431.05l-1.139-.06a85.015,85.015,0,0,1,10.09-35.736c2.649-4.888,5.819-9.567,8.885-14.093,3.917-5.783,7.967-11.762,10.926-18.183,5.084-11.036,6.961-23.249,8.776-35.059l1.127.173c-1.827,11.888-3.716,24.182-8.868,35.363-3,6.506-7.075,12.524-11.018,18.346-3.049,4.5-6.2,9.159-8.826,14A83.864,83.864,0,0,0,389.075,431.05Z" transform="translate(-387.936 -327.918)"/>
            </g>
          </g>
          <g id="Grupo_3628" data-name="Grupo 3628" transform="translate(3.469 33.547)">
            <path id="Trazado_7782" data-name="Trazado 7782" d="M344.158,423.249c.042.176.086.351.129.528l-18,4.11c-3.194-2.681.873-9.35-1.758-12.587a7.3,7.3,0,0,0-3.548-2c-7.731-2.54-16.96-5.321-19.453-13.068-1.426-4.433-.092-9.208.617-13.81s.495-9.981-3.047-13a20.813,20.813,0,0,0-4.994-2.7,34.779,34.779,0,0,1-19.76-29.625,13.454,13.454,0,0,1,1.2-6.859c1.824-3.422,5.874-5.32,7.38-8.893,2.208-5.243-1.977-10.726-4.706-15.718-3.818-6.982-4.769-16.185-.075-22.612,1.449-1.986,3.686-3.723,6.13-3.453,3.409.377,5.162,4.187,6.19,7.459a242.115,242.115,0,0,1,7.273,29.465c1.042,5.75,2.656,12.544,8.127,14.6,2.023.759,4.275.7,6.316,1.407,4.674,1.627,7.118,6.927,7.428,11.866s-.976,9.832-1.251,14.773.73,10.408,4.549,13.557c2.913,2.4,7.12,3.157,9.4,6.162,4.188,5.507-1.057,13.528.573,20.252.97,4,4.225,6.953,6.964,10.025S343.182,419.25,344.158,423.249Z" transform="translate(-274.322 -283.531)" fill="#004e07"/>
            <g id="Grupo_3627" data-name="Grupo 3627" transform="translate(6.899 6.733)">
              <path id="Trazado_7783" data-name="Trazado 7783" d="M322.59,437.9c-9.524-10.314-12.245-24.552-14.876-38.323-1.032-5.4-2.1-10.983-3.561-16.239-1.639-5.9-3.9-11.718-6.081-17.345-1.19-3.068-2.421-6.24-3.541-9.395-7.681-21.648-10.974-44.7-14.158-67l1.129-.162c3.176,22.239,6.46,45.235,14.1,66.776,1.114,3.14,2.342,6.3,3.529,9.364,2.192,5.652,4.461,11.5,6.116,17.451,1.475,5.3,2.546,10.907,3.582,16.33,2.6,13.614,5.291,27.69,14.594,37.765Z" transform="translate(-280.374 -289.437)"/>
            </g>
          </g>
          <path id="Trazado_7784" data-name="Trazado 7784" d="M376.439,442.607H308.6a64.3,64.3,0,0,1-23.463-17.1c-1.667-1.932-3.29-4.634-2.055-6.867,1.173-2.123,4.209-2.307,6.517-1.565s4.463,2.135,6.887,2.24a109.069,109.069,0,0,1-17.011-22.074c-3.673-6.293-6.745-13.063-7.812-20.271s.032-14.926,4.122-20.954c1.3-1.908,3.006-3.71,5.243-4.273,2.564-.644,5.234.471,7.509,1.818,6.759,4,11.981,10.168,16.33,16.71,4.026,6.056,7.929,12.973,14.718,15.577a4.03,4.03,0,0,0,2.574.3c1.933-.587,2.222-3.177,2.047-5.19-1.876-21.672-14.073-40.97-20.013-61.9a124.757,124.757,0,0,1-4.511-34.4c.018-6.157.481-12.511,3.259-18.006,4.765-9.424,16.6-14.627,26.764-11.77,7.3,2.053,13.224,7.674,17.039,14.234s5.749,14.031,7.222,21.474a179.613,179.613,0,0,1,3.547,36.862c-.084,7.4-.665,14.927,1.233,22.076.8,3.029,2.869,6.483,5.992,6.2a6.6,6.6,0,0,0,3.3-1.562c3.5-2.685,6.271-6.205,9.574-9.131s7.466-5.334,11.868-5.022a6.425,6.425,0,0,1,5.01,2.528c2.112,3.235-.552,7.37-3.007,10.353-8.475,10.3-16.114,22.174-17.017,35.479-.2,2.978.334,6.6,3.064,7.8,2.684,1.184,5.641-.746,7.954-2.55,7.746-6.043,15.789-11.864,24.805-15.768,4.368-1.892,9.421-3.308,13.808-1.459,5.213,2.2,7.718,8.537,7.054,14.156s-3.828,10.614-7.254,15.117C411.611,421.822,396.723,442.607,376.439,442.607Z" transform="translate(-271.279 -254.103)" fill="#00752e"/>
          <path id="Trazado_7785" data-name="Trazado 7785" d="M422.888,437.961H340.731c-10-8.111-20.245-17.189-23.215-29.715a3.27,3.27,0,0,1,.044-2.269,3.035,3.035,0,0,1,1.736-1.252,12.447,12.447,0,0,1,10.633,1.063,49.018,49.018,0,0,1-5.043-20.415,8.62,8.62,0,0,1,1.1-5.26c2.379-3.358,7.841-2.135,10.876.645s5.033,6.7,8.547,8.843c-.073-24.8-7.031-49.854-1.94-74.13,1.324-6.314,3.556-12.636,7.858-17.443,4.113-4.6,9.816-7.473,15.621-9.56a13.631,13.631,0,0,1,6.5-1.1,11.888,11.888,0,0,1,5.381,2.627c9.859,7.644,13.791,20.741,14.885,33.168a103.416,103.416,0,0,1-1.392,28.2c-1.688,8.947-4.575,18-3.021,26.972.282,1.623,1.066,3.55,2.707,3.7,1.4.124,2.485-1.158,3.255-2.336,3.414-5.234,5.926-11.049,9.723-16.01s9.346-9.147,15.594-9.171a6.446,6.446,0,0,1,4.31,1.289c2.637,2.3,1.4,6.609-.316,9.657-3.934,6.978-9.317,13.012-13.976,19.529s-8.7,13.839-9.319,21.826c-.17,2.178.058,4.673,1.765,6.039,2.386,1.911,5.879.43,8.531-1.092l8.08-4.637c2.751-1.579,5.928-3.211,8.95-2.248,2.986.951,4.713,4.265,4.767,7.4s-1.216,6.123-2.555,8.957C428.13,426.938,426.3,432.657,422.888,437.961Z" transform="translate(-264.831 -249.458)" fill="#00954e"/>
          <g id="Grupo_3630" data-name="Grupo 3630" transform="translate(89.697 71.21)">
            <path id="Trazado_7786" data-name="Trazado 7786" d="M349.97,431.265l-.009.416,14.154.067c1.941-2.54-2.215-6.849-.789-9.71a5.6,5.6,0,0,1,2.32-2.09c5.359-3.192,11.8-6.815,12.369-13.026.326-3.554-1.469-6.9-2.768-10.228s-2.038-7.384.106-10.236a15.965,15.965,0,0,1,3.285-2.853,26.655,26.655,0,0,0,9.831-25.463,10.3,10.3,0,0,0-2.041-4.932c-1.936-2.255-5.284-3-7.006-5.42-2.528-3.552-.313-8.354.894-12.543,1.69-5.862.863-12.9-3.721-16.929-1.417-1.243-3.38-2.168-5.163-1.558-2.486.852-3.161,3.995-3.385,6.614a185.64,185.64,0,0,0-.518,23.257c.181,4.476.109,9.828-3.641,12.278-1.386.905-3.081,1.235-4.489,2.107-3.224,2-4.167,6.371-3.574,10.119s2.372,7.192,3.4,10.842,1.194,7.908-1.138,10.9c-1.778,2.283-4.8,3.551-6.007,6.181-2.212,4.82,3.052,9.943,2.955,15.246-.057,3.154-2,5.906-3.534,8.662S350.031,428.111,349.97,431.265Z" transform="translate(-349.961 -316.568)" fill="#004e07"/>
            <g id="Grupo_3629" data-name="Grupo 3629" transform="translate(7.075 4.127)">
              <path id="Trazado_7787" data-name="Trazado 7787" d="M356.176,430.772c-.228-12.411,3.837-24.4,7.768-36,2.044-6.029,4.159-12.264,5.645-18.488,4.389-18.365,3.609-37.524,2.857-56.052l1.139-.047c.756,18.606,1.538,37.845-2.886,56.364-1.5,6.276-3.623,12.536-5.675,18.591-3.9,11.5-7.932,23.4-7.707,35.609Z" transform="translate(-356.167 -320.188)"/>
            </g>
          </g>
        </g>
      </g>
      <path id="Trazado_7788" data-name="Trazado 7788" d="M509.422,61.721s-.031-5.27-4.567-7.737c-2.785-1.513-6.426-.255-8.589,2.062s-3.189,5.445-4.13,8.472q-.836-7.425-2.125-14.788c-1.184-6.774-3.272-14.35-9.368-17.53-5.209-2.717-11.957-1.053-16.278,2.928s-6.508,9.828-7.331,15.645a12.832,12.832,0,0,0-22.491.1c-1.875,3.447-2.074,7.568-1.684,11.473.885,8.866,4.805,18.54,11.308,24.815a11.088,11.088,0,0,0,4.382,2.5c5.934,1.906,25.274,1.025,60.873,1.025Z" transform="translate(60.581 -12.4)" fill="#00b66f"/>
      <g id="Grupo_3633" data-name="Grupo 3633" transform="translate(0 27.534)">
        <path id="Trazado_7789" data-name="Trazado 7789" d="M-.006,62.311c.9-4.665,5.03-8.9,9.775-8.672a7.5,7.5,0,0,1,6.7,7.818,37.628,37.628,0,0,1,25.722-22.03c4.78-1.119,10.542-.956,13.68,2.818A12.357,12.357,0,0,1,58.283,49.6,25.27,25.27,0,0,1,52.46,66.86c3.159-3.446,6.572-6.71,10.707-8.855,4.728-2.452,10.6-3.247,15.366-.862,6.139,3.075,8.914,11.1,6.848,17.644s-7.351,13.4-14.073,14.789H-.006Z" transform="translate(0.006 -38.821)" fill="#00b66f"/>
      </g>
    </g>
    <g id="Grupo_3635" data-name="Grupo 3635" transform="translate(-543.003 -2101.697)">
      <path id="Trazado_7759-2" data-name="Trazado 7759" d="M435.043,36.249a67.493,67.493,0,0,0-26.8-17.069A80.458,80.458,0,0,0,300.921,91.39c-.409,9.144.736,18.392-.832,27.409s-6.661,18.217-15.308,21.215c-11.871,4.114-23.834-4.673-34.567-11.2a110.814,110.814,0,0,0-88.361-11.28c-23.461,7.069-45.106,23.233-54.107,46.023s-2.625,52.038,17.793,65.586c4.588,3.044,10.038,5.6,12.347,10.6,4.777,10.337-6.949,20.278-16.824,25.951C91.983,282.4,63.3,302.766,47.523,332.358S32.739,402.773,57.779,425.08c13.127,11.7,30.768,16.871,48.064,20.024,18.024,3.285,36.76,4.721,54.55.336,19.014-4.686,35.895-15.777,50.618-28.69,9.443-8.282,18.272-17.459,29.086-23.848s24.327-9.7,36.028-5.133c9.25,3.61,16.015,11.488,23.6,17.9a87.384,87.384,0,0,0,130.608-20.579c15.524-24.958,18.4-57.476,38.9-78.532,5.776-5.931,12.719-10.654,18.327-16.746,12.763-13.866,17.359-33.426,18.567-52.233,1.237-19.254-.906-39.232-8.251-57.19-8.27-20.219-24.033-28.862-36.563-45.269-9.338-12.228-6.422-25.895-6.835-40.366C453.885,73.9,449.768,52,435.043,36.249Z" transform="translate(5.194 -14.668)" fill="#00b871"/>
      <path id="Trazado_7760-2" data-name="Trazado 7760" d="M289.816,193.715c6.352,2.041,15.157.61,21.386.61h37.341c19.163,0,39.342,1.841,58.4.008,13.3-1.279,25.523-10.5,27.888-24.191.594-3.439.427-7.336-1.91-9.927-3.728-4.134-10.451-2.73-15.625-.681-8.337,3.3-17.467,9.058-17.893,18.015l6.638-20.165c1.54-4.677,3.1-9.5,2.761-14.414s-3.041-10-7.682-11.647c-5.673-2.017-11.865,1.7-15.733,6.31-7.832,9.338-9.991,22.035-11.863,34.077.181-3.365.351-6.826-.728-10.018s-3.719-6.1-7.069-6.447c-3.488-.366-6.77,2.139-8.417,5.236s-2,6.694-2.326,10.187c-1.264-5.382-.033-12.513-4.889-15.153-2.982-1.62-6.88-.274-9.2,2.208s-3.413,5.829-4.422,9.07q-.9-7.948-2.274-15.832c-1.269-7.251-3.5-15.363-10.03-18.768-5.577-2.908-12.8-1.126-17.429,3.135s-6.966,10.522-7.848,16.75a13.738,13.738,0,0,0-24.079.106c-2.009,3.691-2.221,8.1-1.8,12.283.947,9.492,5.145,19.848,12.107,26.568A11.844,11.844,0,0,0,289.816,193.715Z" transform="translate(38.203 1.585)" fill="#00b66f"/>
      <path id="Trazado_7761-2" data-name="Trazado 7761" d="M88.376,243.672c3.45,1.2,8.233.358,11.617.358h20.283c10.408,0,21.369,1.08,31.723,0a17.071,17.071,0,0,0,15.148-14.187c.323-2.018.233-4.3-1.037-5.823-2.025-2.424-5.677-1.6-8.487-.4-4.528,1.936-9.487,5.312-9.718,10.565q1.8-5.913,3.606-11.826c.836-2.744,1.684-5.572,1.5-8.454s-1.652-5.864-4.172-6.832c-3.081-1.182-6.444,1-8.547,3.7-4.253,5.477-5.426,12.923-6.443,19.985a16.872,16.872,0,0,0-.4-5.876c-.586-1.873-2.02-3.575-3.839-3.78-1.895-.215-3.678,1.254-4.571,3.07a16.723,16.723,0,0,0-1.264,5.975c-.686-3.157-.017-7.338-2.655-8.886-1.62-.951-3.737-.161-4.994,1.294a13.809,13.809,0,0,0-2.4,5.32q-.487-4.663-1.236-9.285c-.69-4.253-1.9-9.011-5.448-11.007-3.029-1.707-6.954-.662-9.466,1.838s-3.785,6.171-4.264,9.823a7.208,7.208,0,0,0-13.079.063,13.364,13.364,0,0,0-.979,7.2c.514,5.567,2.794,11.642,6.575,15.581A6.344,6.344,0,0,0,88.376,243.672Z" transform="translate(11.088 12.223)" fill="#00b66f"/>
      <path id="Trazado_7762-2" data-name="Trazado 7762" d="M525.9,301.82c-9.959,9.96-20.871,16.208-32.433,22.1,6.727-10.078,13.713-20.98,13.576-33.1s-11.025-24.786-22.793-21.9c-9.053,2.218-14.419,12.136-23.274,15.04-4.439-14.423,1.068-29.747,3.479-44.643s-.237-33.355-13.924-39.709c-8.528-3.958-18.754-1.7-27.083,2.661-21.636,11.333-34.338,35.588-36.94,59.872s3.57,48.685,11.875,71.652c-19.547-12.588-44.077-25.534-64.707-14.814-17.658,9.175-23.469,32.848-18.389,52.087,4.926,18.659,17.6,34.1,30.168,48.805H525.9Z" transform="translate(43.898 10.936)" fill="#009750"/>
      <path id="Trazado_7763-2" data-name="Trazado 7763" d="M130.131,312.707c-31.059-20.1-76.315-14.219-101.2,13.154,5.844-8.753,11.912-18.224,11.793-28.748s-9.576-25.581-19.8-23.076C13.059,275.964,7.414,285.3.706,291.152V409.208H157.038C171.817,375.291,161.19,332.808,130.131,312.707Z" transform="translate(0.106 21.604)" fill="#009750"/>
      <g id="Grupo_3632-2" data-name="Grupo 3632" transform="translate(79.711 272.954)">
        <g id="Grupo_3617-2" data-name="Grupo 3617">
          <g id="Grupo_3612-2" data-name="Grupo 3612" transform="translate(127.409 78.011)">
            <path id="Trazado_7764-2" data-name="Trazado 7764" d="M181.777,429.627c-.032.134-.065.269-.1.4l13.8,3.151c2.448-2.057-.67-7.168,1.346-9.649A5.6,5.6,0,0,1,199.544,422c5.927-1.947,13-4.08,14.911-10.017,1.093-3.4.071-7.058-.472-10.586s-.38-7.649,2.336-9.966a15.932,15.932,0,0,1,3.827-2.068,26.656,26.656,0,0,0,15.146-22.708,10.309,10.309,0,0,0-.917-5.258c-1.4-2.623-4.5-4.078-5.657-6.817-1.693-4.018,1.515-8.222,3.607-12.047,2.926-5.352,3.655-12.405.058-17.332-1.111-1.522-2.826-2.853-4.7-2.646-2.613.288-3.957,3.209-4.745,5.717a185.532,185.532,0,0,0-5.576,22.584c-.8,4.408-2.035,9.616-6.229,11.189-1.55.581-3.277.534-4.84,1.077-3.583,1.247-5.456,5.31-5.693,9.1s.747,7.536.958,11.324-.56,7.979-3.486,10.391c-2.233,1.841-5.458,2.42-7.209,4.723-3.21,4.221.809,10.369-.44,15.523-.743,3.067-3.238,5.329-5.337,7.684S182.525,426.562,181.777,429.627Z" transform="translate(-181.679 -322.534)" fill="#004e07"/>
            <g id="Grupo_3611-2" data-name="Grupo 3611" transform="translate(5.579 6.137)">
              <path id="Trazado_7765-2" data-name="Trazado 7765" d="M187.712,431.05l-1.139-.06a85.032,85.032,0,0,1,10.09-35.736c2.649-4.888,5.819-9.567,8.885-14.093,3.917-5.783,7.967-11.762,10.926-18.183,5.084-11.036,6.961-23.249,8.776-35.059l1.127.173c-1.827,11.888-3.716,24.182-8.868,35.363-3,6.506-7.075,12.524-11.018,18.346-3.049,4.5-6.2,9.159-8.826,14A83.864,83.864,0,0,0,187.712,431.05Z" transform="translate(-186.573 -327.918)"/>
            </g>
          </g>
          <g id="Grupo_3614-2" data-name="Grupo 3614" transform="translate(3.469 33.547)">
            <path id="Trazado_7766-2" data-name="Trazado 7766" d="M142.795,423.249c.043.176.086.351.129.528l-18,4.11c-3.194-2.681.873-9.35-1.757-12.587a7.306,7.306,0,0,0-3.549-2c-7.731-2.54-16.959-5.321-19.452-13.068-1.427-4.433-.093-9.208.616-13.81s.495-9.981-3.047-13a20.813,20.813,0,0,0-4.994-2.7,34.779,34.779,0,0,1-19.76-29.625,13.454,13.454,0,0,1,1.2-6.859c1.824-3.422,5.874-5.32,7.38-8.893,2.208-5.243-1.977-10.726-4.706-15.718-3.818-6.982-4.769-16.185-.075-22.612,1.449-1.986,3.686-3.723,6.13-3.453,3.409.377,5.162,4.187,6.19,7.459a241.909,241.909,0,0,1,7.273,29.465c1.042,5.75,2.656,12.544,8.127,14.6,2.023.759,4.276.7,6.316,1.407,4.674,1.627,7.118,6.927,7.428,11.866s-.976,9.832-1.249,14.773.728,10.408,4.547,13.557c2.914,2.4,7.12,3.157,9.406,6.162,4.187,5.507-1.058,13.528.573,20.252.969,4,4.224,6.953,6.963,10.025S141.82,419.25,142.795,423.249Z" transform="translate(-72.959 -283.531)" fill="#004e07"/>
            <g id="Grupo_3613-2" data-name="Grupo 3613" transform="translate(6.899 6.733)">
              <path id="Trazado_7767-2" data-name="Trazado 7767" d="M121.227,437.9c-9.523-10.314-12.245-24.552-14.876-38.323-1.032-5.4-2.1-10.983-3.561-16.239-1.639-5.9-3.9-11.718-6.081-17.345-1.19-3.068-2.421-6.24-3.54-9.395-7.682-21.648-10.975-44.7-14.159-67l1.129-.162c3.176,22.239,6.46,45.235,14.1,66.776,1.114,3.14,2.342,6.3,3.529,9.364,2.192,5.652,4.461,11.5,6.116,17.451,1.475,5.3,2.546,10.907,3.582,16.33,2.6,13.614,5.292,27.69,14.594,37.765Z" transform="translate(-79.011 -289.437)"/>
            </g>
          </g>
          <path id="Trazado_7768-2" data-name="Trazado 7768" d="M175.076,442.607h-67.84a64.3,64.3,0,0,1-23.463-17.1c-1.667-1.932-3.29-4.634-2.055-6.867,1.173-2.123,4.209-2.307,6.518-1.565s4.463,2.135,6.886,2.24A109.11,109.11,0,0,1,78.11,397.237c-3.673-6.293-6.745-13.063-7.811-20.271s.031-14.926,4.122-20.954c1.294-1.908,3.005-3.71,5.242-4.273,2.565-.644,5.234.471,7.509,1.818,6.759,4,11.981,10.168,16.33,16.71,4.026,6.056,7.929,12.973,14.718,15.577a4.03,4.03,0,0,0,2.574.3c1.933-.587,2.222-3.177,2.049-5.19-1.878-21.672-14.073-40.97-20.014-61.9a124.757,124.757,0,0,1-4.511-34.4c.018-6.157.481-12.511,3.259-18.006,4.765-9.424,16.6-14.627,26.764-11.77,7.3,2.053,13.224,7.674,17.039,14.234s5.75,14.031,7.222,21.474a179.611,179.611,0,0,1,3.547,36.862c-.084,7.4-.663,14.927,1.235,22.076.8,3.029,2.868,6.483,5.991,6.2a6.6,6.6,0,0,0,3.3-1.562c3.5-2.685,6.27-6.205,9.573-9.131s7.466-5.334,11.868-5.022a6.427,6.427,0,0,1,5.011,2.528c2.111,3.235-.553,7.37-3.008,10.353C181.643,363.2,174,375.077,173.1,388.382c-.2,2.978.334,6.6,3.064,7.8,2.684,1.184,5.641-.746,7.954-2.55,7.746-6.043,15.789-11.864,24.805-15.768,4.368-1.892,9.421-3.308,13.808-1.459,5.213,2.2,7.718,8.537,7.054,14.156s-3.828,10.614-7.254,15.117C210.248,421.822,195.36,442.607,175.076,442.607Z" transform="translate(-69.916 -254.103)" fill="#00752e"/>
          <path id="Trazado_7769-2" data-name="Trazado 7769" d="M221.525,437.961H139.368c-10-8.111-20.245-17.189-23.215-29.715a3.269,3.269,0,0,1,.044-2.269,3.035,3.035,0,0,1,1.736-1.252,12.447,12.447,0,0,1,10.633,1.063,49.019,49.019,0,0,1-5.043-20.415,8.62,8.62,0,0,1,1.1-5.26c2.379-3.358,7.841-2.135,10.876.645s5.033,6.7,8.547,8.843c-.073-24.8-7.031-49.854-1.94-74.13,1.324-6.314,3.556-12.636,7.858-17.443,4.113-4.6,9.816-7.473,15.621-9.56a13.632,13.632,0,0,1,6.5-1.1,11.888,11.888,0,0,1,5.381,2.627c9.859,7.644,13.79,20.741,14.885,33.168a103.416,103.416,0,0,1-1.392,28.2c-1.688,8.947-4.575,18-3.021,26.972.282,1.623,1.066,3.55,2.707,3.7,1.4.124,2.486-1.158,3.255-2.336,3.414-5.234,5.926-11.049,9.723-16.01s9.346-9.147,15.594-9.171a6.446,6.446,0,0,1,4.31,1.289c2.637,2.3,1.4,6.609-.316,9.657-3.934,6.978-9.317,13.012-13.976,19.529s-8.7,13.839-9.319,21.826c-.17,2.178.058,4.673,1.765,6.039,2.386,1.911,5.879.43,8.531-1.092l8.08-4.637c2.752-1.579,5.928-3.211,8.95-2.248,2.986.951,4.713,4.265,4.767,7.4s-1.216,6.123-2.555,8.957C226.768,426.938,224.941,432.657,221.525,437.961Z" transform="translate(-63.469 -249.458)" fill="#00954e"/>
          <g id="Grupo_3616-2" data-name="Grupo 3616" transform="translate(89.698 71.21)">
            <path id="Trazado_7770-2" data-name="Trazado 7770" d="M148.607,431.265l-.008.416,14.154.067c1.94-2.54-2.216-6.849-.789-9.71a5.6,5.6,0,0,1,2.319-2.09c5.359-3.192,11.8-6.815,12.369-13.026.326-3.554-1.469-6.9-2.768-10.228s-2.038-7.384.106-10.236a15.966,15.966,0,0,1,3.285-2.853,26.655,26.655,0,0,0,9.831-25.463,10.3,10.3,0,0,0-2.041-4.932c-1.936-2.255-5.284-3-7.006-5.42-2.529-3.552-.313-8.354.894-12.543,1.689-5.862.863-12.9-3.721-16.929-1.417-1.243-3.38-2.168-5.163-1.558-2.486.852-3.161,3.995-3.385,6.614a185.64,185.64,0,0,0-.518,23.257c.181,4.476.109,9.828-3.641,12.278-1.386.905-3.081,1.235-4.489,2.107-3.224,2-4.167,6.371-3.573,10.119s2.371,7.192,3.4,10.842,1.194,7.908-1.138,10.9c-1.777,2.283-4.8,3.551-6.005,6.181-2.213,4.82,3.051,9.943,2.954,15.246-.057,3.154-2,5.906-3.534,8.662S148.667,428.111,148.607,431.265Z" transform="translate(-148.599 -316.568)" fill="#004e07"/>
            <g id="Grupo_3615-2" data-name="Grupo 3615" transform="translate(7.074 4.127)">
              <path id="Trazado_7771-2" data-name="Trazado 7771" d="M154.813,430.772c-.228-12.411,3.837-24.4,7.768-36,2.044-6.029,4.159-12.264,5.645-18.488,4.389-18.365,3.609-37.524,2.857-56.052l1.139-.047c.756,18.606,1.538,37.845-2.886,56.364-1.5,6.276-3.623,12.536-5.675,18.591-3.9,11.5-7.932,23.4-7.707,35.609Z" transform="translate(-154.804 -320.188)"/>
            </g>
          </g>
        </g>
        <g id="Grupo_3624-2" data-name="Grupo 3624" transform="translate(114.776)">
          <g id="Grupo_3619-2" data-name="Grupo 3619" transform="translate(127.408 78.011)">
            <path id="Trazado_7772-2" data-name="Trazado 7772" d="M282.459,429.627l-.1.4,13.8,3.151c2.449-2.057-.669-7.168,1.346-9.649a5.593,5.593,0,0,1,2.72-1.533c5.926-1.947,13-4.08,14.91-10.017,1.093-3.4.071-7.058-.472-10.586s-.38-7.649,2.336-9.966a15.918,15.918,0,0,1,3.828-2.068,26.657,26.657,0,0,0,15.145-22.708,10.3,10.3,0,0,0-.917-5.258c-1.4-2.623-4.5-4.078-5.657-6.817-1.693-4.018,1.515-8.222,3.607-12.047,2.926-5.352,3.655-12.405.058-17.332-1.112-1.522-2.825-2.853-4.7-2.646-2.613.288-3.957,3.209-4.746,5.717a185.725,185.725,0,0,0-5.575,22.584c-.8,4.408-2.036,9.616-6.23,11.189-1.55.581-3.276.534-4.84,1.077-3.583,1.247-5.456,5.31-5.693,9.1s.748,7.536.958,11.324-.559,7.979-3.486,10.391c-2.233,1.841-5.457,2.42-7.209,4.723-3.209,4.221.811,10.369-.439,15.523-.743,3.067-3.239,5.329-5.339,7.684S283.207,426.562,282.459,429.627Z" transform="translate(-282.36 -322.534)" fill="#004e07"/>
            <g id="Grupo_3618-2" data-name="Grupo 3618" transform="translate(5.579 6.137)">
              <path id="Trazado_7773-2" data-name="Trazado 7773" d="M288.393,431.05l-1.139-.06a85.049,85.049,0,0,1,10.09-35.736c2.649-4.888,5.82-9.567,8.885-14.093,3.917-5.783,7.967-11.762,10.926-18.183,5.086-11.036,6.962-23.249,8.777-35.059l1.126.173c-1.826,11.888-3.715,24.182-8.868,35.363-3,6.506-7.074,12.524-11.017,18.346-3.051,4.5-6.2,9.159-8.827,14A83.9,83.9,0,0,0,288.393,431.05Z" transform="translate(-287.254 -327.918)"/>
            </g>
          </g>
          <g id="Grupo_3621-2" data-name="Grupo 3621" transform="translate(3.468 33.547)">
            <path id="Trazado_7774-2" data-name="Trazado 7774" d="M243.476,423.249c.043.176.087.351.129.528l-18,4.11c-3.194-2.681.874-9.35-1.757-12.587a7.3,7.3,0,0,0-3.548-2c-7.731-2.54-16.96-5.321-19.453-13.068-1.426-4.433-.092-9.208.616-13.81s.495-9.981-3.047-13a20.813,20.813,0,0,0-4.994-2.7,34.782,34.782,0,0,1-19.76-29.625,13.454,13.454,0,0,1,1.2-6.859c1.824-3.422,5.876-5.32,7.38-8.893,2.208-5.243-1.977-10.726-4.706-15.718-3.818-6.982-4.767-16.185-.075-22.612,1.45-1.986,3.686-3.723,6.13-3.453,3.409.377,5.162,4.187,6.191,7.459a242.335,242.335,0,0,1,7.273,29.465c1.042,5.75,2.655,12.544,8.127,14.6,2.022.759,4.275.7,6.316,1.407,4.674,1.627,7.117,6.927,7.427,11.866s-.975,9.832-1.249,14.773.73,10.408,4.547,13.557c2.914,2.4,7.12,3.157,9.406,6.162,4.187,5.507-1.057,13.528.573,20.252.97,4,4.225,6.953,6.964,10.025S242.5,419.25,243.476,423.249Z" transform="translate(-173.64 -283.531)" fill="#004e07"/>
            <g id="Grupo_3620-2" data-name="Grupo 3620" transform="translate(6.899 6.733)">
              <path id="Trazado_7775-2" data-name="Trazado 7775" d="M221.909,437.9c-9.525-10.314-12.245-24.552-14.877-38.323-1.031-5.4-2.1-10.983-3.56-16.239-1.64-5.9-3.9-11.718-6.082-17.345-1.19-3.068-2.42-6.24-3.54-9.395-7.681-21.648-10.975-44.7-14.159-67l1.13-.162c3.176,22.239,6.46,45.235,14.1,66.776,1.114,3.14,2.343,6.3,3.529,9.364,2.193,5.652,4.462,11.5,6.117,17.451,1.474,5.3,2.546,10.907,3.582,16.33,2.6,13.614,5.291,27.69,14.593,37.765Z" transform="translate(-179.692 -289.437)"/>
            </g>
          </g>
          <path id="Trazado_7776-2" data-name="Trazado 7776" d="M275.757,442.607h-67.84a64.3,64.3,0,0,1-23.463-17.1c-1.666-1.932-3.29-4.634-2.055-6.867,1.174-2.123,4.209-2.307,6.518-1.565s4.463,2.135,6.887,2.24a109.074,109.074,0,0,1-17.012-22.074c-3.673-6.293-6.745-13.063-7.811-20.271s.031-14.926,4.122-20.954c1.3-1.908,3.006-3.71,5.243-4.273,2.564-.644,5.233.471,7.508,1.818,6.759,4,11.982,10.168,16.332,16.71,4.026,6.056,7.929,12.973,14.718,15.577a4.027,4.027,0,0,0,2.573.3c1.933-.587,2.223-3.177,2.049-5.19-1.876-21.672-14.073-40.97-20.014-61.9a124.713,124.713,0,0,1-4.51-34.4c.017-6.157.481-12.511,3.259-18.006,4.764-9.424,16.6-14.627,26.762-11.77,7.305,2.053,13.225,7.674,17.039,14.234s5.75,14.031,7.223,21.474a179.612,179.612,0,0,1,3.545,36.862c-.084,7.4-.663,14.927,1.235,22.076.8,3.029,2.869,6.483,5.991,6.2a6.6,6.6,0,0,0,3.3-1.562c3.5-2.685,6.27-6.205,9.574-9.131s7.466-5.334,11.867-5.022a6.427,6.427,0,0,1,5.011,2.528c2.111,3.235-.552,7.37-3.007,10.353-8.476,10.3-16.114,22.174-17.017,35.479-.2,2.978.333,6.6,3.063,7.8,2.684,1.184,5.642-.746,7.954-2.55,7.747-6.043,15.79-11.864,24.805-15.768,4.37-1.892,9.421-3.308,13.808-1.459,5.214,2.2,7.718,8.537,7.054,14.156s-3.827,10.614-7.254,15.117C310.929,421.822,296.041,442.607,275.757,442.607Z" transform="translate(-170.598 -254.103)" fill="#00752e"/>
          <path id="Trazado_7777-2" data-name="Trazado 7777" d="M322.206,437.961H240.05c-10-8.111-20.246-17.189-23.215-29.715a3.263,3.263,0,0,1,.044-2.269,3.031,3.031,0,0,1,1.736-1.252,12.444,12.444,0,0,1,10.632,1.063,49,49,0,0,1-5.042-20.415,8.62,8.62,0,0,1,1.1-5.26c2.379-3.358,7.841-2.135,10.876.645s5.032,6.7,8.545,8.843c-.072-24.8-7.03-49.854-1.94-74.13,1.324-6.314,3.556-12.636,7.858-17.443,4.114-4.6,9.817-7.473,15.621-9.56a13.636,13.636,0,0,1,6.5-1.1,11.876,11.876,0,0,1,5.381,2.627c9.859,7.644,13.792,20.741,14.886,33.168a103.417,103.417,0,0,1-1.393,28.2c-1.688,8.947-4.574,18-3.021,26.972.282,1.623,1.066,3.55,2.707,3.7,1.4.124,2.486-1.158,3.255-2.336,3.415-5.234,5.926-11.049,9.723-16.01s9.346-9.147,15.594-9.171a6.451,6.451,0,0,1,4.311,1.289c2.636,2.3,1.4,6.609-.317,9.657-3.934,6.978-9.317,13.012-13.975,19.529s-8.7,13.839-9.319,21.826c-.17,2.178.058,4.673,1.765,6.039,2.386,1.911,5.879.43,8.529-1.092l8.081-4.637c2.751-1.579,5.927-3.211,8.949-2.248,2.986.951,4.714,4.265,4.767,7.4s-1.216,6.123-2.555,8.957C327.449,426.938,325.623,432.657,322.206,437.961Z" transform="translate(-164.15 -249.458)" fill="#00954e"/>
          <g id="Grupo_3623-2" data-name="Grupo 3623" transform="translate(89.697 71.21)">
            <path id="Trazado_7778-2" data-name="Trazado 7778" d="M249.288,431.265l-.008.416,14.154.067c1.941-2.54-2.216-6.849-.789-9.71a5.591,5.591,0,0,1,2.32-2.09c5.359-3.192,11.8-6.815,12.368-13.026.327-3.554-1.469-6.9-2.768-10.228s-2.037-7.384.107-10.236a15.908,15.908,0,0,1,3.285-2.853,26.657,26.657,0,0,0,9.831-25.463,10.315,10.315,0,0,0-2.041-4.932c-1.937-2.255-5.284-3-7.008-5.42-2.527-3.552-.312-8.354.895-12.543,1.689-5.862.862-12.9-3.722-16.929-1.416-1.243-3.379-2.168-5.162-1.558-2.487.852-3.162,3.995-3.386,6.614a185.855,185.855,0,0,0-.518,23.257c.181,4.476.109,9.828-3.64,12.278-1.386.905-3.083,1.235-4.489,2.107-3.225,2-4.168,6.371-3.574,10.119s2.372,7.192,3.4,10.842,1.194,7.908-1.137,10.9c-1.778,2.283-4.8,3.551-6.007,6.181-2.213,4.82,3.051,9.943,2.955,15.246-.057,3.154-2,5.906-3.534,8.662S249.35,428.111,249.288,431.265Z" transform="translate(-249.28 -316.568)" fill="#004e07"/>
            <g id="Grupo_3622-2" data-name="Grupo 3622" transform="translate(7.074 4.127)">
              <path id="Trazado_7779-2" data-name="Trazado 7779" d="M255.494,430.772c-.228-12.411,3.837-24.4,7.768-36,2.045-6.029,4.159-12.264,5.646-18.488,4.388-18.365,3.609-37.524,2.857-56.052l1.139-.047c.756,18.606,1.538,37.845-2.887,56.364-1.5,6.276-3.623,12.536-5.675,18.591-3.9,11.5-7.933,23.4-7.709,35.609Z" transform="translate(-255.485 -320.188)"/>
            </g>
          </g>
        </g>
        <g id="Grupo_3631-2" data-name="Grupo 3631" transform="translate(229.552)">
          <g id="Grupo_3626-2" data-name="Grupo 3626" transform="translate(127.409 78.011)">
            <path id="Trazado_7780-2" data-name="Trazado 7780" d="M383.14,429.627c-.032.134-.065.269-.1.4l13.8,3.151c2.449-2.057-.669-7.168,1.347-9.649A5.589,5.589,0,0,1,400.907,422c5.927-1.947,13-4.08,14.911-10.017,1.093-3.4.071-7.058-.472-10.586s-.38-7.649,2.335-9.966a15.96,15.96,0,0,1,3.828-2.068,26.656,26.656,0,0,0,15.146-22.708,10.309,10.309,0,0,0-.917-5.258c-1.4-2.623-4.5-4.078-5.657-6.817-1.693-4.018,1.515-8.222,3.607-12.047,2.926-5.352,3.655-12.405.057-17.332-1.11-1.522-2.825-2.853-4.7-2.646-2.613.288-3.957,3.209-4.745,5.717a185.515,185.515,0,0,0-5.576,22.584c-.8,4.408-2.035,9.616-6.229,11.189-1.55.581-3.277.534-4.84,1.077-3.583,1.247-5.456,5.31-5.693,9.1s.747,7.536.958,11.324-.56,7.979-3.486,10.391c-2.233,1.841-5.458,2.42-7.209,4.723-3.21,4.221.809,10.369-.44,15.523-.743,3.067-3.238,5.329-5.337,7.684S383.888,426.562,383.14,429.627Z" transform="translate(-383.042 -322.534)" fill="#004e07"/>
            <g id="Grupo_3625-2" data-name="Grupo 3625" transform="translate(5.579 6.137)">
              <path id="Trazado_7781-2" data-name="Trazado 7781" d="M389.075,431.05l-1.139-.06a85.015,85.015,0,0,1,10.09-35.736c2.649-4.888,5.819-9.567,8.885-14.093,3.917-5.783,7.967-11.762,10.926-18.183,5.084-11.036,6.961-23.249,8.776-35.059l1.127.173c-1.827,11.888-3.716,24.182-8.868,35.363-3,6.506-7.075,12.524-11.018,18.346-3.049,4.5-6.2,9.159-8.826,14A83.864,83.864,0,0,0,389.075,431.05Z" transform="translate(-387.936 -327.918)"/>
            </g>
          </g>
          <g id="Grupo_3628-2" data-name="Grupo 3628" transform="translate(3.469 33.547)">
            <path id="Trazado_7782-2" data-name="Trazado 7782" d="M344.158,423.249c.042.176.086.351.129.528l-18,4.11c-3.194-2.681.873-9.35-1.758-12.587a7.3,7.3,0,0,0-3.548-2c-7.731-2.54-16.96-5.321-19.453-13.068-1.426-4.433-.092-9.208.617-13.81s.495-9.981-3.047-13a20.813,20.813,0,0,0-4.994-2.7,34.779,34.779,0,0,1-19.76-29.625,13.454,13.454,0,0,1,1.2-6.859c1.824-3.422,5.874-5.32,7.38-8.893,2.208-5.243-1.977-10.726-4.706-15.718-3.818-6.982-4.769-16.185-.075-22.612,1.449-1.986,3.686-3.723,6.13-3.453,3.409.377,5.162,4.187,6.19,7.459a242.115,242.115,0,0,1,7.273,29.465c1.042,5.75,2.656,12.544,8.127,14.6,2.023.759,4.275.7,6.316,1.407,4.674,1.627,7.118,6.927,7.428,11.866s-.976,9.832-1.251,14.773.73,10.408,4.549,13.557c2.913,2.4,7.12,3.157,9.4,6.162,4.188,5.507-1.057,13.528.573,20.252.97,4,4.225,6.953,6.964,10.025S343.182,419.25,344.158,423.249Z" transform="translate(-274.322 -283.531)" fill="#004e07"/>
            <g id="Grupo_3627-2" data-name="Grupo 3627" transform="translate(6.899 6.733)">
              <path id="Trazado_7783-2" data-name="Trazado 7783" d="M322.59,437.9c-9.524-10.314-12.245-24.552-14.876-38.323-1.032-5.4-2.1-10.983-3.561-16.239-1.639-5.9-3.9-11.718-6.081-17.345-1.19-3.068-2.421-6.24-3.541-9.395-7.681-21.648-10.974-44.7-14.158-67l1.129-.162c3.176,22.239,6.46,45.235,14.1,66.776,1.114,3.14,2.342,6.3,3.529,9.364,2.192,5.652,4.461,11.5,6.116,17.451,1.475,5.3,2.546,10.907,3.582,16.33,2.6,13.614,5.291,27.69,14.594,37.765Z" transform="translate(-280.374 -289.437)"/>
            </g>
          </g>
          <path id="Trazado_7784-2" data-name="Trazado 7784" d="M376.439,442.607H308.6a64.3,64.3,0,0,1-23.463-17.1c-1.667-1.932-3.29-4.634-2.055-6.867,1.173-2.123,4.209-2.307,6.517-1.565s4.463,2.135,6.887,2.24a109.069,109.069,0,0,1-17.011-22.074c-3.673-6.293-6.745-13.063-7.812-20.271s.032-14.926,4.122-20.954c1.3-1.908,3.006-3.71,5.243-4.273,2.564-.644,5.234.471,7.509,1.818,6.759,4,11.981,10.168,16.33,16.71,4.026,6.056,7.929,12.973,14.718,15.577a4.03,4.03,0,0,0,2.574.3c1.933-.587,2.222-3.177,2.047-5.19-1.876-21.672-14.073-40.97-20.013-61.9a124.757,124.757,0,0,1-4.511-34.4c.018-6.157.481-12.511,3.259-18.006,4.765-9.424,16.6-14.627,26.764-11.77,7.3,2.053,13.224,7.674,17.039,14.234s5.749,14.031,7.222,21.474a179.613,179.613,0,0,1,3.547,36.862c-.084,7.4-.665,14.927,1.233,22.076.8,3.029,2.869,6.483,5.992,6.2a6.6,6.6,0,0,0,3.3-1.562c3.5-2.685,6.271-6.205,9.574-9.131s7.466-5.334,11.868-5.022a6.425,6.425,0,0,1,5.01,2.528c2.112,3.235-.552,7.37-3.007,10.353-8.475,10.3-16.114,22.174-17.017,35.479-.2,2.978.334,6.6,3.064,7.8,2.684,1.184,5.641-.746,7.954-2.55,7.746-6.043,15.789-11.864,24.805-15.768,4.368-1.892,9.421-3.308,13.808-1.459,5.213,2.2,7.718,8.537,7.054,14.156s-3.828,10.614-7.254,15.117C411.611,421.822,396.723,442.607,376.439,442.607Z" transform="translate(-271.279 -254.103)" fill="#00752e"/>
          <path id="Trazado_7785-2" data-name="Trazado 7785" d="M422.888,437.961H340.731c-10-8.111-20.245-17.189-23.215-29.715a3.27,3.27,0,0,1,.044-2.269,3.035,3.035,0,0,1,1.736-1.252,12.447,12.447,0,0,1,10.633,1.063,49.018,49.018,0,0,1-5.043-20.415,8.62,8.62,0,0,1,1.1-5.26c2.379-3.358,7.841-2.135,10.876.645s5.033,6.7,8.547,8.843c-.073-24.8-7.031-49.854-1.94-74.13,1.324-6.314,3.556-12.636,7.858-17.443,4.113-4.6,9.816-7.473,15.621-9.56a13.631,13.631,0,0,1,6.5-1.1,11.888,11.888,0,0,1,5.381,2.627c9.859,7.644,13.791,20.741,14.885,33.168a103.416,103.416,0,0,1-1.392,28.2c-1.688,8.947-4.575,18-3.021,26.972.282,1.623,1.066,3.55,2.707,3.7,1.4.124,2.485-1.158,3.255-2.336,3.414-5.234,5.926-11.049,9.723-16.01s9.346-9.147,15.594-9.171a6.446,6.446,0,0,1,4.31,1.289c2.637,2.3,1.4,6.609-.316,9.657-3.934,6.978-9.317,13.012-13.976,19.529s-8.7,13.839-9.319,21.826c-.17,2.178.058,4.673,1.765,6.039,2.386,1.911,5.879.43,8.531-1.092l8.08-4.637c2.751-1.579,5.928-3.211,8.95-2.248,2.986.951,4.713,4.265,4.767,7.4s-1.216,6.123-2.555,8.957C428.13,426.938,426.3,432.657,422.888,437.961Z" transform="translate(-264.831 -249.458)" fill="#00954e"/>
          <g id="Grupo_3630-2" data-name="Grupo 3630" transform="translate(89.697 71.21)">
            <path id="Trazado_7786-2" data-name="Trazado 7786" d="M349.97,431.265l-.009.416,14.154.067c1.941-2.54-2.215-6.849-.789-9.71a5.6,5.6,0,0,1,2.32-2.09c5.359-3.192,11.8-6.815,12.369-13.026.326-3.554-1.469-6.9-2.768-10.228s-2.038-7.384.106-10.236a15.965,15.965,0,0,1,3.285-2.853,26.655,26.655,0,0,0,9.831-25.463,10.3,10.3,0,0,0-2.041-4.932c-1.936-2.255-5.284-3-7.006-5.42-2.528-3.552-.313-8.354.894-12.543,1.69-5.862.863-12.9-3.721-16.929-1.417-1.243-3.38-2.168-5.163-1.558-2.486.852-3.161,3.995-3.385,6.614a185.64,185.64,0,0,0-.518,23.257c.181,4.476.109,9.828-3.641,12.278-1.386.905-3.081,1.235-4.489,2.107-3.224,2-4.167,6.371-3.574,10.119s2.372,7.192,3.4,10.842,1.194,7.908-1.138,10.9c-1.778,2.283-4.8,3.551-6.007,6.181-2.212,4.82,3.052,9.943,2.955,15.246-.057,3.154-2,5.906-3.534,8.662S350.031,428.111,349.97,431.265Z" transform="translate(-349.961 -316.568)" fill="#004e07"/>
            <g id="Grupo_3629-2" data-name="Grupo 3629" transform="translate(7.075 4.127)">
              <path id="Trazado_7787-2" data-name="Trazado 7787" d="M356.176,430.772c-.228-12.411,3.837-24.4,7.768-36,2.044-6.029,4.159-12.264,5.645-18.488,4.389-18.365,3.609-37.524,2.857-56.052l1.139-.047c.756,18.606,1.538,37.845-2.886,56.364-1.5,6.276-3.623,12.536-5.675,18.591-3.9,11.5-7.932,23.4-7.707,35.609Z" transform="translate(-356.167 -320.188)"/>
            </g>
          </g>
        </g>
      </g>
      <path id="Trazado_7788-2" data-name="Trazado 7788" d="M509.422,61.721s-.031-5.27-4.567-7.737c-2.785-1.513-6.426-.255-8.589,2.062s-3.189,5.445-4.13,8.472q-.836-7.425-2.125-14.788c-1.184-6.774-3.272-14.35-9.368-17.53-5.209-2.717-11.957-1.053-16.278,2.928s-6.508,9.828-7.331,15.645a12.832,12.832,0,0,0-22.491.1c-1.875,3.447-2.074,7.568-1.684,11.473.885,8.866,4.805,18.54,11.308,24.815a11.088,11.088,0,0,0,4.382,2.5c5.934,1.906,25.274,1.025,60.873,1.025Z" transform="translate(60.581 -12.4)" fill="#00b66f"/>
      <g id="Grupo_3633-2" data-name="Grupo 3633" transform="translate(0 27.534)">
        <path id="Trazado_7789-2" data-name="Trazado 7789" d="M-.006,62.311c.9-4.665,5.03-8.9,9.775-8.672a7.5,7.5,0,0,1,6.7,7.818,37.628,37.628,0,0,1,25.722-22.03c4.78-1.119,10.542-.956,13.68,2.818A12.357,12.357,0,0,1,58.283,49.6,25.27,25.27,0,0,1,52.46,66.86c3.159-3.446,6.572-6.71,10.707-8.855,4.728-2.452,10.6-3.247,15.366-.862,6.139,3.075,8.914,11.1,6.848,17.644s-7.351,13.4-14.073,14.789H-.006Z" transform="translate(0.006 -38.821)" fill="#00b66f"/>
      </g>
    </g>
    <g id="Grupo_5347" data-name="Grupo 5347" transform="translate(24.997 -2101.697)">
      <path id="Trazado_7759-3" data-name="Trazado 7759" d="M435.043,36.249a67.493,67.493,0,0,0-26.8-17.069A80.458,80.458,0,0,0,300.921,91.39c-.409,9.144.736,18.392-.832,27.409s-6.661,18.217-15.308,21.215c-11.871,4.114-23.834-4.673-34.567-11.2a110.814,110.814,0,0,0-88.361-11.28c-23.461,7.069-45.106,23.233-54.107,46.023s-2.625,52.038,17.793,65.586c4.588,3.044,10.038,5.6,12.347,10.6,4.777,10.337-6.949,20.278-16.824,25.951C91.983,282.4,63.3,302.766,47.523,332.358S32.739,402.773,57.779,425.08c13.127,11.7,30.768,16.871,48.064,20.024,18.024,3.285,36.76,4.721,54.55.336,19.014-4.686,35.895-15.777,50.618-28.69,9.443-8.282,18.272-17.459,29.086-23.848s24.327-9.7,36.028-5.133c9.25,3.61,16.015,11.488,23.6,17.9a87.384,87.384,0,0,0,130.608-20.579c15.524-24.958,18.4-57.476,38.9-78.532,5.776-5.931,12.719-10.654,18.327-16.746,12.763-13.866,17.359-33.426,18.567-52.233,1.237-19.254-.906-39.232-8.251-57.19-8.27-20.219-24.033-28.862-36.563-45.269-9.338-12.228-6.422-25.895-6.835-40.366C453.885,73.9,449.768,52,435.043,36.249Z" transform="translate(5.194 -14.668)" fill="#00b871"/>
      <path id="Trazado_7760-3" data-name="Trazado 7760" d="M289.816,193.715c6.352,2.041,15.157.61,21.386.61h37.341c19.163,0,39.342,1.841,58.4.008,13.3-1.279,25.523-10.5,27.888-24.191.594-3.439.427-7.336-1.91-9.927-3.728-4.134-10.451-2.73-15.625-.681-8.337,3.3-17.467,9.058-17.893,18.015l6.638-20.165c1.54-4.677,3.1-9.5,2.761-14.414s-3.041-10-7.682-11.647c-5.673-2.017-11.865,1.7-15.733,6.31-7.832,9.338-9.991,22.035-11.863,34.077.181-3.365.351-6.826-.728-10.018s-3.719-6.1-7.069-6.447c-3.488-.366-6.77,2.139-8.417,5.236s-2,6.694-2.326,10.187c-1.264-5.382-.033-12.513-4.889-15.153-2.982-1.62-6.88-.274-9.2,2.208s-3.413,5.829-4.422,9.07q-.9-7.948-2.274-15.832c-1.269-7.251-3.5-15.363-10.03-18.768-5.577-2.908-12.8-1.126-17.429,3.135s-6.966,10.522-7.848,16.75a13.738,13.738,0,0,0-24.079.106c-2.009,3.691-2.221,8.1-1.8,12.283.947,9.492,5.145,19.848,12.107,26.568A11.844,11.844,0,0,0,289.816,193.715Z" transform="translate(38.203 1.585)" fill="#00b66f"/>
      <path id="Trazado_7761-3" data-name="Trazado 7761" d="M88.376,243.672c3.45,1.2,8.233.358,11.617.358h20.283c10.408,0,21.369,1.08,31.723,0a17.071,17.071,0,0,0,15.148-14.187c.323-2.018.233-4.3-1.037-5.823-2.025-2.424-5.677-1.6-8.487-.4-4.528,1.936-9.487,5.312-9.718,10.565q1.8-5.913,3.606-11.826c.836-2.744,1.684-5.572,1.5-8.454s-1.652-5.864-4.172-6.832c-3.081-1.182-6.444,1-8.547,3.7-4.253,5.477-5.426,12.923-6.443,19.985a16.872,16.872,0,0,0-.4-5.876c-.586-1.873-2.02-3.575-3.839-3.78-1.895-.215-3.678,1.254-4.571,3.07a16.723,16.723,0,0,0-1.264,5.975c-.686-3.157-.017-7.338-2.655-8.886-1.62-.951-3.737-.161-4.994,1.294a13.809,13.809,0,0,0-2.4,5.32q-.487-4.663-1.236-9.285c-.69-4.253-1.9-9.011-5.448-11.007-3.029-1.707-6.954-.662-9.466,1.838s-3.785,6.171-4.264,9.823a7.208,7.208,0,0,0-13.079.063,13.364,13.364,0,0,0-.979,7.2c.514,5.567,2.794,11.642,6.575,15.581A6.344,6.344,0,0,0,88.376,243.672Z" transform="translate(11.088 12.223)" fill="#00b66f"/>
      <path id="Trazado_7762-3" data-name="Trazado 7762" d="M525.9,301.82c-9.959,9.96-20.871,16.208-32.433,22.1,6.727-10.078,13.713-20.98,13.576-33.1s-11.025-24.786-22.793-21.9c-9.053,2.218-14.419,12.136-23.274,15.04-4.439-14.423,1.068-29.747,3.479-44.643s-.237-33.355-13.924-39.709c-8.528-3.958-18.754-1.7-27.083,2.661-21.636,11.333-34.338,35.588-36.94,59.872s3.57,48.685,11.875,71.652c-19.547-12.588-44.077-25.534-64.707-14.814-17.658,9.175-23.469,32.848-18.389,52.087,4.926,18.659,17.6,34.1,30.168,48.805H525.9Z" transform="translate(43.898 10.936)" fill="#009750"/>
      <path id="Trazado_7763-3" data-name="Trazado 7763" d="M130.131,312.707c-31.059-20.1-76.315-14.219-101.2,13.154,5.844-8.753,11.912-18.224,11.793-28.748s-9.576-25.581-19.8-23.076C13.059,275.964,7.414,285.3.706,291.152V409.208H157.038C171.817,375.291,161.19,332.808,130.131,312.707Z" transform="translate(0.106 21.604)" fill="#009750"/>
      <g id="Grupo_3632-3" data-name="Grupo 3632" transform="translate(79.711 272.954)">
        <g id="Grupo_3617-3" data-name="Grupo 3617">
          <g id="Grupo_3612-3" data-name="Grupo 3612" transform="translate(127.409 78.011)">
            <path id="Trazado_7764-3" data-name="Trazado 7764" d="M181.777,429.627c-.032.134-.065.269-.1.4l13.8,3.151c2.448-2.057-.67-7.168,1.346-9.649A5.6,5.6,0,0,1,199.544,422c5.927-1.947,13-4.08,14.911-10.017,1.093-3.4.071-7.058-.472-10.586s-.38-7.649,2.336-9.966a15.932,15.932,0,0,1,3.827-2.068,26.656,26.656,0,0,0,15.146-22.708,10.309,10.309,0,0,0-.917-5.258c-1.4-2.623-4.5-4.078-5.657-6.817-1.693-4.018,1.515-8.222,3.607-12.047,2.926-5.352,3.655-12.405.058-17.332-1.111-1.522-2.826-2.853-4.7-2.646-2.613.288-3.957,3.209-4.745,5.717a185.532,185.532,0,0,0-5.576,22.584c-.8,4.408-2.035,9.616-6.229,11.189-1.55.581-3.277.534-4.84,1.077-3.583,1.247-5.456,5.31-5.693,9.1s.747,7.536.958,11.324-.56,7.979-3.486,10.391c-2.233,1.841-5.458,2.42-7.209,4.723-3.21,4.221.809,10.369-.44,15.523-.743,3.067-3.238,5.329-5.337,7.684S182.525,426.562,181.777,429.627Z" transform="translate(-181.679 -322.534)" fill="#004e07"/>
            <g id="Grupo_3611-3" data-name="Grupo 3611" transform="translate(5.579 6.137)">
              <path id="Trazado_7765-3" data-name="Trazado 7765" d="M187.712,431.05l-1.139-.06a85.032,85.032,0,0,1,10.09-35.736c2.649-4.888,5.819-9.567,8.885-14.093,3.917-5.783,7.967-11.762,10.926-18.183,5.084-11.036,6.961-23.249,8.776-35.059l1.127.173c-1.827,11.888-3.716,24.182-8.868,35.363-3,6.506-7.075,12.524-11.018,18.346-3.049,4.5-6.2,9.159-8.826,14A83.864,83.864,0,0,0,187.712,431.05Z" transform="translate(-186.573 -327.918)"/>
            </g>
          </g>
          <g id="Grupo_3614-3" data-name="Grupo 3614" transform="translate(3.469 33.547)">
            <path id="Trazado_7766-3" data-name="Trazado 7766" d="M142.795,423.249c.043.176.086.351.129.528l-18,4.11c-3.194-2.681.873-9.35-1.757-12.587a7.306,7.306,0,0,0-3.549-2c-7.731-2.54-16.959-5.321-19.452-13.068-1.427-4.433-.093-9.208.616-13.81s.495-9.981-3.047-13a20.813,20.813,0,0,0-4.994-2.7,34.779,34.779,0,0,1-19.76-29.625,13.454,13.454,0,0,1,1.2-6.859c1.824-3.422,5.874-5.32,7.38-8.893,2.208-5.243-1.977-10.726-4.706-15.718-3.818-6.982-4.769-16.185-.075-22.612,1.449-1.986,3.686-3.723,6.13-3.453,3.409.377,5.162,4.187,6.19,7.459a241.909,241.909,0,0,1,7.273,29.465c1.042,5.75,2.656,12.544,8.127,14.6,2.023.759,4.276.7,6.316,1.407,4.674,1.627,7.118,6.927,7.428,11.866s-.976,9.832-1.249,14.773.728,10.408,4.547,13.557c2.914,2.4,7.12,3.157,9.406,6.162,4.187,5.507-1.058,13.528.573,20.252.969,4,4.224,6.953,6.963,10.025S141.82,419.25,142.795,423.249Z" transform="translate(-72.959 -283.531)" fill="#004e07"/>
            <g id="Grupo_3613-3" data-name="Grupo 3613" transform="translate(6.899 6.733)">
              <path id="Trazado_7767-3" data-name="Trazado 7767" d="M121.227,437.9c-9.523-10.314-12.245-24.552-14.876-38.323-1.032-5.4-2.1-10.983-3.561-16.239-1.639-5.9-3.9-11.718-6.081-17.345-1.19-3.068-2.421-6.24-3.54-9.395-7.682-21.648-10.975-44.7-14.159-67l1.129-.162c3.176,22.239,6.46,45.235,14.1,66.776,1.114,3.14,2.342,6.3,3.529,9.364,2.192,5.652,4.461,11.5,6.116,17.451,1.475,5.3,2.546,10.907,3.582,16.33,2.6,13.614,5.292,27.69,14.594,37.765Z" transform="translate(-79.011 -289.437)"/>
            </g>
          </g>
          <path id="Trazado_7768-3" data-name="Trazado 7768" d="M175.076,442.607h-67.84a64.3,64.3,0,0,1-23.463-17.1c-1.667-1.932-3.29-4.634-2.055-6.867,1.173-2.123,4.209-2.307,6.518-1.565s4.463,2.135,6.886,2.24A109.11,109.11,0,0,1,78.11,397.237c-3.673-6.293-6.745-13.063-7.811-20.271s.031-14.926,4.122-20.954c1.294-1.908,3.005-3.71,5.242-4.273,2.565-.644,5.234.471,7.509,1.818,6.759,4,11.981,10.168,16.33,16.71,4.026,6.056,7.929,12.973,14.718,15.577a4.03,4.03,0,0,0,2.574.3c1.933-.587,2.222-3.177,2.049-5.19-1.878-21.672-14.073-40.97-20.014-61.9a124.757,124.757,0,0,1-4.511-34.4c.018-6.157.481-12.511,3.259-18.006,4.765-9.424,16.6-14.627,26.764-11.77,7.3,2.053,13.224,7.674,17.039,14.234s5.75,14.031,7.222,21.474a179.611,179.611,0,0,1,3.547,36.862c-.084,7.4-.663,14.927,1.235,22.076.8,3.029,2.868,6.483,5.991,6.2a6.6,6.6,0,0,0,3.3-1.562c3.5-2.685,6.27-6.205,9.573-9.131s7.466-5.334,11.868-5.022a6.427,6.427,0,0,1,5.011,2.528c2.111,3.235-.553,7.37-3.008,10.353C181.643,363.2,174,375.077,173.1,388.382c-.2,2.978.334,6.6,3.064,7.8,2.684,1.184,5.641-.746,7.954-2.55,7.746-6.043,15.789-11.864,24.805-15.768,4.368-1.892,9.421-3.308,13.808-1.459,5.213,2.2,7.718,8.537,7.054,14.156s-3.828,10.614-7.254,15.117C210.248,421.822,195.36,442.607,175.076,442.607Z" transform="translate(-69.916 -254.103)" fill="#00752e"/>
          <path id="Trazado_7769-3" data-name="Trazado 7769" d="M221.525,437.961H139.368c-10-8.111-20.245-17.189-23.215-29.715a3.269,3.269,0,0,1,.044-2.269,3.035,3.035,0,0,1,1.736-1.252,12.447,12.447,0,0,1,10.633,1.063,49.019,49.019,0,0,1-5.043-20.415,8.62,8.62,0,0,1,1.1-5.26c2.379-3.358,7.841-2.135,10.876.645s5.033,6.7,8.547,8.843c-.073-24.8-7.031-49.854-1.94-74.13,1.324-6.314,3.556-12.636,7.858-17.443,4.113-4.6,9.816-7.473,15.621-9.56a13.632,13.632,0,0,1,6.5-1.1,11.888,11.888,0,0,1,5.381,2.627c9.859,7.644,13.79,20.741,14.885,33.168a103.416,103.416,0,0,1-1.392,28.2c-1.688,8.947-4.575,18-3.021,26.972.282,1.623,1.066,3.55,2.707,3.7,1.4.124,2.486-1.158,3.255-2.336,3.414-5.234,5.926-11.049,9.723-16.01s9.346-9.147,15.594-9.171a6.446,6.446,0,0,1,4.31,1.289c2.637,2.3,1.4,6.609-.316,9.657-3.934,6.978-9.317,13.012-13.976,19.529s-8.7,13.839-9.319,21.826c-.17,2.178.058,4.673,1.765,6.039,2.386,1.911,5.879.43,8.531-1.092l8.08-4.637c2.752-1.579,5.928-3.211,8.95-2.248,2.986.951,4.713,4.265,4.767,7.4s-1.216,6.123-2.555,8.957C226.768,426.938,224.941,432.657,221.525,437.961Z" transform="translate(-63.469 -249.458)" fill="#00954e"/>
          <g id="Grupo_3616-3" data-name="Grupo 3616" transform="translate(89.698 71.21)">
            <path id="Trazado_7770-3" data-name="Trazado 7770" d="M148.607,431.265l-.008.416,14.154.067c1.94-2.54-2.216-6.849-.789-9.71a5.6,5.6,0,0,1,2.319-2.09c5.359-3.192,11.8-6.815,12.369-13.026.326-3.554-1.469-6.9-2.768-10.228s-2.038-7.384.106-10.236a15.966,15.966,0,0,1,3.285-2.853,26.655,26.655,0,0,0,9.831-25.463,10.3,10.3,0,0,0-2.041-4.932c-1.936-2.255-5.284-3-7.006-5.42-2.529-3.552-.313-8.354.894-12.543,1.689-5.862.863-12.9-3.721-16.929-1.417-1.243-3.38-2.168-5.163-1.558-2.486.852-3.161,3.995-3.385,6.614a185.64,185.64,0,0,0-.518,23.257c.181,4.476.109,9.828-3.641,12.278-1.386.905-3.081,1.235-4.489,2.107-3.224,2-4.167,6.371-3.573,10.119s2.371,7.192,3.4,10.842,1.194,7.908-1.138,10.9c-1.777,2.283-4.8,3.551-6.005,6.181-2.213,4.82,3.051,9.943,2.954,15.246-.057,3.154-2,5.906-3.534,8.662S148.667,428.111,148.607,431.265Z" transform="translate(-148.599 -316.568)" fill="#004e07"/>
            <g id="Grupo_3615-3" data-name="Grupo 3615" transform="translate(7.074 4.127)">
              <path id="Trazado_7771-3" data-name="Trazado 7771" d="M154.813,430.772c-.228-12.411,3.837-24.4,7.768-36,2.044-6.029,4.159-12.264,5.645-18.488,4.389-18.365,3.609-37.524,2.857-56.052l1.139-.047c.756,18.606,1.538,37.845-2.886,56.364-1.5,6.276-3.623,12.536-5.675,18.591-3.9,11.5-7.932,23.4-7.707,35.609Z" transform="translate(-154.804 -320.188)"/>
            </g>
          </g>
        </g>
        <g id="Grupo_3624-3" data-name="Grupo 3624" transform="translate(114.776)">
          <g id="Grupo_3619-3" data-name="Grupo 3619" transform="translate(127.408 78.011)">
            <path id="Trazado_7772-3" data-name="Trazado 7772" d="M282.459,429.627l-.1.4,13.8,3.151c2.449-2.057-.669-7.168,1.346-9.649a5.593,5.593,0,0,1,2.72-1.533c5.926-1.947,13-4.08,14.91-10.017,1.093-3.4.071-7.058-.472-10.586s-.38-7.649,2.336-9.966a15.918,15.918,0,0,1,3.828-2.068,26.657,26.657,0,0,0,15.145-22.708,10.3,10.3,0,0,0-.917-5.258c-1.4-2.623-4.5-4.078-5.657-6.817-1.693-4.018,1.515-8.222,3.607-12.047,2.926-5.352,3.655-12.405.058-17.332-1.112-1.522-2.825-2.853-4.7-2.646-2.613.288-3.957,3.209-4.746,5.717a185.725,185.725,0,0,0-5.575,22.584c-.8,4.408-2.036,9.616-6.23,11.189-1.55.581-3.276.534-4.84,1.077-3.583,1.247-5.456,5.31-5.693,9.1s.748,7.536.958,11.324-.559,7.979-3.486,10.391c-2.233,1.841-5.457,2.42-7.209,4.723-3.209,4.221.811,10.369-.439,15.523-.743,3.067-3.239,5.329-5.339,7.684S283.207,426.562,282.459,429.627Z" transform="translate(-282.36 -322.534)" fill="#004e07"/>
            <g id="Grupo_3618-3" data-name="Grupo 3618" transform="translate(5.579 6.137)">
              <path id="Trazado_7773-3" data-name="Trazado 7773" d="M288.393,431.05l-1.139-.06a85.049,85.049,0,0,1,10.09-35.736c2.649-4.888,5.82-9.567,8.885-14.093,3.917-5.783,7.967-11.762,10.926-18.183,5.086-11.036,6.962-23.249,8.777-35.059l1.126.173c-1.826,11.888-3.715,24.182-8.868,35.363-3,6.506-7.074,12.524-11.017,18.346-3.051,4.5-6.2,9.159-8.827,14A83.9,83.9,0,0,0,288.393,431.05Z" transform="translate(-287.254 -327.918)"/>
            </g>
          </g>
          <g id="Grupo_3621-3" data-name="Grupo 3621" transform="translate(3.468 33.547)">
            <path id="Trazado_7774-3" data-name="Trazado 7774" d="M243.476,423.249c.043.176.087.351.129.528l-18,4.11c-3.194-2.681.874-9.35-1.757-12.587a7.3,7.3,0,0,0-3.548-2c-7.731-2.54-16.96-5.321-19.453-13.068-1.426-4.433-.092-9.208.616-13.81s.495-9.981-3.047-13a20.813,20.813,0,0,0-4.994-2.7,34.782,34.782,0,0,1-19.76-29.625,13.454,13.454,0,0,1,1.2-6.859c1.824-3.422,5.876-5.32,7.38-8.893,2.208-5.243-1.977-10.726-4.706-15.718-3.818-6.982-4.767-16.185-.075-22.612,1.45-1.986,3.686-3.723,6.13-3.453,3.409.377,5.162,4.187,6.191,7.459a242.335,242.335,0,0,1,7.273,29.465c1.042,5.75,2.655,12.544,8.127,14.6,2.022.759,4.275.7,6.316,1.407,4.674,1.627,7.117,6.927,7.427,11.866s-.975,9.832-1.249,14.773.73,10.408,4.547,13.557c2.914,2.4,7.12,3.157,9.406,6.162,4.187,5.507-1.057,13.528.573,20.252.97,4,4.225,6.953,6.964,10.025S242.5,419.25,243.476,423.249Z" transform="translate(-173.64 -283.531)" fill="#004e07"/>
            <g id="Grupo_3620-3" data-name="Grupo 3620" transform="translate(6.899 6.733)">
              <path id="Trazado_7775-3" data-name="Trazado 7775" d="M221.909,437.9c-9.525-10.314-12.245-24.552-14.877-38.323-1.031-5.4-2.1-10.983-3.56-16.239-1.64-5.9-3.9-11.718-6.082-17.345-1.19-3.068-2.42-6.24-3.54-9.395-7.681-21.648-10.975-44.7-14.159-67l1.13-.162c3.176,22.239,6.46,45.235,14.1,66.776,1.114,3.14,2.343,6.3,3.529,9.364,2.193,5.652,4.462,11.5,6.117,17.451,1.474,5.3,2.546,10.907,3.582,16.33,2.6,13.614,5.291,27.69,14.593,37.765Z" transform="translate(-179.692 -289.437)"/>
            </g>
          </g>
          <path id="Trazado_7776-3" data-name="Trazado 7776" d="M275.757,442.607h-67.84a64.3,64.3,0,0,1-23.463-17.1c-1.666-1.932-3.29-4.634-2.055-6.867,1.174-2.123,4.209-2.307,6.518-1.565s4.463,2.135,6.887,2.24a109.074,109.074,0,0,1-17.012-22.074c-3.673-6.293-6.745-13.063-7.811-20.271s.031-14.926,4.122-20.954c1.3-1.908,3.006-3.71,5.243-4.273,2.564-.644,5.233.471,7.508,1.818,6.759,4,11.982,10.168,16.332,16.71,4.026,6.056,7.929,12.973,14.718,15.577a4.027,4.027,0,0,0,2.573.3c1.933-.587,2.223-3.177,2.049-5.19-1.876-21.672-14.073-40.97-20.014-61.9a124.713,124.713,0,0,1-4.51-34.4c.017-6.157.481-12.511,3.259-18.006,4.764-9.424,16.6-14.627,26.762-11.77,7.305,2.053,13.225,7.674,17.039,14.234s5.75,14.031,7.223,21.474a179.612,179.612,0,0,1,3.545,36.862c-.084,7.4-.663,14.927,1.235,22.076.8,3.029,2.869,6.483,5.991,6.2a6.6,6.6,0,0,0,3.3-1.562c3.5-2.685,6.27-6.205,9.574-9.131s7.466-5.334,11.867-5.022a6.427,6.427,0,0,1,5.011,2.528c2.111,3.235-.552,7.37-3.007,10.353-8.476,10.3-16.114,22.174-17.017,35.479-.2,2.978.333,6.6,3.063,7.8,2.684,1.184,5.642-.746,7.954-2.55,7.747-6.043,15.79-11.864,24.805-15.768,4.37-1.892,9.421-3.308,13.808-1.459,5.214,2.2,7.718,8.537,7.054,14.156s-3.827,10.614-7.254,15.117C310.929,421.822,296.041,442.607,275.757,442.607Z" transform="translate(-170.598 -254.103)" fill="#00752e"/>
          <path id="Trazado_7777-3" data-name="Trazado 7777" d="M322.206,437.961H240.05c-10-8.111-20.246-17.189-23.215-29.715a3.263,3.263,0,0,1,.044-2.269,3.031,3.031,0,0,1,1.736-1.252,12.444,12.444,0,0,1,10.632,1.063,49,49,0,0,1-5.042-20.415,8.62,8.62,0,0,1,1.1-5.26c2.379-3.358,7.841-2.135,10.876.645s5.032,6.7,8.545,8.843c-.072-24.8-7.03-49.854-1.94-74.13,1.324-6.314,3.556-12.636,7.858-17.443,4.114-4.6,9.817-7.473,15.621-9.56a13.636,13.636,0,0,1,6.5-1.1,11.876,11.876,0,0,1,5.381,2.627c9.859,7.644,13.792,20.741,14.886,33.168a103.417,103.417,0,0,1-1.393,28.2c-1.688,8.947-4.574,18-3.021,26.972.282,1.623,1.066,3.55,2.707,3.7,1.4.124,2.486-1.158,3.255-2.336,3.415-5.234,5.926-11.049,9.723-16.01s9.346-9.147,15.594-9.171a6.451,6.451,0,0,1,4.311,1.289c2.636,2.3,1.4,6.609-.317,9.657-3.934,6.978-9.317,13.012-13.975,19.529s-8.7,13.839-9.319,21.826c-.17,2.178.058,4.673,1.765,6.039,2.386,1.911,5.879.43,8.529-1.092l8.081-4.637c2.751-1.579,5.927-3.211,8.949-2.248,2.986.951,4.714,4.265,4.767,7.4s-1.216,6.123-2.555,8.957C327.449,426.938,325.623,432.657,322.206,437.961Z" transform="translate(-164.15 -249.458)" fill="#00954e"/>
          <g id="Grupo_3623-3" data-name="Grupo 3623" transform="translate(89.697 71.21)">
            <path id="Trazado_7778-3" data-name="Trazado 7778" d="M249.288,431.265l-.008.416,14.154.067c1.941-2.54-2.216-6.849-.789-9.71a5.591,5.591,0,0,1,2.32-2.09c5.359-3.192,11.8-6.815,12.368-13.026.327-3.554-1.469-6.9-2.768-10.228s-2.037-7.384.107-10.236a15.908,15.908,0,0,1,3.285-2.853,26.657,26.657,0,0,0,9.831-25.463,10.315,10.315,0,0,0-2.041-4.932c-1.937-2.255-5.284-3-7.008-5.42-2.527-3.552-.312-8.354.895-12.543,1.689-5.862.862-12.9-3.722-16.929-1.416-1.243-3.379-2.168-5.162-1.558-2.487.852-3.162,3.995-3.386,6.614a185.855,185.855,0,0,0-.518,23.257c.181,4.476.109,9.828-3.64,12.278-1.386.905-3.083,1.235-4.489,2.107-3.225,2-4.168,6.371-3.574,10.119s2.372,7.192,3.4,10.842,1.194,7.908-1.137,10.9c-1.778,2.283-4.8,3.551-6.007,6.181-2.213,4.82,3.051,9.943,2.955,15.246-.057,3.154-2,5.906-3.534,8.662S249.35,428.111,249.288,431.265Z" transform="translate(-249.28 -316.568)" fill="#004e07"/>
            <g id="Grupo_3622-3" data-name="Grupo 3622" transform="translate(7.074 4.127)">
              <path id="Trazado_7779-3" data-name="Trazado 7779" d="M255.494,430.772c-.228-12.411,3.837-24.4,7.768-36,2.045-6.029,4.159-12.264,5.646-18.488,4.388-18.365,3.609-37.524,2.857-56.052l1.139-.047c.756,18.606,1.538,37.845-2.887,56.364-1.5,6.276-3.623,12.536-5.675,18.591-3.9,11.5-7.933,23.4-7.709,35.609Z" transform="translate(-255.485 -320.188)"/>
            </g>
          </g>
        </g>
        <g id="Grupo_3631-3" data-name="Grupo 3631" transform="translate(229.552)">
          <g id="Grupo_3626-3" data-name="Grupo 3626" transform="translate(127.409 78.011)">
            <path id="Trazado_7780-3" data-name="Trazado 7780" d="M383.14,429.627c-.032.134-.065.269-.1.4l13.8,3.151c2.449-2.057-.669-7.168,1.347-9.649A5.589,5.589,0,0,1,400.907,422c5.927-1.947,13-4.08,14.911-10.017,1.093-3.4.071-7.058-.472-10.586s-.38-7.649,2.335-9.966a15.96,15.96,0,0,1,3.828-2.068,26.656,26.656,0,0,0,15.146-22.708,10.309,10.309,0,0,0-.917-5.258c-1.4-2.623-4.5-4.078-5.657-6.817-1.693-4.018,1.515-8.222,3.607-12.047,2.926-5.352,3.655-12.405.057-17.332-1.11-1.522-2.825-2.853-4.7-2.646-2.613.288-3.957,3.209-4.745,5.717a185.515,185.515,0,0,0-5.576,22.584c-.8,4.408-2.035,9.616-6.229,11.189-1.55.581-3.277.534-4.84,1.077-3.583,1.247-5.456,5.31-5.693,9.1s.747,7.536.958,11.324-.56,7.979-3.486,10.391c-2.233,1.841-5.458,2.42-7.209,4.723-3.21,4.221.809,10.369-.44,15.523-.743,3.067-3.238,5.329-5.337,7.684S383.888,426.562,383.14,429.627Z" transform="translate(-383.042 -322.534)" fill="#004e07"/>
            <g id="Grupo_3625-3" data-name="Grupo 3625" transform="translate(5.579 6.137)">
              <path id="Trazado_7781-3" data-name="Trazado 7781" d="M389.075,431.05l-1.139-.06a85.015,85.015,0,0,1,10.09-35.736c2.649-4.888,5.819-9.567,8.885-14.093,3.917-5.783,7.967-11.762,10.926-18.183,5.084-11.036,6.961-23.249,8.776-35.059l1.127.173c-1.827,11.888-3.716,24.182-8.868,35.363-3,6.506-7.075,12.524-11.018,18.346-3.049,4.5-6.2,9.159-8.826,14A83.864,83.864,0,0,0,389.075,431.05Z" transform="translate(-387.936 -327.918)"/>
            </g>
          </g>
          <g id="Grupo_3628-3" data-name="Grupo 3628" transform="translate(3.469 33.547)">
            <path id="Trazado_7782-3" data-name="Trazado 7782" d="M344.158,423.249c.042.176.086.351.129.528l-18,4.11c-3.194-2.681.873-9.35-1.758-12.587a7.3,7.3,0,0,0-3.548-2c-7.731-2.54-16.96-5.321-19.453-13.068-1.426-4.433-.092-9.208.617-13.81s.495-9.981-3.047-13a20.813,20.813,0,0,0-4.994-2.7,34.779,34.779,0,0,1-19.76-29.625,13.454,13.454,0,0,1,1.2-6.859c1.824-3.422,5.874-5.32,7.38-8.893,2.208-5.243-1.977-10.726-4.706-15.718-3.818-6.982-4.769-16.185-.075-22.612,1.449-1.986,3.686-3.723,6.13-3.453,3.409.377,5.162,4.187,6.19,7.459a242.115,242.115,0,0,1,7.273,29.465c1.042,5.75,2.656,12.544,8.127,14.6,2.023.759,4.275.7,6.316,1.407,4.674,1.627,7.118,6.927,7.428,11.866s-.976,9.832-1.251,14.773.73,10.408,4.549,13.557c2.913,2.4,7.12,3.157,9.4,6.162,4.188,5.507-1.057,13.528.573,20.252.97,4,4.225,6.953,6.964,10.025S343.182,419.25,344.158,423.249Z" transform="translate(-274.322 -283.531)" fill="#004e07"/>
            <g id="Grupo_3627-3" data-name="Grupo 3627" transform="translate(6.899 6.733)">
              <path id="Trazado_7783-3" data-name="Trazado 7783" d="M322.59,437.9c-9.524-10.314-12.245-24.552-14.876-38.323-1.032-5.4-2.1-10.983-3.561-16.239-1.639-5.9-3.9-11.718-6.081-17.345-1.19-3.068-2.421-6.24-3.541-9.395-7.681-21.648-10.974-44.7-14.158-67l1.129-.162c3.176,22.239,6.46,45.235,14.1,66.776,1.114,3.14,2.342,6.3,3.529,9.364,2.192,5.652,4.461,11.5,6.116,17.451,1.475,5.3,2.546,10.907,3.582,16.33,2.6,13.614,5.291,27.69,14.594,37.765Z" transform="translate(-280.374 -289.437)"/>
            </g>
          </g>
          <path id="Trazado_7784-3" data-name="Trazado 7784" d="M376.439,442.607H308.6a64.3,64.3,0,0,1-23.463-17.1c-1.667-1.932-3.29-4.634-2.055-6.867,1.173-2.123,4.209-2.307,6.517-1.565s4.463,2.135,6.887,2.24a109.069,109.069,0,0,1-17.011-22.074c-3.673-6.293-6.745-13.063-7.812-20.271s.032-14.926,4.122-20.954c1.3-1.908,3.006-3.71,5.243-4.273,2.564-.644,5.234.471,7.509,1.818,6.759,4,11.981,10.168,16.33,16.71,4.026,6.056,7.929,12.973,14.718,15.577a4.03,4.03,0,0,0,2.574.3c1.933-.587,2.222-3.177,2.047-5.19-1.876-21.672-14.073-40.97-20.013-61.9a124.757,124.757,0,0,1-4.511-34.4c.018-6.157.481-12.511,3.259-18.006,4.765-9.424,16.6-14.627,26.764-11.77,7.3,2.053,13.224,7.674,17.039,14.234s5.749,14.031,7.222,21.474a179.613,179.613,0,0,1,3.547,36.862c-.084,7.4-.665,14.927,1.233,22.076.8,3.029,2.869,6.483,5.992,6.2a6.6,6.6,0,0,0,3.3-1.562c3.5-2.685,6.271-6.205,9.574-9.131s7.466-5.334,11.868-5.022a6.425,6.425,0,0,1,5.01,2.528c2.112,3.235-.552,7.37-3.007,10.353-8.475,10.3-16.114,22.174-17.017,35.479-.2,2.978.334,6.6,3.064,7.8,2.684,1.184,5.641-.746,7.954-2.55,7.746-6.043,15.789-11.864,24.805-15.768,4.368-1.892,9.421-3.308,13.808-1.459,5.213,2.2,7.718,8.537,7.054,14.156s-3.828,10.614-7.254,15.117C411.611,421.822,396.723,442.607,376.439,442.607Z" transform="translate(-271.279 -254.103)" fill="#00752e"/>
          <path id="Trazado_7785-3" data-name="Trazado 7785" d="M422.888,437.961H340.731c-10-8.111-20.245-17.189-23.215-29.715a3.27,3.27,0,0,1,.044-2.269,3.035,3.035,0,0,1,1.736-1.252,12.447,12.447,0,0,1,10.633,1.063,49.018,49.018,0,0,1-5.043-20.415,8.62,8.62,0,0,1,1.1-5.26c2.379-3.358,7.841-2.135,10.876.645s5.033,6.7,8.547,8.843c-.073-24.8-7.031-49.854-1.94-74.13,1.324-6.314,3.556-12.636,7.858-17.443,4.113-4.6,9.816-7.473,15.621-9.56a13.631,13.631,0,0,1,6.5-1.1,11.888,11.888,0,0,1,5.381,2.627c9.859,7.644,13.791,20.741,14.885,33.168a103.416,103.416,0,0,1-1.392,28.2c-1.688,8.947-4.575,18-3.021,26.972.282,1.623,1.066,3.55,2.707,3.7,1.4.124,2.485-1.158,3.255-2.336,3.414-5.234,5.926-11.049,9.723-16.01s9.346-9.147,15.594-9.171a6.446,6.446,0,0,1,4.31,1.289c2.637,2.3,1.4,6.609-.316,9.657-3.934,6.978-9.317,13.012-13.976,19.529s-8.7,13.839-9.319,21.826c-.17,2.178.058,4.673,1.765,6.039,2.386,1.911,5.879.43,8.531-1.092l8.08-4.637c2.751-1.579,5.928-3.211,8.95-2.248,2.986.951,4.713,4.265,4.767,7.4s-1.216,6.123-2.555,8.957C428.13,426.938,426.3,432.657,422.888,437.961Z" transform="translate(-264.831 -249.458)" fill="#00954e"/>
          <g id="Grupo_3630-3" data-name="Grupo 3630" transform="translate(89.697 71.21)">
            <path id="Trazado_7786-3" data-name="Trazado 7786" d="M349.97,431.265l-.009.416,14.154.067c1.941-2.54-2.215-6.849-.789-9.71a5.6,5.6,0,0,1,2.32-2.09c5.359-3.192,11.8-6.815,12.369-13.026.326-3.554-1.469-6.9-2.768-10.228s-2.038-7.384.106-10.236a15.965,15.965,0,0,1,3.285-2.853,26.655,26.655,0,0,0,9.831-25.463,10.3,10.3,0,0,0-2.041-4.932c-1.936-2.255-5.284-3-7.006-5.42-2.528-3.552-.313-8.354.894-12.543,1.69-5.862.863-12.9-3.721-16.929-1.417-1.243-3.38-2.168-5.163-1.558-2.486.852-3.161,3.995-3.385,6.614a185.64,185.64,0,0,0-.518,23.257c.181,4.476.109,9.828-3.641,12.278-1.386.905-3.081,1.235-4.489,2.107-3.224,2-4.167,6.371-3.574,10.119s2.372,7.192,3.4,10.842,1.194,7.908-1.138,10.9c-1.778,2.283-4.8,3.551-6.007,6.181-2.212,4.82,3.052,9.943,2.955,15.246-.057,3.154-2,5.906-3.534,8.662S350.031,428.111,349.97,431.265Z" transform="translate(-349.961 -316.568)" fill="#004e07"/>
            <g id="Grupo_3629-3" data-name="Grupo 3629" transform="translate(7.075 4.127)">
              <path id="Trazado_7787-3" data-name="Trazado 7787" d="M356.176,430.772c-.228-12.411,3.837-24.4,7.768-36,2.044-6.029,4.159-12.264,5.645-18.488,4.389-18.365,3.609-37.524,2.857-56.052l1.139-.047c.756,18.606,1.538,37.845-2.886,56.364-1.5,6.276-3.623,12.536-5.675,18.591-3.9,11.5-7.932,23.4-7.707,35.609Z" transform="translate(-356.167 -320.188)"/>
            </g>
          </g>
        </g>
      </g>
      <path id="Trazado_7788-3" data-name="Trazado 7788" d="M509.422,61.721s-.031-5.27-4.567-7.737c-2.785-1.513-6.426-.255-8.589,2.062s-3.189,5.445-4.13,8.472q-.836-7.425-2.125-14.788c-1.184-6.774-3.272-14.35-9.368-17.53-5.209-2.717-11.957-1.053-16.278,2.928s-6.508,9.828-7.331,15.645a12.832,12.832,0,0,0-22.491.1c-1.875,3.447-2.074,7.568-1.684,11.473.885,8.866,4.805,18.54,11.308,24.815a11.088,11.088,0,0,0,4.382,2.5c5.934,1.906,25.274,1.025,60.873,1.025Z" transform="translate(60.581 -12.4)" fill="#00b66f"/>
      <g id="Grupo_3633-3" data-name="Grupo 3633" transform="translate(0 27.534)">
        <path id="Trazado_7789-3" data-name="Trazado 7789" d="M-.006,62.311c.9-4.665,5.03-8.9,9.775-8.672a7.5,7.5,0,0,1,6.7,7.818,37.628,37.628,0,0,1,25.722-22.03c4.78-1.119,10.542-.956,13.68,2.818A12.357,12.357,0,0,1,58.283,49.6,25.27,25.27,0,0,1,52.46,66.86c3.159-3.446,6.572-6.71,10.707-8.855,4.728-2.452,10.6-3.247,15.366-.862,6.139,3.075,8.914,11.1,6.848,17.644s-7.351,13.4-14.073,14.789H-.006Z" transform="translate(0.006 -38.821)" fill="#00b66f"/>
      </g>
    </g>
  </g>
</svg>
